%TF.GenerationSoftware,KiCad,Pcbnew,10.0.3*%
%TF.CreationDate,2026-08-22T15:59:49-05:00*%
%TF.ProjectId,USB_PCIE_Board,5553425f-5043-4494-955f-426f6172642e,0.1*%
%TF.SameCoordinates,Original*%
%TF.FileFunction,Drillmap*%
%TF.FilePolarity,Positive*%
%FSLAX45Y45*%
G04 Gerber Fmt 4.5, Leading zero omitted, Abs format (unit mm)*
G04 Created by KiCad (PCBNEW 10.0.3) date 2026-08-22 15:59:49*
%MOMM*%
%LPD*%
G01*
G04 APERTURE LIST*
%ADD10C,0.400000*%
%ADD11C,0.200000*%
%ADD12C,0.320000*%
G04 APERTURE END LIST*
D10*
X5144967Y-3826429D02*
X14968749Y-3826429D01*
X5144967Y-14526179D02*
X5144967Y-3826429D01*
X6644978Y-13701032D02*
X6644978Y-14526179D01*
X6644978Y-14526179D02*
X5144967Y-14526179D01*
X8480128Y-13701032D02*
X6644978Y-13701032D01*
X8480128Y-14526179D02*
X8480128Y-13701032D01*
D11*
X9100151Y-10630196D02*
G75*
G02*
X8947069Y-10630196I-76541J0D01*
G01*
X8947069Y-10630196D02*
G75*
G02*
X9100151Y-10630196I76541J0D01*
G01*
D10*
X9279875Y-13883771D02*
X9279875Y-14526179D01*
X9279875Y-14526179D02*
X8480128Y-14526179D01*
X9462614Y-13701032D02*
X9461393Y-13701036D01*
X9460173Y-13701048D01*
X9458954Y-13701068D01*
X9457737Y-13701096D01*
X9456520Y-13701132D01*
X9455304Y-13701176D01*
X9454089Y-13701227D01*
X9452875Y-13701287D01*
X9451663Y-13701355D01*
X9450451Y-13701431D01*
X9449241Y-13701514D01*
X9448032Y-13701606D01*
X9446824Y-13701705D01*
X9445617Y-13701813D01*
X9444412Y-13701928D01*
X9443208Y-13702051D01*
X9442005Y-13702182D01*
X9440803Y-13702321D01*
X9439603Y-13702468D01*
X9438405Y-13702623D01*
X9437208Y-13702785D01*
X9436012Y-13702956D01*
X9434818Y-13703134D01*
X9433626Y-13703320D01*
X9432435Y-13703514D01*
X9431245Y-13703716D01*
X9430058Y-13703926D01*
X9428872Y-13704143D01*
X9427687Y-13704369D01*
X9426505Y-13704602D01*
X9425324Y-13704843D01*
X9424145Y-13705091D01*
X9422968Y-13705348D01*
X9421793Y-13705612D01*
X9420619Y-13705884D01*
X9419448Y-13706164D01*
X9418279Y-13706451D01*
X9417112Y-13706746D01*
X9415946Y-13707049D01*
X9414783Y-13707360D01*
X9413622Y-13707678D01*
X9412463Y-13708004D01*
X9411307Y-13708338D01*
X9410153Y-13708680D01*
X9409001Y-13709029D01*
X9407851Y-13709385D01*
X9406704Y-13709750D01*
X9405559Y-13710122D01*
X9404416Y-13710501D01*
X9403276Y-13710888D01*
X9402139Y-13711283D01*
X9401004Y-13711685D01*
X9399872Y-13712095D01*
X9398743Y-13712512D01*
X9397616Y-13712937D01*
X9396492Y-13713370D01*
X9395371Y-13713810D01*
X9394252Y-13714257D01*
X9393137Y-13714712D01*
X9392024Y-13715174D01*
X9390914Y-13715644D01*
X9389808Y-13716121D01*
X9388704Y-13716606D01*
X9387603Y-13717097D01*
X9386506Y-13717597D01*
X9385412Y-13718103D01*
X9384321Y-13718617D01*
X9383233Y-13719138D01*
X9382149Y-13719667D01*
X9381068Y-13720203D01*
X9379990Y-13720745D01*
X9378916Y-13721296D01*
X9377845Y-13721853D01*
X9376778Y-13722418D01*
X9375715Y-13722989D01*
X9374655Y-13723568D01*
X9373599Y-13724154D01*
X9372546Y-13724747D01*
X9371498Y-13725347D01*
X9370453Y-13725954D01*
X9369412Y-13726568D01*
X9368375Y-13727189D01*
X9367342Y-13727817D01*
X9366313Y-13728452D01*
X9365288Y-13729094D01*
X9364267Y-13729742D01*
X9363250Y-13730398D01*
X9362237Y-13731060D01*
X9361229Y-13731729D01*
X9360225Y-13732405D01*
X9359225Y-13733087D01*
X9358230Y-13733776D01*
X9357239Y-13734472D01*
X9356253Y-13735175D01*
X9355271Y-13735884D01*
X9354294Y-13736599D01*
X9353321Y-13737322D01*
X9352353Y-13738050D01*
X9351390Y-13738785D01*
X9350432Y-13739527D01*
X9349478Y-13740275D01*
X9348529Y-13741029D01*
X9347585Y-13741790D01*
X9346647Y-13742556D01*
X9345713Y-13743330D01*
X9344784Y-13744109D01*
X9343860Y-13744894D01*
X9342941Y-13745686D01*
X9342028Y-13746484D01*
X9341120Y-13747287D01*
X9340217Y-13748097D01*
X9339319Y-13748913D01*
X9338427Y-13749735D01*
X9337540Y-13750562D01*
X9336658Y-13751396D01*
X9335782Y-13752235D01*
X9334912Y-13753080D01*
X9334047Y-13753931D01*
X9333188Y-13754787D01*
X9332760Y-13755218D01*
X9332334Y-13755649D01*
X9331910Y-13756083D01*
X9331487Y-13756517D01*
X9331065Y-13756953D01*
X9330644Y-13757391D01*
X9330226Y-13757829D01*
X9329808Y-13758269D01*
X9329392Y-13758711D01*
X9328978Y-13759154D01*
X9328565Y-13759598D01*
X9328153Y-13760043D01*
X9327743Y-13760490D01*
X9327334Y-13760939D01*
X9326927Y-13761388D01*
X9326522Y-13761839D01*
X9326117Y-13762291D01*
X9325715Y-13762745D01*
X9325314Y-13763200D01*
X9324914Y-13763656D01*
X9324516Y-13764113D01*
X9324119Y-13764572D01*
X9323724Y-13765032D01*
X9323331Y-13765494D01*
X9322939Y-13765956D01*
X9322548Y-13766420D01*
X9322159Y-13766885D01*
X9321772Y-13767352D01*
X9321386Y-13767820D01*
X9321002Y-13768289D01*
X9320619Y-13768759D01*
X9320238Y-13769230D01*
X9319859Y-13769703D01*
X9319481Y-13770177D01*
X9319104Y-13770652D01*
X9318730Y-13771128D01*
X9318356Y-13771606D01*
X9317985Y-13772085D01*
X9317615Y-13772565D01*
X9317246Y-13773046D01*
X9316880Y-13773528D01*
X9316514Y-13774012D01*
X9316151Y-13774497D01*
X9315789Y-13774983D01*
X9315429Y-13775470D01*
X9315070Y-13775958D01*
X9314713Y-13776447D01*
X9314358Y-13776938D01*
X9314004Y-13777429D01*
X9313652Y-13777922D01*
X9313301Y-13778416D01*
X9312952Y-13778911D01*
X9312605Y-13779407D01*
X9312260Y-13779905D01*
X9311916Y-13780403D01*
X9311574Y-13780903D01*
X9311233Y-13781403D01*
X9310895Y-13781905D01*
X9310557Y-13782408D01*
X9310222Y-13782912D01*
X9309888Y-13783417D01*
X9309556Y-13783923D01*
X9309226Y-13784430D01*
X9308897Y-13784938D01*
X9308570Y-13785447D01*
X9308245Y-13785957D01*
X9307922Y-13786468D01*
X9307600Y-13786981D01*
X9307280Y-13787494D01*
X9306961Y-13788008D01*
X9306645Y-13788524D01*
X9306330Y-13789040D01*
X9306017Y-13789557D01*
X9305705Y-13790076D01*
X9305396Y-13790595D01*
X9305088Y-13791115D01*
X9304781Y-13791636D01*
X9304477Y-13792159D01*
X9304174Y-13792682D01*
X9303873Y-13793206D01*
X9303574Y-13793731D01*
X9303277Y-13794257D01*
X9302981Y-13794784D01*
X9302687Y-13795312D01*
X9302395Y-13795841D01*
X9302105Y-13796371D01*
X9301816Y-13796902D01*
X9301529Y-13797433D01*
X9301244Y-13797966D01*
X9300961Y-13798499D01*
X9300680Y-13799034D01*
X9300400Y-13799569D01*
X9300122Y-13800105D01*
X9299846Y-13800642D01*
X9299572Y-13801180D01*
X9299299Y-13801719D01*
X9299029Y-13802258D01*
X9298760Y-13802799D01*
X9298493Y-13803340D01*
X9298228Y-13803882D01*
X9297965Y-13804425D01*
X9297703Y-13804969D01*
X9297443Y-13805514D01*
X9297185Y-13806059D01*
X9296929Y-13806605D01*
X9296675Y-13807153D01*
X9296423Y-13807700D01*
X9296172Y-13808249D01*
X9295923Y-13808799D01*
X9295676Y-13809349D01*
X9295431Y-13809900D01*
X9295188Y-13810452D01*
X9294947Y-13811004D01*
X9294707Y-13811558D01*
X9294470Y-13812112D01*
X9294234Y-13812667D01*
X9294000Y-13813222D01*
X9293768Y-13813779D01*
X9293538Y-13814336D01*
X9293309Y-13814894D01*
X9293083Y-13815452D01*
X9292858Y-13816012D01*
X9292635Y-13816572D01*
X9292414Y-13817132D01*
X9292195Y-13817694D01*
X9291978Y-13818256D01*
X9291763Y-13818819D01*
X9291550Y-13819382D01*
X9291338Y-13819946D01*
X9291128Y-13820511D01*
X9290921Y-13821077D01*
X9290715Y-13821643D01*
X9290511Y-13822210D01*
X9290309Y-13822778D01*
X9290109Y-13823346D01*
X9289910Y-13823915D01*
X9289714Y-13824484D01*
X9289519Y-13825054D01*
X9289327Y-13825625D01*
X9289136Y-13826196D01*
X9288947Y-13826768D01*
X9288761Y-13827341D01*
X9288576Y-13827914D01*
X9288392Y-13828488D01*
X9288211Y-13829062D01*
X9288032Y-13829638D01*
X9287855Y-13830213D01*
X9287679Y-13830789D01*
X9287506Y-13831366D01*
X9287334Y-13831943D01*
X9287165Y-13832521D01*
X9286997Y-13833100D01*
X9286831Y-13833679D01*
X9286667Y-13834259D01*
X9286505Y-13834839D01*
X9286345Y-13835420D01*
X9286187Y-13836001D01*
X9286031Y-13836583D01*
X9285876Y-13837165D01*
X9285724Y-13837748D01*
X9285574Y-13838331D01*
X9285425Y-13838915D01*
X9285279Y-13839499D01*
X9285134Y-13840084D01*
X9284991Y-13840670D01*
X9284850Y-13841256D01*
X9284712Y-13841842D01*
X9284575Y-13842429D01*
X9284440Y-13843016D01*
X9284307Y-13843604D01*
X9284176Y-13844193D01*
X9284047Y-13844782D01*
X9283920Y-13845371D01*
X9283794Y-13845961D01*
X9283671Y-13846551D01*
X9283550Y-13847142D01*
X9283431Y-13847733D01*
X9283313Y-13848324D01*
X9283198Y-13848916D01*
X9283084Y-13849509D01*
X9282973Y-13850102D01*
X9282863Y-13850695D01*
X9282756Y-13851289D01*
X9282650Y-13851883D01*
X9282546Y-13852477D01*
X9282444Y-13853073D01*
X9282345Y-13853668D01*
X9282247Y-13854264D01*
X9282151Y-13854860D01*
X9282057Y-13855457D01*
X9281965Y-13856054D01*
X9281875Y-13856651D01*
X9281787Y-13857249D01*
X9281701Y-13857847D01*
X9281617Y-13858445D01*
X9281535Y-13859044D01*
X9281455Y-13859644D01*
X9281377Y-13860243D01*
X9281301Y-13860843D01*
X9281226Y-13861444D01*
X9281154Y-13862044D01*
X9281084Y-13862645D01*
X9281016Y-13863247D01*
X9280949Y-13863849D01*
X9280885Y-13864451D01*
X9280823Y-13865053D01*
X9280762Y-13865656D01*
X9280704Y-13866259D01*
X9280648Y-13866862D01*
X9280593Y-13867466D01*
X9280541Y-13868070D01*
X9280490Y-13868674D01*
X9280442Y-13869279D01*
X9280395Y-13869884D01*
X9280351Y-13870489D01*
X9280308Y-13871095D01*
X9280268Y-13871701D01*
X9280229Y-13872307D01*
X9280193Y-13872913D01*
X9280158Y-13873520D01*
X9280125Y-13874127D01*
X9280095Y-13874734D01*
X9280066Y-13875342D01*
X9280040Y-13875950D01*
X9280015Y-13876557D01*
X9279992Y-13877166D01*
X9279972Y-13877774D01*
X9279953Y-13878383D01*
X9279936Y-13878992D01*
X9279922Y-13879602D01*
X9279909Y-13880211D01*
X9279898Y-13880821D01*
X9279890Y-13881431D01*
X9279883Y-13882042D01*
X9279878Y-13882652D01*
X9279876Y-13883263D01*
X9279875Y-13883771D01*
X9645000Y-13883771D02*
X9644996Y-13882550D01*
X9644984Y-13881330D01*
X9644964Y-13880111D01*
X9644936Y-13878893D01*
X9644900Y-13877676D01*
X9644856Y-13876460D01*
X9644805Y-13875246D01*
X9644745Y-13874032D01*
X9644677Y-13872819D01*
X9644601Y-13871607D01*
X9644518Y-13870397D01*
X9644426Y-13869188D01*
X9644327Y-13867980D01*
X9644219Y-13866773D01*
X9644104Y-13865567D01*
X9643981Y-13864363D01*
X9643850Y-13863160D01*
X9643711Y-13861959D01*
X9643564Y-13860758D01*
X9643409Y-13859560D01*
X9643247Y-13858362D01*
X9643076Y-13857167D01*
X9642898Y-13855972D01*
X9642712Y-13854779D01*
X9642518Y-13853588D01*
X9642316Y-13852399D01*
X9642106Y-13851211D01*
X9641888Y-13850024D01*
X9641663Y-13848840D01*
X9641430Y-13847657D01*
X9641189Y-13846476D01*
X9640940Y-13845297D01*
X9640684Y-13844119D01*
X9640420Y-13842944D01*
X9640147Y-13841770D01*
X9639868Y-13840598D01*
X9639580Y-13839429D01*
X9639285Y-13838261D01*
X9638982Y-13837095D01*
X9638671Y-13835932D01*
X9638353Y-13834770D01*
X9638027Y-13833611D01*
X9637693Y-13832454D01*
X9637351Y-13831299D01*
X9637002Y-13830147D01*
X9636646Y-13828997D01*
X9636281Y-13827849D01*
X9635909Y-13826704D01*
X9635530Y-13825561D01*
X9635142Y-13824421D01*
X9634748Y-13823283D01*
X9634345Y-13822147D01*
X9633935Y-13821015D01*
X9633518Y-13819885D01*
X9633093Y-13818757D01*
X9632660Y-13817633D01*
X9632220Y-13816511D01*
X9631773Y-13815392D01*
X9631318Y-13814276D01*
X9630856Y-13813163D01*
X9630386Y-13812052D01*
X9629908Y-13810945D01*
X9629424Y-13809841D01*
X9628932Y-13808740D01*
X9628433Y-13807642D01*
X9627926Y-13806547D01*
X9627412Y-13805456D01*
X9626891Y-13804367D01*
X9626362Y-13803282D01*
X9625826Y-13802201D01*
X9625283Y-13801123D01*
X9624733Y-13800048D01*
X9624175Y-13798976D01*
X9623611Y-13797909D01*
X9623039Y-13796845D01*
X9622460Y-13795784D01*
X9621874Y-13794727D01*
X9621281Y-13793674D01*
X9620681Y-13792625D01*
X9620073Y-13791580D01*
X9619459Y-13790538D01*
X9618838Y-13789500D01*
X9618210Y-13788467D01*
X9617575Y-13787437D01*
X9616933Y-13786411D01*
X9616284Y-13785390D01*
X9615629Y-13784372D01*
X9614966Y-13783359D01*
X9614297Y-13782350D01*
X9613621Y-13781346D01*
X9612939Y-13780345D01*
X9612249Y-13779349D01*
X9611553Y-13778358D01*
X9610851Y-13777371D01*
X9610142Y-13776389D01*
X9609426Y-13775411D01*
X9608704Y-13774438D01*
X9607975Y-13773469D01*
X9607240Y-13772505D01*
X9606498Y-13771546D01*
X9605750Y-13770592D01*
X9604996Y-13769643D01*
X9604235Y-13768698D01*
X9603468Y-13767759D01*
X9602695Y-13766825D01*
X9601916Y-13765895D01*
X9601130Y-13764971D01*
X9600339Y-13764052D01*
X9599541Y-13763138D01*
X9598737Y-13762229D01*
X9597927Y-13761325D01*
X9597111Y-13760427D01*
X9596290Y-13759535D01*
X9595462Y-13758647D01*
X9594629Y-13757765D01*
X9593789Y-13756889D01*
X9592944Y-13756018D01*
X9592094Y-13755153D01*
X9591237Y-13754293D01*
X9590807Y-13753865D01*
X9590375Y-13753439D01*
X9589942Y-13753014D01*
X9589507Y-13752591D01*
X9589072Y-13752169D01*
X9588634Y-13751748D01*
X9588196Y-13751329D01*
X9587755Y-13750912D01*
X9587314Y-13750496D01*
X9586871Y-13750081D01*
X9586427Y-13749668D01*
X9585982Y-13749256D01*
X9585535Y-13748846D01*
X9585087Y-13748437D01*
X9584637Y-13748030D01*
X9584186Y-13747624D01*
X9583734Y-13747220D01*
X9583281Y-13746817D01*
X9582826Y-13746415D01*
X9582370Y-13746016D01*
X9581912Y-13745617D01*
X9581454Y-13745221D01*
X9580994Y-13744826D01*
X9580532Y-13744432D01*
X9580070Y-13744040D01*
X9579606Y-13743649D01*
X9579141Y-13743260D01*
X9578675Y-13742873D01*
X9578207Y-13742487D01*
X9577738Y-13742102D01*
X9577268Y-13741720D01*
X9576797Y-13741338D01*
X9576324Y-13740959D01*
X9575851Y-13740581D01*
X9575376Y-13740204D01*
X9574899Y-13739829D01*
X9574422Y-13739456D01*
X9573943Y-13739085D01*
X9573464Y-13738714D01*
X9572982Y-13738346D01*
X9572500Y-13737979D01*
X9572017Y-13737614D01*
X9571532Y-13737250D01*
X9571047Y-13736888D01*
X9570560Y-13736528D01*
X9570072Y-13736169D01*
X9569583Y-13735812D01*
X9569092Y-13735457D01*
X9568601Y-13735103D01*
X9568108Y-13734751D01*
X9567615Y-13734400D01*
X9567120Y-13734051D01*
X9566624Y-13733704D01*
X9566127Y-13733359D01*
X9565629Y-13733015D01*
X9565129Y-13732673D01*
X9564629Y-13732332D01*
X9564128Y-13731994D01*
X9563625Y-13731656D01*
X9563122Y-13731321D01*
X9562617Y-13730987D01*
X9562111Y-13730655D01*
X9561605Y-13730325D01*
X9561097Y-13729996D01*
X9560588Y-13729669D01*
X9560078Y-13729344D01*
X9559567Y-13729021D01*
X9559055Y-13728699D01*
X9558542Y-13728379D01*
X9558028Y-13728061D01*
X9557513Y-13727744D01*
X9556997Y-13727429D01*
X9556480Y-13727116D01*
X9555962Y-13726805D01*
X9555444Y-13726495D01*
X9554924Y-13726187D01*
X9554403Y-13725881D01*
X9553881Y-13725577D01*
X9553358Y-13725274D01*
X9552834Y-13724973D01*
X9552310Y-13724674D01*
X9551784Y-13724377D01*
X9551258Y-13724081D01*
X9550730Y-13723788D01*
X9550202Y-13723496D01*
X9549672Y-13723205D01*
X9549142Y-13722917D01*
X9548611Y-13722630D01*
X9548079Y-13722345D01*
X9547546Y-13722062D01*
X9547012Y-13721781D01*
X9546477Y-13721502D01*
X9545942Y-13721224D01*
X9545405Y-13720948D01*
X9544868Y-13720674D01*
X9544330Y-13720402D01*
X9543791Y-13720131D01*
X9543251Y-13719863D01*
X9542710Y-13719596D01*
X9542168Y-13719331D01*
X9541626Y-13719068D01*
X9541083Y-13718806D01*
X9540539Y-13718547D01*
X9539994Y-13718289D01*
X9539448Y-13718033D01*
X9538902Y-13717779D01*
X9538355Y-13717527D01*
X9537807Y-13717276D01*
X9537258Y-13717028D01*
X9536708Y-13716781D01*
X9536158Y-13716536D01*
X9535607Y-13716293D01*
X9535055Y-13716052D01*
X9534502Y-13715813D01*
X9533949Y-13715576D01*
X9533394Y-13715340D01*
X9532840Y-13715106D01*
X9532284Y-13714874D01*
X9531728Y-13714645D01*
X9531170Y-13714416D01*
X9530613Y-13714190D01*
X9530054Y-13713966D01*
X9529495Y-13713743D01*
X9528935Y-13713523D01*
X9528374Y-13713304D01*
X9527813Y-13713087D01*
X9527251Y-13712872D01*
X9526688Y-13712659D01*
X9526125Y-13712448D01*
X9525561Y-13712238D01*
X9524996Y-13712031D01*
X9524431Y-13711825D01*
X9523865Y-13711622D01*
X9523298Y-13711420D01*
X9522731Y-13711220D01*
X9522163Y-13711022D01*
X9521595Y-13710826D01*
X9521025Y-13710632D01*
X9520456Y-13710440D01*
X9519885Y-13710249D01*
X9519314Y-13710061D01*
X9518743Y-13709874D01*
X9518170Y-13709690D01*
X9517598Y-13709507D01*
X9517024Y-13709326D01*
X9516450Y-13709147D01*
X9515876Y-13708970D01*
X9515300Y-13708795D01*
X9514725Y-13708622D01*
X9514148Y-13708451D01*
X9513572Y-13708282D01*
X9512994Y-13708114D01*
X9512416Y-13707949D01*
X9511838Y-13707785D01*
X9511259Y-13707624D01*
X9510679Y-13707464D01*
X9510099Y-13707306D01*
X9509518Y-13707150D01*
X9508937Y-13706996D01*
X9508355Y-13706844D01*
X9507773Y-13706694D01*
X9507190Y-13706546D01*
X9506607Y-13706400D01*
X9506023Y-13706256D01*
X9505439Y-13706114D01*
X9504855Y-13705973D01*
X9504270Y-13705835D01*
X9503684Y-13705699D01*
X9503098Y-13705564D01*
X9502511Y-13705431D01*
X9501924Y-13705301D01*
X9501336Y-13705172D01*
X9500749Y-13705046D01*
X9500160Y-13704921D01*
X9499571Y-13704798D01*
X9498982Y-13704677D01*
X9498392Y-13704558D01*
X9497802Y-13704441D01*
X9497211Y-13704326D01*
X9496620Y-13704213D01*
X9496029Y-13704102D01*
X9495437Y-13703993D01*
X9494844Y-13703886D01*
X9494252Y-13703781D01*
X9493659Y-13703677D01*
X9493065Y-13703576D01*
X9492471Y-13703477D01*
X9491877Y-13703379D01*
X9491282Y-13703284D01*
X9490687Y-13703191D01*
X9490091Y-13703099D01*
X9489495Y-13703010D01*
X9488899Y-13702922D01*
X9488303Y-13702837D01*
X9487706Y-13702753D01*
X9487108Y-13702671D01*
X9486511Y-13702592D01*
X9485913Y-13702514D01*
X9485314Y-13702438D01*
X9484716Y-13702365D01*
X9484117Y-13702293D01*
X9483517Y-13702223D01*
X9482917Y-13702155D01*
X9482317Y-13702090D01*
X9481717Y-13702026D01*
X9481116Y-13701964D01*
X9480515Y-13701904D01*
X9479914Y-13701846D01*
X9479312Y-13701790D01*
X9478710Y-13701736D01*
X9478108Y-13701684D01*
X9477505Y-13701634D01*
X9476903Y-13701586D01*
X9476299Y-13701540D01*
X9475696Y-13701496D01*
X9475092Y-13701454D01*
X9474488Y-13701414D01*
X9473884Y-13701376D01*
X9473279Y-13701340D01*
X9472674Y-13701306D01*
X9472069Y-13701274D01*
X9471464Y-13701244D01*
X9470858Y-13701216D01*
X9470252Y-13701190D01*
X9469646Y-13701166D01*
X9469040Y-13701144D01*
X9468433Y-13701123D01*
X9467826Y-13701105D01*
X9467219Y-13701089D01*
X9466612Y-13701075D01*
X9466004Y-13701063D01*
X9465396Y-13701053D01*
X9464789Y-13701045D01*
X9464180Y-13701038D01*
X9463572Y-13701034D01*
X9462963Y-13701032D01*
X9462614Y-13701032D01*
X9645000Y-14926229D02*
X9645000Y-13883771D01*
X9695094Y-14976323D02*
X9645000Y-14926229D01*
X10714975Y-14976323D02*
X9695094Y-14976323D01*
X10765069Y-14221026D02*
X10765069Y-14926229D01*
X10765069Y-14926229D02*
X10714975Y-14976323D01*
X10859967Y-14126129D02*
X10859086Y-14126133D01*
X10858207Y-14126145D01*
X10857329Y-14126165D01*
X10856451Y-14126193D01*
X10855575Y-14126229D01*
X10854700Y-14126273D01*
X10853826Y-14126324D01*
X10852954Y-14126384D01*
X10852082Y-14126452D01*
X10851212Y-14126527D01*
X10850343Y-14126611D01*
X10849476Y-14126702D01*
X10848610Y-14126801D01*
X10847745Y-14126908D01*
X10846882Y-14127023D01*
X10846021Y-14127146D01*
X10845161Y-14127277D01*
X10844302Y-14127415D01*
X10843445Y-14127561D01*
X10842590Y-14127716D01*
X10841737Y-14127877D01*
X10840886Y-14128047D01*
X10840036Y-14128225D01*
X10839188Y-14128410D01*
X10838342Y-14128603D01*
X10837498Y-14128804D01*
X10836656Y-14129012D01*
X10835817Y-14129229D01*
X10834979Y-14129452D01*
X10834143Y-14129684D01*
X10833310Y-14129923D01*
X10832479Y-14130170D01*
X10831650Y-14130425D01*
X10830824Y-14130687D01*
X10830000Y-14130957D01*
X10829179Y-14131234D01*
X10828360Y-14131519D01*
X10827544Y-14131812D01*
X10826730Y-14132112D01*
X10825920Y-14132420D01*
X10825112Y-14132735D01*
X10824306Y-14133057D01*
X10823504Y-14133387D01*
X10822705Y-14133725D01*
X10821908Y-14134070D01*
X10821115Y-14134422D01*
X10820325Y-14134782D01*
X10819538Y-14135148D01*
X10818754Y-14135523D01*
X10817974Y-14135904D01*
X10817197Y-14136293D01*
X10816423Y-14136689D01*
X10815653Y-14137092D01*
X10814887Y-14137502D01*
X10814124Y-14137920D01*
X10813365Y-14138344D01*
X10812609Y-14138776D01*
X10811857Y-14139215D01*
X10811110Y-14139660D01*
X10810366Y-14140113D01*
X10809626Y-14140572D01*
X10808890Y-14141039D01*
X10808159Y-14141512D01*
X10807431Y-14141992D01*
X10806708Y-14142479D01*
X10805990Y-14142972D01*
X10805275Y-14143472D01*
X10804565Y-14143979D01*
X10803860Y-14144493D01*
X10803159Y-14145013D01*
X10802463Y-14145539D01*
X10801772Y-14146072D01*
X10801085Y-14146611D01*
X10800403Y-14147157D01*
X10799727Y-14147709D01*
X10799055Y-14148267D01*
X10798388Y-14148832D01*
X10797726Y-14149402D01*
X10797070Y-14149979D01*
X10796418Y-14150562D01*
X10795772Y-14151150D01*
X10795132Y-14151745D01*
X10794497Y-14152346D01*
X10793867Y-14152952D01*
X10793243Y-14153564D01*
X10792624Y-14154182D01*
X10792011Y-14154806D01*
X10791404Y-14155435D01*
X10791102Y-14155751D01*
X10790802Y-14156070D01*
X10790504Y-14156389D01*
X10790207Y-14156710D01*
X10789911Y-14157032D01*
X10789617Y-14157355D01*
X10789324Y-14157680D01*
X10789033Y-14158006D01*
X10788743Y-14158334D01*
X10788455Y-14158662D01*
X10788169Y-14158993D01*
X10787884Y-14159324D01*
X10787600Y-14159657D01*
X10787318Y-14159991D01*
X10787037Y-14160326D01*
X10786758Y-14160662D01*
X10786481Y-14161000D01*
X10786205Y-14161339D01*
X10785931Y-14161679D01*
X10785658Y-14162021D01*
X10785387Y-14162364D01*
X10785117Y-14162708D01*
X10784849Y-14163053D01*
X10784583Y-14163399D01*
X10784318Y-14163747D01*
X10784055Y-14164095D01*
X10783794Y-14164445D01*
X10783534Y-14164796D01*
X10783275Y-14165149D01*
X10783019Y-14165502D01*
X10782764Y-14165857D01*
X10782510Y-14166212D01*
X10782259Y-14166569D01*
X10782009Y-14166927D01*
X10781760Y-14167286D01*
X10781513Y-14167647D01*
X10781268Y-14168008D01*
X10781025Y-14168370D01*
X10780783Y-14168734D01*
X10780543Y-14169098D01*
X10780305Y-14169464D01*
X10780068Y-14169830D01*
X10779833Y-14170198D01*
X10779600Y-14170567D01*
X10779369Y-14170937D01*
X10779139Y-14171307D01*
X10778911Y-14171679D01*
X10778685Y-14172052D01*
X10778460Y-14172426D01*
X10778237Y-14172801D01*
X10778016Y-14173176D01*
X10777797Y-14173553D01*
X10777579Y-14173931D01*
X10777363Y-14174310D01*
X10777149Y-14174689D01*
X10776937Y-14175070D01*
X10776726Y-14175451D01*
X10776518Y-14175834D01*
X10776311Y-14176217D01*
X10776105Y-14176601D01*
X10775902Y-14176987D01*
X10775700Y-14177373D01*
X10775501Y-14177759D01*
X10775303Y-14178147D01*
X10775106Y-14178536D01*
X10774912Y-14178926D01*
X10774719Y-14179316D01*
X10774529Y-14179707D01*
X10774340Y-14180099D01*
X10774153Y-14180492D01*
X10773967Y-14180886D01*
X10773784Y-14181280D01*
X10773602Y-14181676D01*
X10773422Y-14182072D01*
X10773244Y-14182469D01*
X10773068Y-14182866D01*
X10772894Y-14183265D01*
X10772722Y-14183664D01*
X10772551Y-14184064D01*
X10772382Y-14184465D01*
X10772216Y-14184866D01*
X10772051Y-14185268D01*
X10771887Y-14185671D01*
X10771726Y-14186075D01*
X10771567Y-14186479D01*
X10771409Y-14186884D01*
X10771254Y-14187290D01*
X10771100Y-14187696D01*
X10770948Y-14188103D01*
X10770798Y-14188511D01*
X10770650Y-14188920D01*
X10770504Y-14189329D01*
X10770360Y-14189738D01*
X10770217Y-14190149D01*
X10770077Y-14190560D01*
X10769938Y-14190972D01*
X10769801Y-14191384D01*
X10769667Y-14191797D01*
X10769534Y-14192210D01*
X10769403Y-14192624D01*
X10769274Y-14193039D01*
X10769147Y-14193454D01*
X10769021Y-14193870D01*
X10768898Y-14194286D01*
X10768777Y-14194703D01*
X10768657Y-14195121D01*
X10768540Y-14195539D01*
X10768424Y-14195958D01*
X10768310Y-14196377D01*
X10768199Y-14196796D01*
X10768089Y-14197216D01*
X10767981Y-14197637D01*
X10767875Y-14198058D01*
X10767771Y-14198480D01*
X10767669Y-14198902D01*
X10767569Y-14199325D01*
X10767471Y-14199748D01*
X10767374Y-14200172D01*
X10767280Y-14200596D01*
X10767188Y-14201020D01*
X10767097Y-14201445D01*
X10767009Y-14201871D01*
X10766923Y-14202297D01*
X10766838Y-14202723D01*
X10766755Y-14203150D01*
X10766675Y-14203577D01*
X10766596Y-14204005D01*
X10766520Y-14204433D01*
X10766445Y-14204861D01*
X10766372Y-14205290D01*
X10766301Y-14205719D01*
X10766232Y-14206149D01*
X10766166Y-14206579D01*
X10766101Y-14207010D01*
X10766038Y-14207440D01*
X10765977Y-14207871D01*
X10765918Y-14208303D01*
X10765861Y-14208735D01*
X10765806Y-14209167D01*
X10765753Y-14209599D01*
X10765702Y-14210032D01*
X10765652Y-14210466D01*
X10765605Y-14210899D01*
X10765560Y-14211333D01*
X10765517Y-14211767D01*
X10765476Y-14212202D01*
X10765437Y-14212636D01*
X10765399Y-14213071D01*
X10765364Y-14213507D01*
X10765331Y-14213942D01*
X10765300Y-14214378D01*
X10765270Y-14214815D01*
X10765243Y-14215251D01*
X10765218Y-14215688D01*
X10765194Y-14216125D01*
X10765173Y-14216562D01*
X10765154Y-14217000D01*
X10765136Y-14217438D01*
X10765121Y-14217875D01*
X10765108Y-14218314D01*
X10765096Y-14218752D01*
X10765087Y-14219191D01*
X10765080Y-14219630D01*
X10765074Y-14220069D01*
X10765071Y-14220509D01*
X10765069Y-14220948D01*
X10765069Y-14221026D01*
X10954864Y-14221026D02*
X10954860Y-14220148D01*
X10954848Y-14219271D01*
X10954828Y-14218394D01*
X10954800Y-14217519D01*
X10954764Y-14216645D01*
X10954720Y-14215771D01*
X10954669Y-14214899D01*
X10954609Y-14214027D01*
X10954541Y-14213157D01*
X10954466Y-14212288D01*
X10954382Y-14211421D01*
X10954291Y-14210554D01*
X10954192Y-14209689D01*
X10954084Y-14208825D01*
X10953969Y-14207962D01*
X10953846Y-14207101D01*
X10953716Y-14206242D01*
X10953577Y-14205384D01*
X10953430Y-14204527D01*
X10953276Y-14203672D01*
X10953114Y-14202819D01*
X10952944Y-14201968D01*
X10952766Y-14201118D01*
X10952581Y-14200270D01*
X10952388Y-14199424D01*
X10952187Y-14198580D01*
X10951978Y-14197737D01*
X10951761Y-14196897D01*
X10951537Y-14196059D01*
X10951305Y-14195223D01*
X10951065Y-14194389D01*
X10950818Y-14193557D01*
X10950563Y-14192728D01*
X10950301Y-14191901D01*
X10950030Y-14191077D01*
X10949753Y-14190254D01*
X10949467Y-14189435D01*
X10949174Y-14188618D01*
X10948874Y-14187803D01*
X10948565Y-14186992D01*
X10948250Y-14186183D01*
X10947927Y-14185376D01*
X10947596Y-14184573D01*
X10947258Y-14183773D01*
X10946913Y-14182975D01*
X10946560Y-14182181D01*
X10946200Y-14181390D01*
X10945833Y-14180602D01*
X10945458Y-14179817D01*
X10945076Y-14179036D01*
X10944687Y-14178258D01*
X10944290Y-14177483D01*
X10943886Y-14176712D01*
X10943476Y-14175944D01*
X10943058Y-14175180D01*
X10942633Y-14174420D01*
X10942200Y-14173664D01*
X10941761Y-14172911D01*
X10941315Y-14172162D01*
X10940862Y-14171417D01*
X10940402Y-14170677D01*
X10939935Y-14169940D01*
X10939462Y-14169208D01*
X10938981Y-14168479D01*
X10938494Y-14167755D01*
X10938000Y-14167036D01*
X10937500Y-14166321D01*
X10936992Y-14165610D01*
X10936479Y-14164904D01*
X10935958Y-14164202D01*
X10935432Y-14163505D01*
X10934898Y-14162813D01*
X10934359Y-14162126D01*
X10933813Y-14161444D01*
X10933261Y-14160766D01*
X10932702Y-14160094D01*
X10932138Y-14159427D01*
X10931567Y-14158765D01*
X10930990Y-14158108D01*
X10930407Y-14157456D01*
X10929819Y-14156810D01*
X10929224Y-14156169D01*
X10928623Y-14155533D01*
X10928017Y-14154903D01*
X10927712Y-14154590D01*
X10927405Y-14154279D01*
X10927097Y-14153968D01*
X10926787Y-14153660D01*
X10926476Y-14153353D01*
X10926164Y-14153047D01*
X10925850Y-14152742D01*
X10925535Y-14152439D01*
X10925218Y-14152138D01*
X10924900Y-14151838D01*
X10924581Y-14151539D01*
X10924261Y-14151242D01*
X10923939Y-14150946D01*
X10923615Y-14150652D01*
X10923291Y-14150360D01*
X10922965Y-14150068D01*
X10922637Y-14149779D01*
X10922309Y-14149491D01*
X10921979Y-14149204D01*
X10921648Y-14148919D01*
X10921315Y-14148635D01*
X10920981Y-14148353D01*
X10920646Y-14148073D01*
X10920310Y-14147794D01*
X10919973Y-14147517D01*
X10919634Y-14147241D01*
X10919294Y-14146967D01*
X10918953Y-14146694D01*
X10918610Y-14146423D01*
X10918267Y-14146154D01*
X10917922Y-14145886D01*
X10917576Y-14145620D01*
X10917228Y-14145355D01*
X10916880Y-14145092D01*
X10916530Y-14144831D01*
X10916180Y-14144571D01*
X10915828Y-14144313D01*
X10915475Y-14144056D01*
X10915120Y-14143801D01*
X10914765Y-14143548D01*
X10914408Y-14143296D01*
X10914051Y-14143047D01*
X10913692Y-14142798D01*
X10913332Y-14142552D01*
X10912972Y-14142307D01*
X10912609Y-14142064D01*
X10912246Y-14141822D01*
X10911882Y-14141582D01*
X10911517Y-14141344D01*
X10911151Y-14141108D01*
X10910784Y-14140873D01*
X10910415Y-14140640D01*
X10910046Y-14140409D01*
X10909676Y-14140179D01*
X10909304Y-14139952D01*
X10908932Y-14139726D01*
X10908559Y-14139501D01*
X10908184Y-14139279D01*
X10907809Y-14139058D01*
X10907433Y-14138839D01*
X10907055Y-14138621D01*
X10906677Y-14138406D01*
X10906298Y-14138192D01*
X10905918Y-14137980D01*
X10905537Y-14137770D01*
X10905155Y-14137561D01*
X10904772Y-14137354D01*
X10904388Y-14137149D01*
X10904004Y-14136946D01*
X10903618Y-14136745D01*
X10903232Y-14136545D01*
X10902844Y-14136348D01*
X10902456Y-14136152D01*
X10902067Y-14135957D01*
X10901677Y-14135765D01*
X10901286Y-14135575D01*
X10900895Y-14135386D01*
X10900503Y-14135199D01*
X10900109Y-14135014D01*
X10899715Y-14134831D01*
X10899321Y-14134649D01*
X10898925Y-14134470D01*
X10898528Y-14134292D01*
X10898131Y-14134116D01*
X10897733Y-14133942D01*
X10897335Y-14133770D01*
X10896935Y-14133600D01*
X10896535Y-14133431D01*
X10896134Y-14133265D01*
X10895732Y-14133100D01*
X10895330Y-14132937D01*
X10894926Y-14132776D01*
X10894523Y-14132617D01*
X10894118Y-14132460D01*
X10893713Y-14132304D01*
X10893307Y-14132151D01*
X10892900Y-14131999D01*
X10892493Y-14131850D01*
X10892085Y-14131702D01*
X10891676Y-14131556D01*
X10891267Y-14131412D01*
X10890857Y-14131269D01*
X10890446Y-14131129D01*
X10890035Y-14130991D01*
X10889623Y-14130854D01*
X10889210Y-14130720D01*
X10888797Y-14130587D01*
X10888383Y-14130456D01*
X10887969Y-14130328D01*
X10887554Y-14130201D01*
X10887139Y-14130076D01*
X10886723Y-14129952D01*
X10886306Y-14129831D01*
X10885889Y-14129712D01*
X10885471Y-14129595D01*
X10885052Y-14129479D01*
X10884634Y-14129366D01*
X10884214Y-14129254D01*
X10883794Y-14129144D01*
X10883374Y-14129037D01*
X10882953Y-14128931D01*
X10882531Y-14128827D01*
X10882109Y-14128725D01*
X10881686Y-14128625D01*
X10881263Y-14128527D01*
X10880840Y-14128431D01*
X10880416Y-14128337D01*
X10879991Y-14128245D01*
X10879566Y-14128155D01*
X10879141Y-14128066D01*
X10878715Y-14127980D01*
X10878288Y-14127895D01*
X10877862Y-14127813D01*
X10877434Y-14127732D01*
X10877007Y-14127654D01*
X10876579Y-14127577D01*
X10876150Y-14127503D01*
X10875721Y-14127430D01*
X10875292Y-14127359D01*
X10874862Y-14127291D01*
X10874432Y-14127224D01*
X10874001Y-14127159D01*
X10873570Y-14127096D01*
X10873139Y-14127035D01*
X10872707Y-14126976D01*
X10872275Y-14126919D01*
X10871842Y-14126864D01*
X10871409Y-14126811D01*
X10870976Y-14126760D01*
X10870542Y-14126711D01*
X10870108Y-14126664D01*
X10869674Y-14126619D01*
X10869239Y-14126576D01*
X10868804Y-14126535D01*
X10868369Y-14126496D01*
X10867933Y-14126458D01*
X10867497Y-14126423D01*
X10867061Y-14126390D01*
X10866625Y-14126359D01*
X10866188Y-14126330D01*
X10865750Y-14126302D01*
X10865313Y-14126277D01*
X10864875Y-14126254D01*
X10864437Y-14126232D01*
X10863999Y-14126213D01*
X10863560Y-14126196D01*
X10863121Y-14126180D01*
X10862682Y-14126167D01*
X10862242Y-14126156D01*
X10861803Y-14126146D01*
X10861363Y-14126139D01*
X10860922Y-14126134D01*
X10860482Y-14126130D01*
X10860041Y-14126129D01*
X10859967Y-14126129D01*
X10954864Y-14926229D02*
X10954864Y-14221026D01*
X11004958Y-14976323D02*
X10954864Y-14926229D01*
X11624864Y-14976323D02*
X11004958Y-14976323D01*
X11674959Y-13701032D02*
X11674959Y-14926229D01*
X11674959Y-14926229D02*
X11624864Y-14976323D01*
X14968749Y-3826429D02*
X14968749Y-13701737D01*
X14968749Y-13701737D02*
X11674959Y-13701032D01*
D11*
D12*
X5442500Y-4055000D02*
X5762500Y-4375000D01*
X5762500Y-4055000D02*
X5442500Y-4375000D01*
X5442500Y-13892500D02*
X5762500Y-14212500D01*
X5762500Y-13892500D02*
X5442500Y-14212500D01*
X14362500Y-6435000D02*
X14682500Y-6755000D01*
X14682500Y-6435000D02*
X14362500Y-6755000D01*
X14365000Y-13085000D02*
X14685000Y-13405000D01*
X14685000Y-13085000D02*
X14365000Y-13405000D01*
D11*
X5385743Y-15307807D02*
X5385743Y-15107807D01*
X5385743Y-15107807D02*
X5433362Y-15107807D01*
X5433362Y-15107807D02*
X5461934Y-15117331D01*
X5461934Y-15117331D02*
X5480982Y-15136379D01*
X5480982Y-15136379D02*
X5490505Y-15155426D01*
X5490505Y-15155426D02*
X5500029Y-15193521D01*
X5500029Y-15193521D02*
X5500029Y-15222093D01*
X5500029Y-15222093D02*
X5490505Y-15260188D01*
X5490505Y-15260188D02*
X5480982Y-15279236D01*
X5480982Y-15279236D02*
X5461934Y-15298283D01*
X5461934Y-15298283D02*
X5433362Y-15307807D01*
X5433362Y-15307807D02*
X5385743Y-15307807D01*
X5585743Y-15307807D02*
X5585743Y-15174474D01*
X5585743Y-15212569D02*
X5595267Y-15193521D01*
X5595267Y-15193521D02*
X5604791Y-15183998D01*
X5604791Y-15183998D02*
X5623839Y-15174474D01*
X5623839Y-15174474D02*
X5642886Y-15174474D01*
X5709553Y-15307807D02*
X5709553Y-15174474D01*
X5709553Y-15107807D02*
X5700029Y-15117331D01*
X5700029Y-15117331D02*
X5709553Y-15126855D01*
X5709553Y-15126855D02*
X5719077Y-15117331D01*
X5719077Y-15117331D02*
X5709553Y-15107807D01*
X5709553Y-15107807D02*
X5709553Y-15126855D01*
X5833362Y-15307807D02*
X5814315Y-15298283D01*
X5814315Y-15298283D02*
X5804791Y-15279236D01*
X5804791Y-15279236D02*
X5804791Y-15107807D01*
X5938124Y-15307807D02*
X5919077Y-15298283D01*
X5919077Y-15298283D02*
X5909553Y-15279236D01*
X5909553Y-15279236D02*
X5909553Y-15107807D01*
X6166696Y-15307807D02*
X6166696Y-15107807D01*
X6166696Y-15107807D02*
X6233362Y-15250664D01*
X6233362Y-15250664D02*
X6300029Y-15107807D01*
X6300029Y-15107807D02*
X6300029Y-15307807D01*
X6480981Y-15307807D02*
X6480981Y-15203045D01*
X6480981Y-15203045D02*
X6471458Y-15183998D01*
X6471458Y-15183998D02*
X6452410Y-15174474D01*
X6452410Y-15174474D02*
X6414315Y-15174474D01*
X6414315Y-15174474D02*
X6395267Y-15183998D01*
X6480981Y-15298283D02*
X6461934Y-15307807D01*
X6461934Y-15307807D02*
X6414315Y-15307807D01*
X6414315Y-15307807D02*
X6395267Y-15298283D01*
X6395267Y-15298283D02*
X6385743Y-15279236D01*
X6385743Y-15279236D02*
X6385743Y-15260188D01*
X6385743Y-15260188D02*
X6395267Y-15241141D01*
X6395267Y-15241141D02*
X6414315Y-15231617D01*
X6414315Y-15231617D02*
X6461934Y-15231617D01*
X6461934Y-15231617D02*
X6480981Y-15222093D01*
X6576220Y-15174474D02*
X6576220Y-15374474D01*
X6576220Y-15183998D02*
X6595267Y-15174474D01*
X6595267Y-15174474D02*
X6633362Y-15174474D01*
X6633362Y-15174474D02*
X6652410Y-15183998D01*
X6652410Y-15183998D02*
X6661934Y-15193521D01*
X6661934Y-15193521D02*
X6671458Y-15212569D01*
X6671458Y-15212569D02*
X6671458Y-15269712D01*
X6671458Y-15269712D02*
X6661934Y-15288760D01*
X6661934Y-15288760D02*
X6652410Y-15298283D01*
X6652410Y-15298283D02*
X6633362Y-15307807D01*
X6633362Y-15307807D02*
X6595267Y-15307807D01*
X6595267Y-15307807D02*
X6576220Y-15298283D01*
X6757172Y-15288760D02*
X6766696Y-15298283D01*
X6766696Y-15298283D02*
X6757172Y-15307807D01*
X6757172Y-15307807D02*
X6747648Y-15298283D01*
X6747648Y-15298283D02*
X6757172Y-15288760D01*
X6757172Y-15288760D02*
X6757172Y-15307807D01*
X6757172Y-15183998D02*
X6766696Y-15193521D01*
X6766696Y-15193521D02*
X6757172Y-15203045D01*
X6757172Y-15203045D02*
X6747648Y-15193521D01*
X6747648Y-15193521D02*
X6757172Y-15183998D01*
X6757172Y-15183998D02*
X6757172Y-15203045D01*
X4924967Y-15536323D02*
X5124967Y-15736323D01*
X5124967Y-15536323D02*
X4924967Y-15736323D01*
X5366696Y-15527807D02*
X5490505Y-15527807D01*
X5490505Y-15527807D02*
X5423839Y-15603998D01*
X5423839Y-15603998D02*
X5452410Y-15603998D01*
X5452410Y-15603998D02*
X5471458Y-15613521D01*
X5471458Y-15613521D02*
X5480982Y-15623045D01*
X5480982Y-15623045D02*
X5490505Y-15642093D01*
X5490505Y-15642093D02*
X5490505Y-15689712D01*
X5490505Y-15689712D02*
X5480982Y-15708760D01*
X5480982Y-15708760D02*
X5471458Y-15718283D01*
X5471458Y-15718283D02*
X5452410Y-15727807D01*
X5452410Y-15727807D02*
X5395267Y-15727807D01*
X5395267Y-15727807D02*
X5376220Y-15718283D01*
X5376220Y-15718283D02*
X5366696Y-15708760D01*
X5576220Y-15708760D02*
X5585743Y-15718283D01*
X5585743Y-15718283D02*
X5576220Y-15727807D01*
X5576220Y-15727807D02*
X5566696Y-15718283D01*
X5566696Y-15718283D02*
X5576220Y-15708760D01*
X5576220Y-15708760D02*
X5576220Y-15727807D01*
X5661934Y-15546855D02*
X5671458Y-15537331D01*
X5671458Y-15537331D02*
X5690505Y-15527807D01*
X5690505Y-15527807D02*
X5738124Y-15527807D01*
X5738124Y-15527807D02*
X5757172Y-15537331D01*
X5757172Y-15537331D02*
X5766696Y-15546855D01*
X5766696Y-15546855D02*
X5776220Y-15565902D01*
X5776220Y-15565902D02*
X5776220Y-15584950D01*
X5776220Y-15584950D02*
X5766696Y-15613521D01*
X5766696Y-15613521D02*
X5652410Y-15727807D01*
X5652410Y-15727807D02*
X5776220Y-15727807D01*
X5900029Y-15527807D02*
X5919077Y-15527807D01*
X5919077Y-15527807D02*
X5938124Y-15537331D01*
X5938124Y-15537331D02*
X5947648Y-15546855D01*
X5947648Y-15546855D02*
X5957172Y-15565902D01*
X5957172Y-15565902D02*
X5966696Y-15603998D01*
X5966696Y-15603998D02*
X5966696Y-15651617D01*
X5966696Y-15651617D02*
X5957172Y-15689712D01*
X5957172Y-15689712D02*
X5947648Y-15708760D01*
X5947648Y-15708760D02*
X5938124Y-15718283D01*
X5938124Y-15718283D02*
X5919077Y-15727807D01*
X5919077Y-15727807D02*
X5900029Y-15727807D01*
X5900029Y-15727807D02*
X5880981Y-15718283D01*
X5880981Y-15718283D02*
X5871458Y-15708760D01*
X5871458Y-15708760D02*
X5861934Y-15689712D01*
X5861934Y-15689712D02*
X5852410Y-15651617D01*
X5852410Y-15651617D02*
X5852410Y-15603998D01*
X5852410Y-15603998D02*
X5861934Y-15565902D01*
X5861934Y-15565902D02*
X5871458Y-15546855D01*
X5871458Y-15546855D02*
X5880981Y-15537331D01*
X5880981Y-15537331D02*
X5900029Y-15527807D01*
X6090505Y-15527807D02*
X6109553Y-15527807D01*
X6109553Y-15527807D02*
X6128601Y-15537331D01*
X6128601Y-15537331D02*
X6138124Y-15546855D01*
X6138124Y-15546855D02*
X6147648Y-15565902D01*
X6147648Y-15565902D02*
X6157172Y-15603998D01*
X6157172Y-15603998D02*
X6157172Y-15651617D01*
X6157172Y-15651617D02*
X6147648Y-15689712D01*
X6147648Y-15689712D02*
X6138124Y-15708760D01*
X6138124Y-15708760D02*
X6128601Y-15718283D01*
X6128601Y-15718283D02*
X6109553Y-15727807D01*
X6109553Y-15727807D02*
X6090505Y-15727807D01*
X6090505Y-15727807D02*
X6071458Y-15718283D01*
X6071458Y-15718283D02*
X6061934Y-15708760D01*
X6061934Y-15708760D02*
X6052410Y-15689712D01*
X6052410Y-15689712D02*
X6042886Y-15651617D01*
X6042886Y-15651617D02*
X6042886Y-15603998D01*
X6042886Y-15603998D02*
X6052410Y-15565902D01*
X6052410Y-15565902D02*
X6061934Y-15546855D01*
X6061934Y-15546855D02*
X6071458Y-15537331D01*
X6071458Y-15537331D02*
X6090505Y-15527807D01*
X6242886Y-15727807D02*
X6242886Y-15594474D01*
X6242886Y-15613521D02*
X6252410Y-15603998D01*
X6252410Y-15603998D02*
X6271458Y-15594474D01*
X6271458Y-15594474D02*
X6300029Y-15594474D01*
X6300029Y-15594474D02*
X6319077Y-15603998D01*
X6319077Y-15603998D02*
X6328601Y-15623045D01*
X6328601Y-15623045D02*
X6328601Y-15727807D01*
X6328601Y-15623045D02*
X6338124Y-15603998D01*
X6338124Y-15603998D02*
X6357172Y-15594474D01*
X6357172Y-15594474D02*
X6385743Y-15594474D01*
X6385743Y-15594474D02*
X6404791Y-15603998D01*
X6404791Y-15603998D02*
X6414315Y-15623045D01*
X6414315Y-15623045D02*
X6414315Y-15727807D01*
X6509553Y-15727807D02*
X6509553Y-15594474D01*
X6509553Y-15613521D02*
X6519077Y-15603998D01*
X6519077Y-15603998D02*
X6538124Y-15594474D01*
X6538124Y-15594474D02*
X6566696Y-15594474D01*
X6566696Y-15594474D02*
X6585743Y-15603998D01*
X6585743Y-15603998D02*
X6595267Y-15623045D01*
X6595267Y-15623045D02*
X6595267Y-15727807D01*
X6595267Y-15623045D02*
X6604791Y-15603998D01*
X6604791Y-15603998D02*
X6623839Y-15594474D01*
X6623839Y-15594474D02*
X6652410Y-15594474D01*
X6652410Y-15594474D02*
X6671458Y-15603998D01*
X6671458Y-15603998D02*
X6680982Y-15623045D01*
X6680982Y-15623045D02*
X6680982Y-15727807D01*
X7071458Y-15518283D02*
X6900029Y-15775426D01*
X7328601Y-15527807D02*
X7347648Y-15527807D01*
X7347648Y-15527807D02*
X7366696Y-15537331D01*
X7366696Y-15537331D02*
X7376220Y-15546855D01*
X7376220Y-15546855D02*
X7385744Y-15565902D01*
X7385744Y-15565902D02*
X7395267Y-15603998D01*
X7395267Y-15603998D02*
X7395267Y-15651617D01*
X7395267Y-15651617D02*
X7385744Y-15689712D01*
X7385744Y-15689712D02*
X7376220Y-15708760D01*
X7376220Y-15708760D02*
X7366696Y-15718283D01*
X7366696Y-15718283D02*
X7347648Y-15727807D01*
X7347648Y-15727807D02*
X7328601Y-15727807D01*
X7328601Y-15727807D02*
X7309553Y-15718283D01*
X7309553Y-15718283D02*
X7300029Y-15708760D01*
X7300029Y-15708760D02*
X7290505Y-15689712D01*
X7290505Y-15689712D02*
X7280982Y-15651617D01*
X7280982Y-15651617D02*
X7280982Y-15603998D01*
X7280982Y-15603998D02*
X7290505Y-15565902D01*
X7290505Y-15565902D02*
X7300029Y-15546855D01*
X7300029Y-15546855D02*
X7309553Y-15537331D01*
X7309553Y-15537331D02*
X7328601Y-15527807D01*
X7480982Y-15708760D02*
X7490505Y-15718283D01*
X7490505Y-15718283D02*
X7480982Y-15727807D01*
X7480982Y-15727807D02*
X7471458Y-15718283D01*
X7471458Y-15718283D02*
X7480982Y-15708760D01*
X7480982Y-15708760D02*
X7480982Y-15727807D01*
X7680982Y-15727807D02*
X7566696Y-15727807D01*
X7623839Y-15727807D02*
X7623839Y-15527807D01*
X7623839Y-15527807D02*
X7604791Y-15556379D01*
X7604791Y-15556379D02*
X7585744Y-15575426D01*
X7585744Y-15575426D02*
X7566696Y-15584950D01*
X7757172Y-15546855D02*
X7766696Y-15537331D01*
X7766696Y-15537331D02*
X7785744Y-15527807D01*
X7785744Y-15527807D02*
X7833363Y-15527807D01*
X7833363Y-15527807D02*
X7852410Y-15537331D01*
X7852410Y-15537331D02*
X7861934Y-15546855D01*
X7861934Y-15546855D02*
X7871458Y-15565902D01*
X7871458Y-15565902D02*
X7871458Y-15584950D01*
X7871458Y-15584950D02*
X7861934Y-15613521D01*
X7861934Y-15613521D02*
X7747648Y-15727807D01*
X7747648Y-15727807D02*
X7871458Y-15727807D01*
X8042886Y-15527807D02*
X8004791Y-15527807D01*
X8004791Y-15527807D02*
X7985744Y-15537331D01*
X7985744Y-15537331D02*
X7976220Y-15546855D01*
X7976220Y-15546855D02*
X7957172Y-15575426D01*
X7957172Y-15575426D02*
X7947648Y-15613521D01*
X7947648Y-15613521D02*
X7947648Y-15689712D01*
X7947648Y-15689712D02*
X7957172Y-15708760D01*
X7957172Y-15708760D02*
X7966696Y-15718283D01*
X7966696Y-15718283D02*
X7985744Y-15727807D01*
X7985744Y-15727807D02*
X8023839Y-15727807D01*
X8023839Y-15727807D02*
X8042886Y-15718283D01*
X8042886Y-15718283D02*
X8052410Y-15708760D01*
X8052410Y-15708760D02*
X8061934Y-15689712D01*
X8061934Y-15689712D02*
X8061934Y-15642093D01*
X8061934Y-15642093D02*
X8052410Y-15623045D01*
X8052410Y-15623045D02*
X8042886Y-15613521D01*
X8042886Y-15613521D02*
X8023839Y-15603998D01*
X8023839Y-15603998D02*
X7985744Y-15603998D01*
X7985744Y-15603998D02*
X7966696Y-15613521D01*
X7966696Y-15613521D02*
X7957172Y-15623045D01*
X7957172Y-15623045D02*
X7947648Y-15642093D01*
X8185744Y-15527807D02*
X8204791Y-15527807D01*
X8204791Y-15527807D02*
X8223839Y-15537331D01*
X8223839Y-15537331D02*
X8233363Y-15546855D01*
X8233363Y-15546855D02*
X8242886Y-15565902D01*
X8242886Y-15565902D02*
X8252410Y-15603998D01*
X8252410Y-15603998D02*
X8252410Y-15651617D01*
X8252410Y-15651617D02*
X8242886Y-15689712D01*
X8242886Y-15689712D02*
X8233363Y-15708760D01*
X8233363Y-15708760D02*
X8223839Y-15718283D01*
X8223839Y-15718283D02*
X8204791Y-15727807D01*
X8204791Y-15727807D02*
X8185744Y-15727807D01*
X8185744Y-15727807D02*
X8166696Y-15718283D01*
X8166696Y-15718283D02*
X8157172Y-15708760D01*
X8157172Y-15708760D02*
X8147648Y-15689712D01*
X8147648Y-15689712D02*
X8138125Y-15651617D01*
X8138125Y-15651617D02*
X8138125Y-15603998D01*
X8138125Y-15603998D02*
X8147648Y-15565902D01*
X8147648Y-15565902D02*
X8157172Y-15546855D01*
X8157172Y-15546855D02*
X8166696Y-15537331D01*
X8166696Y-15537331D02*
X8185744Y-15527807D01*
X8328601Y-15527807D02*
X8328601Y-15565902D01*
X8404791Y-15527807D02*
X8404791Y-15565902D01*
X8700030Y-15803998D02*
X8690506Y-15794474D01*
X8690506Y-15794474D02*
X8671458Y-15765902D01*
X8671458Y-15765902D02*
X8661934Y-15746855D01*
X8661934Y-15746855D02*
X8652410Y-15718283D01*
X8652410Y-15718283D02*
X8642887Y-15670664D01*
X8642887Y-15670664D02*
X8642887Y-15632569D01*
X8642887Y-15632569D02*
X8652410Y-15584950D01*
X8652410Y-15584950D02*
X8661934Y-15556379D01*
X8661934Y-15556379D02*
X8671458Y-15537331D01*
X8671458Y-15537331D02*
X8690506Y-15508760D01*
X8690506Y-15508760D02*
X8700030Y-15499236D01*
X8861934Y-15594474D02*
X8861934Y-15727807D01*
X8814315Y-15518283D02*
X8766696Y-15661141D01*
X8766696Y-15661141D02*
X8890506Y-15661141D01*
X9119077Y-15727807D02*
X9119077Y-15527807D01*
X9204791Y-15727807D02*
X9204791Y-15623045D01*
X9204791Y-15623045D02*
X9195268Y-15603998D01*
X9195268Y-15603998D02*
X9176220Y-15594474D01*
X9176220Y-15594474D02*
X9147649Y-15594474D01*
X9147649Y-15594474D02*
X9128601Y-15603998D01*
X9128601Y-15603998D02*
X9119077Y-15613521D01*
X9328601Y-15727807D02*
X9309553Y-15718283D01*
X9309553Y-15718283D02*
X9300030Y-15708760D01*
X9300030Y-15708760D02*
X9290506Y-15689712D01*
X9290506Y-15689712D02*
X9290506Y-15632569D01*
X9290506Y-15632569D02*
X9300030Y-15613521D01*
X9300030Y-15613521D02*
X9309553Y-15603998D01*
X9309553Y-15603998D02*
X9328601Y-15594474D01*
X9328601Y-15594474D02*
X9357172Y-15594474D01*
X9357172Y-15594474D02*
X9376220Y-15603998D01*
X9376220Y-15603998D02*
X9385744Y-15613521D01*
X9385744Y-15613521D02*
X9395268Y-15632569D01*
X9395268Y-15632569D02*
X9395268Y-15689712D01*
X9395268Y-15689712D02*
X9385744Y-15708760D01*
X9385744Y-15708760D02*
X9376220Y-15718283D01*
X9376220Y-15718283D02*
X9357172Y-15727807D01*
X9357172Y-15727807D02*
X9328601Y-15727807D01*
X9509553Y-15727807D02*
X9490506Y-15718283D01*
X9490506Y-15718283D02*
X9480982Y-15699236D01*
X9480982Y-15699236D02*
X9480982Y-15527807D01*
X9661934Y-15718283D02*
X9642887Y-15727807D01*
X9642887Y-15727807D02*
X9604791Y-15727807D01*
X9604791Y-15727807D02*
X9585744Y-15718283D01*
X9585744Y-15718283D02*
X9576220Y-15699236D01*
X9576220Y-15699236D02*
X9576220Y-15623045D01*
X9576220Y-15623045D02*
X9585744Y-15603998D01*
X9585744Y-15603998D02*
X9604791Y-15594474D01*
X9604791Y-15594474D02*
X9642887Y-15594474D01*
X9642887Y-15594474D02*
X9661934Y-15603998D01*
X9661934Y-15603998D02*
X9671458Y-15623045D01*
X9671458Y-15623045D02*
X9671458Y-15642093D01*
X9671458Y-15642093D02*
X9576220Y-15661141D01*
X9747649Y-15718283D02*
X9766696Y-15727807D01*
X9766696Y-15727807D02*
X9804791Y-15727807D01*
X9804791Y-15727807D02*
X9823839Y-15718283D01*
X9823839Y-15718283D02*
X9833363Y-15699236D01*
X9833363Y-15699236D02*
X9833363Y-15689712D01*
X9833363Y-15689712D02*
X9823839Y-15670664D01*
X9823839Y-15670664D02*
X9804791Y-15661141D01*
X9804791Y-15661141D02*
X9776220Y-15661141D01*
X9776220Y-15661141D02*
X9757172Y-15651617D01*
X9757172Y-15651617D02*
X9747649Y-15632569D01*
X9747649Y-15632569D02*
X9747649Y-15623045D01*
X9747649Y-15623045D02*
X9757172Y-15603998D01*
X9757172Y-15603998D02*
X9776220Y-15594474D01*
X9776220Y-15594474D02*
X9804791Y-15594474D01*
X9804791Y-15594474D02*
X9823839Y-15603998D01*
X9900030Y-15803998D02*
X9909553Y-15794474D01*
X9909553Y-15794474D02*
X9928601Y-15765902D01*
X9928601Y-15765902D02*
X9938125Y-15746855D01*
X9938125Y-15746855D02*
X9947649Y-15718283D01*
X9947649Y-15718283D02*
X9957172Y-15670664D01*
X9957172Y-15670664D02*
X9957172Y-15632569D01*
X9957172Y-15632569D02*
X9947649Y-15584950D01*
X9947649Y-15584950D02*
X9938125Y-15556379D01*
X9938125Y-15556379D02*
X9928601Y-15537331D01*
X9928601Y-15537331D02*
X9909553Y-15508760D01*
X9909553Y-15508760D02*
X9900030Y-15499236D01*
X10261934Y-15803998D02*
X10252411Y-15794474D01*
X10252411Y-15794474D02*
X10233363Y-15765902D01*
X10233363Y-15765902D02*
X10223839Y-15746855D01*
X10223839Y-15746855D02*
X10214315Y-15718283D01*
X10214315Y-15718283D02*
X10204792Y-15670664D01*
X10204792Y-15670664D02*
X10204792Y-15632569D01*
X10204792Y-15632569D02*
X10214315Y-15584950D01*
X10214315Y-15584950D02*
X10223839Y-15556379D01*
X10223839Y-15556379D02*
X10233363Y-15537331D01*
X10233363Y-15537331D02*
X10252411Y-15508760D01*
X10252411Y-15508760D02*
X10261934Y-15499236D01*
X10338125Y-15594474D02*
X10338125Y-15727807D01*
X10338125Y-15613521D02*
X10347649Y-15603998D01*
X10347649Y-15603998D02*
X10366696Y-15594474D01*
X10366696Y-15594474D02*
X10395268Y-15594474D01*
X10395268Y-15594474D02*
X10414315Y-15603998D01*
X10414315Y-15603998D02*
X10423839Y-15623045D01*
X10423839Y-15623045D02*
X10423839Y-15727807D01*
X10547649Y-15727807D02*
X10528601Y-15718283D01*
X10528601Y-15718283D02*
X10519077Y-15708760D01*
X10519077Y-15708760D02*
X10509553Y-15689712D01*
X10509553Y-15689712D02*
X10509553Y-15632569D01*
X10509553Y-15632569D02*
X10519077Y-15613521D01*
X10519077Y-15613521D02*
X10528601Y-15603998D01*
X10528601Y-15603998D02*
X10547649Y-15594474D01*
X10547649Y-15594474D02*
X10576220Y-15594474D01*
X10576220Y-15594474D02*
X10595268Y-15603998D01*
X10595268Y-15603998D02*
X10604792Y-15613521D01*
X10604792Y-15613521D02*
X10614315Y-15632569D01*
X10614315Y-15632569D02*
X10614315Y-15689712D01*
X10614315Y-15689712D02*
X10604792Y-15708760D01*
X10604792Y-15708760D02*
X10595268Y-15718283D01*
X10595268Y-15718283D02*
X10576220Y-15727807D01*
X10576220Y-15727807D02*
X10547649Y-15727807D01*
X10671458Y-15594474D02*
X10747649Y-15594474D01*
X10700030Y-15527807D02*
X10700030Y-15699236D01*
X10700030Y-15699236D02*
X10709553Y-15718283D01*
X10709553Y-15718283D02*
X10728601Y-15727807D01*
X10728601Y-15727807D02*
X10747649Y-15727807D01*
X10966696Y-15594474D02*
X10966696Y-15794474D01*
X10966696Y-15603998D02*
X10985744Y-15594474D01*
X10985744Y-15594474D02*
X11023839Y-15594474D01*
X11023839Y-15594474D02*
X11042887Y-15603998D01*
X11042887Y-15603998D02*
X11052411Y-15613521D01*
X11052411Y-15613521D02*
X11061934Y-15632569D01*
X11061934Y-15632569D02*
X11061934Y-15689712D01*
X11061934Y-15689712D02*
X11052411Y-15708760D01*
X11052411Y-15708760D02*
X11042887Y-15718283D01*
X11042887Y-15718283D02*
X11023839Y-15727807D01*
X11023839Y-15727807D02*
X10985744Y-15727807D01*
X10985744Y-15727807D02*
X10966696Y-15718283D01*
X11176220Y-15727807D02*
X11157173Y-15718283D01*
X11157173Y-15718283D02*
X11147649Y-15699236D01*
X11147649Y-15699236D02*
X11147649Y-15527807D01*
X11338125Y-15727807D02*
X11338125Y-15623045D01*
X11338125Y-15623045D02*
X11328601Y-15603998D01*
X11328601Y-15603998D02*
X11309553Y-15594474D01*
X11309553Y-15594474D02*
X11271458Y-15594474D01*
X11271458Y-15594474D02*
X11252411Y-15603998D01*
X11338125Y-15718283D02*
X11319077Y-15727807D01*
X11319077Y-15727807D02*
X11271458Y-15727807D01*
X11271458Y-15727807D02*
X11252411Y-15718283D01*
X11252411Y-15718283D02*
X11242887Y-15699236D01*
X11242887Y-15699236D02*
X11242887Y-15680188D01*
X11242887Y-15680188D02*
X11252411Y-15661141D01*
X11252411Y-15661141D02*
X11271458Y-15651617D01*
X11271458Y-15651617D02*
X11319077Y-15651617D01*
X11319077Y-15651617D02*
X11338125Y-15642093D01*
X11404792Y-15594474D02*
X11480982Y-15594474D01*
X11433363Y-15527807D02*
X11433363Y-15699236D01*
X11433363Y-15699236D02*
X11442887Y-15718283D01*
X11442887Y-15718283D02*
X11461934Y-15727807D01*
X11461934Y-15727807D02*
X11480982Y-15727807D01*
X11623839Y-15718283D02*
X11604792Y-15727807D01*
X11604792Y-15727807D02*
X11566696Y-15727807D01*
X11566696Y-15727807D02*
X11547649Y-15718283D01*
X11547649Y-15718283D02*
X11538125Y-15699236D01*
X11538125Y-15699236D02*
X11538125Y-15623045D01*
X11538125Y-15623045D02*
X11547649Y-15603998D01*
X11547649Y-15603998D02*
X11566696Y-15594474D01*
X11566696Y-15594474D02*
X11604792Y-15594474D01*
X11604792Y-15594474D02*
X11623839Y-15603998D01*
X11623839Y-15603998D02*
X11633363Y-15623045D01*
X11633363Y-15623045D02*
X11633363Y-15642093D01*
X11633363Y-15642093D02*
X11538125Y-15661141D01*
X11804792Y-15727807D02*
X11804792Y-15527807D01*
X11804792Y-15718283D02*
X11785744Y-15727807D01*
X11785744Y-15727807D02*
X11747649Y-15727807D01*
X11747649Y-15727807D02*
X11728601Y-15718283D01*
X11728601Y-15718283D02*
X11719077Y-15708760D01*
X11719077Y-15708760D02*
X11709553Y-15689712D01*
X11709553Y-15689712D02*
X11709553Y-15632569D01*
X11709553Y-15632569D02*
X11719077Y-15613521D01*
X11719077Y-15613521D02*
X11728601Y-15603998D01*
X11728601Y-15603998D02*
X11747649Y-15594474D01*
X11747649Y-15594474D02*
X11785744Y-15594474D01*
X11785744Y-15594474D02*
X11804792Y-15603998D01*
X11880982Y-15803998D02*
X11890506Y-15794474D01*
X11890506Y-15794474D02*
X11909553Y-15765902D01*
X11909553Y-15765902D02*
X11919077Y-15746855D01*
X11919077Y-15746855D02*
X11928601Y-15718283D01*
X11928601Y-15718283D02*
X11938125Y-15670664D01*
X11938125Y-15670664D02*
X11938125Y-15632569D01*
X11938125Y-15632569D02*
X11928601Y-15584950D01*
X11928601Y-15584950D02*
X11919077Y-15556379D01*
X11919077Y-15556379D02*
X11909553Y-15537331D01*
X11909553Y-15537331D02*
X11890506Y-15508760D01*
X11890506Y-15508760D02*
X11880982Y-15499236D01*
M02*
