M48
; DRILL file KiCad 10.0.3 date 2026-08-24T07:26:14
; FORMAT={-:-/ absolute / metric / decimal}
; #@! TF.CreationDate,2026-08-24T07:26:14-05:00
; #@! TF.GenerationSoftware,Kicad,Pcbnew,10.0.3
; #@! TF.FileFunction,Plated,1,4,PTH
FMAT,2
METRIC
; #@! TA.AperFunction,Plated,PTH,ViaDrill
T1C0.200
; #@! TA.AperFunction,Plated,PTH,ViaDrill
T2C0.300
; #@! TA.AperFunction,Plated,PTH,ViaDrill
T3C0.400
; #@! TA.AperFunction,Plated,PTH,ComponentDrill
T4C0.500
; #@! TA.AperFunction,Plated,PTH,ComponentDrill
T5C0.700
; #@! TA.AperFunction,Plated,PTH,ComponentDrill
T6C1.500
; #@! TA.AperFunction,Plated,PTH,ComponentDrill
T7C1.524
; #@! TA.AperFunction,Plated,PTH,ComponentDrill
T8C2.300
; #@! TA.AperFunction,Plated,PTH,ComponentDrill
T9C2.540
; #@! TA.AperFunction,Plated,PTH,ComponentDrill
T10C4.064
%
G90
G05
T1
X64.8Y-83.076
X64.8Y-106.275
X64.8Y-129.75
X64.875Y-59.768
X64.95Y-85.6
X64.95Y-87.6
X64.95Y-89.5
X64.95Y-109.1
X64.95Y-111.1
X64.95Y-113.0
X65.0Y-62.6
X65.0Y-64.6
X65.0Y-66.5
X65.05Y-132.1
X65.05Y-134.1
X65.05Y-136.0
X67.2Y-85.6
X67.2Y-87.6
X67.2Y-89.5
X67.2Y-109.1
X67.2Y-111.1
X67.2Y-113.0
X67.25Y-62.6
X67.25Y-64.6
X67.25Y-66.5
X67.3Y-132.1
X67.3Y-134.1
X67.3Y-136.0
X67.525Y-106.3
X67.525Y-129.75
X67.575Y-83.076
X67.675Y-59.768
X70.0Y-39.6
X70.9Y-134.1
X72.0Y-39.6
X72.9Y-134.05
X74.0Y-39.6
X74.9Y-134.05
X75.4Y-114.7
X75.45Y-116.7
X75.45Y-118.7
X75.45Y-120.6
X75.5Y-122.8
X75.9Y-39.6
X76.0Y-93.1
X76.05Y-95.1
X76.05Y-97.1
X76.05Y-99.0
X76.1Y-101.2
X76.4Y-69.8
X76.45Y-71.8
X76.45Y-73.8
X76.45Y-75.7
X76.5Y-77.9
X76.8Y-134.05
X78.1Y-39.6
X79.0Y-134.0
X79.2Y-55.7
X80.1Y-39.6
X82.1Y-39.6
X84.1Y-39.6
X85.475Y-102.275
X85.55Y-55.8
X85.65Y-103.9
X85.65Y-105.095
X85.65Y-106.299
X85.65Y-107.498
X85.65Y-108.692
X86.0Y-39.6
X86.125Y-101.475
X86.2Y-110.9
X86.5Y-134.0
X86.5Y-134.8
X87.8Y-55.8
X87.8Y-57.7
X87.8Y-132.1
X87.8Y-132.9
X87.825Y-101.725
X87.899Y-105.375
X87.9Y-104.45
X87.9Y-106.337
X87.9Y-107.275
X87.9Y-108.2
X88.1Y-39.6
X88.15Y-103.975
X88.225Y-108.625
X88.875Y-104.925
X88.925Y-107.7
X89.021Y-110.875
X89.026Y-101.725
X89.125Y-103.975
X89.2Y-108.625
X90.1Y-39.6
X90.125Y-103.975
X90.175Y-108.625
X90.221Y-101.725
X90.225Y-110.875
X91.1Y-103.975
X91.15Y-108.625
X91.25Y-70.25
X91.25Y-72.25
X91.425Y-101.725
X91.425Y-110.875
X91.975Y-103.975
X91.975Y-104.925
X91.975Y-107.75
X91.975Y-108.65
X92.1Y-39.6
X92.625Y-101.725
X92.629Y-110.875
X92.774Y-105.85
X92.775Y-104.925
X92.775Y-106.812
X92.775Y-107.75
X92.775Y-108.625
X92.825Y-103.975
X93.25Y-79.25
X93.25Y-81.0
X93.5Y-70.25
X93.5Y-72.25
X93.55Y-105.025
X93.55Y-105.569
X94.1Y-39.6
X94.2Y-102.775
X94.5Y-55.7
X94.55Y-57.7
X94.804Y-99.092
X95.25Y-79.25
X95.25Y-81.0
X95.35Y-87.4
X95.35Y-89.4
X95.4Y-91.4
X95.4Y-93.4
X95.4Y-95.3
X95.984Y-105.275
X96.0Y-39.6
X96.0Y-97.3
X96.475Y-105.275
X96.7Y-97.3
X96.75Y-55.7
X96.8Y-57.7
X96.983Y-105.275
X97.6Y-87.4
X97.6Y-89.4
X97.6Y-93.7
X97.65Y-95.3
X97.75Y-102.425
X97.754Y-103.376
X97.8Y-90.8
X98.0Y-39.6
X98.0Y-135.5
X98.1Y-97.3
X98.195Y-101.898
X98.272Y-113.09
X98.687Y-101.895
X98.8Y-97.3
X99.0Y-140.0
X99.0Y-140.8
X99.0Y-141.6
X99.0Y-142.4
X99.098Y-118.695
X99.194Y-117.126
X99.75Y-89.7
X99.8Y-91.7
X99.8Y-93.7
X100.0Y-39.6
X100.044Y-97.652
X100.1Y-140.0
X100.409Y-101.152
X100.409Y-102.327
X100.5Y-140.8
X100.5Y-141.6
X100.5Y-142.4
X101.5Y-141.6
X101.5Y-142.4
X101.8Y-140.4
X102.0Y-39.6
X102.0Y-91.8
X102.0Y-93.6
X102.0Y-95.7
X102.35Y-140.95
X102.7Y-137.4
X103.0Y-141.6
X103.431Y-137.269
X103.6Y-55.7
X103.65Y-57.7
X103.725Y-97.313
X103.769Y-136.931
X103.9Y-39.6
X103.9Y-136.2
X104.1Y-93.6
X104.1Y-95.7
X104.583Y-97.329
X104.6Y-135.6
X104.641Y-111.427
X104.687Y-104.273
X105.1Y-120.9
X105.257Y-113.265
X105.331Y-135.569
X105.5Y-65.8
X105.55Y-67.8
X105.55Y-69.8
X105.55Y-71.7
X105.6Y-73.9
X105.6Y-75.9
X105.65Y-77.9
X105.65Y-79.9
X105.65Y-81.8
X105.669Y-135.231
X105.8Y-125.4
X105.8Y-127.4
X105.8Y-134.5
X105.85Y-55.7
X105.9Y-57.7
X106.1Y-39.6
X106.578Y-110.604
X106.8Y-120.9
X106.9Y-114.0
X106.9Y-115.0
X107.75Y-65.8
X107.8Y-67.8
X107.8Y-69.8
X107.8Y-71.7
X107.8Y-125.4
X107.8Y-127.4
X107.8Y-129.3
X107.836Y-110.66
X107.85Y-73.9
X107.85Y-75.9
X107.9Y-77.9
X107.9Y-79.9
X107.9Y-81.8
X108.1Y-39.6
X108.644Y-108.071
X109.4Y-120.9
X109.8Y-125.4
X109.8Y-127.4
X109.8Y-129.3
X110.0Y-114.0
X110.0Y-115.0
X110.1Y-39.6
X110.3Y-141.5
X110.3Y-142.3
X110.9Y-134.9
X110.925Y-131.368
X111.1Y-117.3
X111.793Y-108.079
X112.05Y-74.3
X112.1Y-39.6
X112.1Y-76.3
X112.1Y-78.3
X112.1Y-80.2
X112.15Y-82.4
X112.15Y-84.4
X112.15Y-92.4
X112.15Y-94.4
X112.2Y-86.4
X112.2Y-88.4
X112.2Y-90.3
X112.2Y-96.4
X112.2Y-98.4
X112.2Y-100.3
X112.4Y-134.9
X112.74Y-130.894
X113.6Y-140.7
X113.6Y-141.5
X113.6Y-142.3
X113.7Y-134.9
X114.0Y-39.6
X114.6Y-129.5
X115.2Y-134.9
X115.7Y-136.3
X115.7Y-140.7
X115.7Y-141.5
X115.7Y-142.3
X116.1Y-39.6
X116.1Y-129.5
X116.25Y-119.0
X116.25Y-119.9
X116.35Y-87.4
X116.6Y-134.9
X117.1Y-76.15
X117.1Y-77.35
X117.1Y-78.65
X117.1Y-79.9
X117.2Y-119.0
X117.2Y-119.9
X117.65Y-87.4
X117.7Y-129.5
X118.0Y-134.9
X118.1Y-39.6
X118.9Y-87.4
X120.0Y-39.6
X120.0Y-41.65
X121.25Y-85.65
X121.25Y-86.75
X121.9Y-127.3
X121.9Y-129.2
X122.0Y-39.6
X122.0Y-41.65
X122.35Y-123.45
X122.55Y-85.65
X122.55Y-86.75
X122.65Y-99.6
X122.65Y-100.35
X123.75Y-103.7
X123.954Y-102.668
X124.0Y-39.6
X124.0Y-41.65
X124.15Y-127.3
X124.15Y-129.2
X124.303Y-93.143
X124.75Y-85.8
X124.9Y-65.5
X125.35Y-77.4
X125.35Y-78.65
X125.35Y-79.9
X125.65Y-120.0
X125.8Y-93.2
X125.9Y-39.6
X125.9Y-41.65
X125.95Y-115.85
X125.95Y-116.6
X125.95Y-117.3
X126.3Y-65.55
X126.3Y-111.85
X126.3Y-112.65
X126.3Y-113.45
X126.3Y-114.25
X126.3Y-115.1
X126.65Y-92.5
X126.7Y-115.85
X126.7Y-117.3
X126.7Y-122.0
X126.75Y-116.6
X126.85Y-85.85
X126.95Y-119.7
X126.95Y-120.35
X127.3Y-78.15
X127.3Y-127.3
X127.3Y-129.2
X127.6Y-65.45
X127.8Y-99.9
X127.8Y-103.05
X127.9Y-39.6
X127.9Y-41.3
X128.4Y-103.9
X128.5Y-101.45
X128.95Y-69.7
X129.05Y-85.85
X129.35Y-95.35
X129.35Y-95.95
X129.55Y-127.3
X129.55Y-129.2
X129.9Y-39.6
X129.9Y-41.65
X130.2Y-103.9
X130.2Y-120.4
X130.55Y-112.85
X130.6Y-93.75
X131.25Y-120.45
X131.25Y-121.35
X131.45Y-115.35
X131.45Y-116.35
X131.45Y-117.3
X131.7Y-87.85
X131.7Y-88.85
X131.9Y-39.6
X131.9Y-41.65
X132.1Y-98.5
X132.1Y-100.3
X132.1Y-102.1
X132.1Y-103.9
X132.8Y-70.25
X133.0Y-79.05
X133.5Y-41.65
X133.55Y-107.4
X133.55Y-109.4
X133.55Y-111.4
X133.55Y-113.3
X133.55Y-115.5
X133.55Y-117.5
X133.55Y-119.5
X133.55Y-121.5
X133.55Y-123.4
X133.8Y-39.6
X134.55Y-77.0
X134.55Y-77.7
X135.8Y-107.4
X135.8Y-109.4
X135.8Y-111.4
X135.8Y-113.3
X135.8Y-115.5
X135.8Y-117.5
X135.8Y-119.5
X135.8Y-121.5
X135.8Y-123.4
X135.8Y-125.7
X135.8Y-127.7
X135.8Y-129.6
X136.25Y-77.0
X136.25Y-77.7
X138.6Y-84.9
X138.6Y-86.9
X138.6Y-88.9
X138.6Y-90.8
X138.6Y-93.0
X138.6Y-95.0
X138.95Y-107.4
X138.95Y-109.4
X138.95Y-111.4
X138.95Y-113.3
X138.95Y-115.5
X138.95Y-117.5
X138.95Y-119.5
X138.95Y-121.5
X138.95Y-123.4
X138.95Y-125.7
X138.95Y-127.7
X138.95Y-129.6
X140.0Y-59.4
X140.0Y-61.8
X140.05Y-63.8
X140.05Y-65.8
X140.05Y-67.7
X140.1Y-69.9
X140.85Y-84.9
X140.85Y-86.9
X140.85Y-88.9
X140.85Y-90.8
X140.85Y-93.0
X140.85Y-95.0
X141.2Y-107.4
X141.2Y-109.4
X141.2Y-111.4
X141.2Y-113.3
X141.2Y-115.5
X141.2Y-117.5
X141.2Y-119.5
X141.2Y-121.5
X141.2Y-123.4
X141.2Y-125.7
X141.2Y-127.7
X141.2Y-129.6
X142.25Y-59.4
X142.25Y-61.8
X142.3Y-63.8
X142.3Y-67.7
X142.35Y-69.9
X144.7Y-50.7
X144.7Y-54.9
X144.7Y-59.4
X144.75Y-52.7
X144.75Y-56.9
X144.75Y-61.4
X144.75Y-107.3
X144.75Y-109.3
X144.75Y-111.3
X144.75Y-113.2
X144.75Y-115.4
X144.75Y-117.4
X144.75Y-119.4
X144.75Y-121.4
X144.75Y-123.3
X144.75Y-125.6
X144.75Y-127.6
X144.8Y-69.9
X146.95Y-50.7
X146.95Y-54.9
X146.95Y-59.4
X147.0Y-52.7
X147.0Y-56.9
X147.0Y-61.4
X147.0Y-107.3
X147.0Y-109.3
X147.0Y-111.3
X147.0Y-113.2
X147.0Y-115.4
X147.0Y-117.4
X147.0Y-119.4
X147.0Y-121.4
X147.0Y-123.3
X147.0Y-125.6
X147.0Y-127.6
X147.05Y-69.9
T2
X65.5Y-39.6
X65.5Y-41.9
X67.8Y-39.6
X67.8Y-41.9
T3
X53.1Y-91.1
X53.2Y-44.6
X53.2Y-67.8
X53.258Y-114.642
X58.5Y-45.0
X58.6Y-68.4
X58.8Y-115.0
X59.0Y-91.6
X64.0Y-68.25
X64.0Y-91.5
X64.0Y-115.0
X65.5Y-68.25
X65.5Y-91.5
X65.5Y-115.0
X67.0Y-68.25
X67.0Y-91.5
X67.0Y-115.0
X73.7Y-48.8
X73.7Y-52.4
X73.7Y-72.0
X73.7Y-75.6
X73.9Y-119.0
X73.9Y-122.6
X74.0Y-95.4
X74.0Y-99.0
X75.139Y-41.84
X75.25Y-52.0
X76.0Y-54.5
X76.25Y-48.5
X78.251Y-54.3
X79.827Y-40.924
X80.0Y-48.5
X84.25Y-43.5
X84.25Y-45.0
X84.25Y-46.5
X84.488Y-41.771
X84.678Y-52.014
X85.428Y-54.514
X85.678Y-48.514
X87.701Y-54.3
X89.215Y-40.901
X89.428Y-48.514
X92.8Y-133.45
X92.8Y-135.05
X93.373Y-43.503
X93.373Y-45.003
X93.373Y-46.503
X93.742Y-41.774
X93.765Y-51.906
X94.515Y-54.406
X94.765Y-48.406
X96.801Y-54.3
X98.392Y-40.901
X98.515Y-48.406
X102.345Y-43.34
X102.345Y-44.84
X102.345Y-46.34
X102.617Y-41.64
X102.762Y-51.888
X103.512Y-54.388
X103.762Y-48.388
X105.85Y-54.25
X107.359Y-40.729
X107.512Y-48.388
X111.1Y-70.35
X111.15Y-63.3
X111.15Y-66.85
X113.2Y-45.25
X113.25Y-49.15
X114.6Y-70.4
X114.65Y-63.35
X114.65Y-66.9
X117.6Y-70.4
X117.65Y-63.35
X117.65Y-66.9
X117.7Y-54.8
X120.8Y-70.4
X120.85Y-63.35
X120.85Y-66.9
X134.4Y-50.15
X135.4Y-39.6
X137.25Y-39.6
X138.75Y-54.85
X138.8Y-57.1
X140.35Y-53.05
X142.2Y-57.05
X143.65Y-45.95
X143.95Y-49.55
X144.2Y-43.35
X146.05Y-74.05
X147.65Y-75.7
T4
X84.8Y-112.4
X85.7Y-130.9
X94.6Y-113.3
X117.75Y-117.7
X120.137Y-112.35
X137.25Y-41.237
X144.25Y-47.837
T5
X58.178Y-52.5
X58.178Y-55.0
X58.178Y-57.0
X58.178Y-59.5
X58.178Y-75.767
X58.178Y-78.267
X58.178Y-80.267
X58.178Y-82.767
X58.178Y-99.033
X58.178Y-101.533
X58.178Y-103.533
X58.178Y-106.033
X58.178Y-122.5
X58.178Y-125.0
X58.178Y-127.0
X58.178Y-129.5
X59.678Y-52.0
X59.678Y-54.0
X59.678Y-56.0
X59.678Y-58.0
X59.678Y-60.0
X59.678Y-75.267
X59.678Y-77.267
X59.678Y-79.267
X59.678Y-81.267
X59.678Y-83.267
X59.678Y-98.533
X59.678Y-100.533
X59.678Y-102.533
X59.678Y-104.533
X59.678Y-106.533
X59.678Y-122.0
X59.678Y-124.0
X59.678Y-126.0
X59.678Y-128.0
X59.678Y-130.0
T6
X90.225Y-106.3
T7
X135.882Y-84.347
X135.882Y-89.427
X135.882Y-94.507
X135.882Y-99.587
T8
X56.178Y-49.43
X56.178Y-62.57
X56.178Y-72.697
X56.178Y-85.837
X56.178Y-95.963
X56.178Y-109.103
X56.178Y-119.43
X56.178Y-132.57
T9
X138.422Y-81.807
X138.422Y-102.127
T10
X146.042Y-86.887
X146.042Y-97.047
M30
