G04 #@! TF.GenerationSoftware,KiCad,Pcbnew,10.0.3*
G04 #@! TF.CreationDate,2026-08-22T15:59:49-05:00*
G04 #@! TF.ProjectId,USB_PCIE_Board,5553425f-5043-4494-955f-426f6172642e,0.1*
G04 #@! TF.SameCoordinates,Original*
G04 #@! TF.FileFunction,Soldermask,Bot*
G04 #@! TF.FilePolarity,Negative*
%FSLAX46Y46*%
G04 Gerber Fmt 4.6, Leading zero omitted, Abs format (unit mm)*
G04 Created by KiCad (PCBNEW 10.0.3) date 2026-08-22 15:59:49*
%MOMM*%
%LPD*%
G01*
G04 APERTURE LIST*
G04 Aperture macros list*
%AMRoundRect*
0 Rectangle with rounded corners*
0 $1 Rounding radius*
0 $2 $3 $4 $5 $6 $7 $8 $9 X,Y pos of 4 corners*
0 Add a 4 corners polygon primitive as box body*
4,1,4,$2,$3,$4,$5,$6,$7,$8,$9,$2,$3,0*
0 Add four circle primitives for the rounded corners*
1,1,$1+$1,$2,$3*
1,1,$1+$1,$4,$5*
1,1,$1+$1,$6,$7*
1,1,$1+$1,$8,$9*
0 Add four rect primitives between the rounded corners*
20,1,$1+$1,$2,$3,$4,$5,0*
20,1,$1+$1,$4,$5,$6,$7,0*
20,1,$1+$1,$6,$7,$8,$9,0*
20,1,$1+$1,$8,$9,$2,$3,0*%
G04 Aperture macros list end*
%ADD10R,5.750000X5.750000*%
%ADD11RoundRect,0.250000X-0.350000X0.350000X-0.350000X-0.350000X0.350000X-0.350000X0.350000X0.350000X0*%
%ADD12C,1.200000*%
%ADD13C,3.500000*%
%ADD14R,1.000000X1.000000*%
%ADD15C,2.794000*%
%ADD16C,4.572000*%
%ADD17C,2.286000*%
%ADD18C,3.200000*%
%ADD19R,0.700000X3.200000*%
%ADD20R,0.700000X4.300000*%
%ADD21RoundRect,0.155000X0.212500X0.155000X-0.212500X0.155000X-0.212500X-0.155000X0.212500X-0.155000X0*%
%ADD22RoundRect,0.155000X0.155000X-0.212500X0.155000X0.212500X-0.155000X0.212500X-0.155000X-0.212500X0*%
%ADD23RoundRect,0.155000X-0.155000X0.212500X-0.155000X-0.212500X0.155000X-0.212500X0.155000X0.212500X0*%
%ADD24RoundRect,0.155000X-0.212500X-0.155000X0.212500X-0.155000X0.212500X0.155000X-0.212500X0.155000X0*%
G04 APERTURE END LIST*
D10*
G04 #@! TO.C,U1*
X90224900Y-106299999D03*
G04 #@! TD*
D11*
G04 #@! TO.C,J5*
X58177776Y-52499999D03*
D12*
X58177776Y-54999999D03*
X58177776Y-56999999D03*
X58177776Y-59499999D03*
X59677776Y-59999999D03*
X59677776Y-57999999D03*
X59677776Y-55999999D03*
X59677776Y-53999999D03*
X59677776Y-51999999D03*
D13*
X56177776Y-49429999D03*
X56177776Y-62569999D03*
G04 #@! TD*
D14*
G04 #@! TO.C,TP2*
X84800000Y-112400000D03*
G04 #@! TD*
D15*
G04 #@! TO.C,U6*
X138421900Y-102126600D03*
D16*
X146041900Y-97046600D03*
X146041900Y-86886600D03*
D15*
X138421900Y-81806600D03*
D17*
X135881900Y-99586600D03*
X135881900Y-94506600D03*
X135881900Y-89426600D03*
X135881900Y-84346600D03*
G04 #@! TD*
D14*
G04 #@! TO.C,TP3*
X85700000Y-130900000D03*
G04 #@! TD*
D11*
G04 #@! TO.C,J4*
X58177776Y-75766665D03*
D12*
X58177776Y-78266665D03*
X58177776Y-80266665D03*
X58177776Y-82766665D03*
X59677776Y-83266665D03*
X59677776Y-81266665D03*
X59677776Y-79266665D03*
X59677776Y-77266665D03*
X59677776Y-75266665D03*
D13*
X56177776Y-72696665D03*
X56177776Y-85836665D03*
G04 #@! TD*
D18*
G04 #@! TO.C,H2*
X56025000Y-140525000D03*
G04 #@! TD*
G04 #@! TO.C,H1*
X56025000Y-42150000D03*
G04 #@! TD*
D14*
G04 #@! TO.C,TP1*
X94600000Y-113300000D03*
G04 #@! TD*
G04 #@! TO.C,TP5*
X144250000Y-47837500D03*
G04 #@! TD*
G04 #@! TO.C,TP7*
X120137500Y-112350000D03*
G04 #@! TD*
D11*
G04 #@! TO.C,J2*
X58177776Y-122499999D03*
D12*
X58177776Y-124999999D03*
X58177776Y-126999999D03*
X58177776Y-129499999D03*
X59677776Y-129999999D03*
X59677776Y-127999999D03*
X59677776Y-125999999D03*
X59677776Y-123999999D03*
X59677776Y-121999999D03*
D13*
X56177776Y-119429999D03*
X56177776Y-132569999D03*
G04 #@! TD*
D18*
G04 #@! TO.C,H4*
X145250000Y-132450000D03*
G04 #@! TD*
D19*
G04 #@! TO.C,J1*
X97100000Y-145750000D03*
D20*
X98100000Y-146300000D03*
X99100000Y-146300000D03*
X100100000Y-146300000D03*
X101100000Y-146300000D03*
X102100000Y-146300000D03*
X103100000Y-146300000D03*
X104100000Y-146300000D03*
X105100000Y-146300000D03*
X106100000Y-146300000D03*
X107100000Y-146300000D03*
X110100000Y-146300000D03*
X111100000Y-146300000D03*
X112100000Y-146300000D03*
X113100000Y-146300000D03*
X114100000Y-146300000D03*
X115100000Y-146300000D03*
X116100000Y-146300000D03*
G04 #@! TD*
D14*
G04 #@! TO.C,TP6*
X117750000Y-117700000D03*
G04 #@! TD*
D18*
G04 #@! TO.C,H3*
X145225000Y-65950000D03*
G04 #@! TD*
D11*
G04 #@! TO.C,J3*
X58177776Y-99033332D03*
D12*
X58177776Y-101533332D03*
X58177776Y-103533332D03*
X58177776Y-106033332D03*
X59677776Y-106533332D03*
X59677776Y-104533332D03*
X59677776Y-102533332D03*
X59677776Y-100533332D03*
X59677776Y-98533332D03*
D13*
X56177776Y-95963332D03*
X56177776Y-109103332D03*
G04 #@! TD*
D14*
G04 #@! TO.C,TP4*
X137250000Y-41237500D03*
G04 #@! TD*
D21*
G04 #@! TO.C,C8*
X87342500Y-106325000D03*
X86207500Y-106325000D03*
G04 #@! TD*
D22*
G04 #@! TO.C,C13*
X92100000Y-103417500D03*
X92100000Y-102282500D03*
G04 #@! TD*
D23*
G04 #@! TO.C,C2*
X93113377Y-109182031D03*
X93113377Y-110317031D03*
G04 #@! TD*
D21*
G04 #@! TO.C,C3*
X87342500Y-108200000D03*
X86207500Y-108200000D03*
G04 #@! TD*
D24*
G04 #@! TO.C,C18*
X94312500Y-104790000D03*
X95447500Y-104790000D03*
G04 #@! TD*
D22*
G04 #@! TO.C,C9*
X90120000Y-103417500D03*
X90120000Y-102282500D03*
G04 #@! TD*
D23*
G04 #@! TO.C,C17*
X88225000Y-109182500D03*
X88225000Y-110317500D03*
G04 #@! TD*
D22*
G04 #@! TO.C,C5*
X91100000Y-103417500D03*
X91100000Y-102282500D03*
G04 #@! TD*
D23*
G04 #@! TO.C,C12*
X91150000Y-109182500D03*
X91150000Y-110317500D03*
G04 #@! TD*
D22*
G04 #@! TO.C,C22*
X86000000Y-103417500D03*
X86000000Y-102282500D03*
G04 #@! TD*
G04 #@! TO.C,C19*
X87160000Y-102217500D03*
X87160000Y-101082500D03*
G04 #@! TD*
D21*
G04 #@! TO.C,C11*
X95450000Y-106770000D03*
X94315000Y-106770000D03*
G04 #@! TD*
G04 #@! TO.C,C14*
X87342500Y-107275000D03*
X86207500Y-107275000D03*
G04 #@! TD*
D22*
G04 #@! TO.C,C1*
X86200000Y-110342500D03*
X86200000Y-109207500D03*
G04 #@! TD*
G04 #@! TO.C,C6*
X88150000Y-103417500D03*
X88150000Y-102282500D03*
G04 #@! TD*
G04 #@! TO.C,C25*
X89200000Y-110317500D03*
X89200000Y-109182500D03*
G04 #@! TD*
G04 #@! TO.C,C10*
X89130000Y-103417500D03*
X89130000Y-102282500D03*
G04 #@! TD*
D23*
G04 #@! TO.C,C23*
X93100000Y-102282500D03*
X93100000Y-103417500D03*
G04 #@! TD*
D24*
G04 #@! TO.C,C21*
X94315000Y-105770000D03*
X95450000Y-105770000D03*
G04 #@! TD*
D21*
G04 #@! TO.C,C15*
X87167500Y-104450000D03*
X86032500Y-104450000D03*
G04 #@! TD*
D22*
G04 #@! TO.C,C20*
X92135777Y-110322373D03*
X92135777Y-109187373D03*
G04 #@! TD*
D21*
G04 #@! TO.C,C4*
X87342500Y-105375000D03*
X86207500Y-105375000D03*
G04 #@! TD*
D23*
G04 #@! TO.C,C7*
X90175000Y-109182500D03*
X90175000Y-110317500D03*
G04 #@! TD*
M02*
