G04 #@! TF.GenerationSoftware,KiCad,Pcbnew,10.0.3*
G04 #@! TF.CreationDate,2026-08-22T15:59:49-05:00*
G04 #@! TF.ProjectId,USB_PCIE_Board,5553425f-5043-4494-955f-426f6172642e,0.1*
G04 #@! TF.SameCoordinates,Original*
G04 #@! TF.FileFunction,Copper,L4,Bot*
G04 #@! TF.FilePolarity,Positive*
%FSLAX46Y46*%
G04 Gerber Fmt 4.6, Leading zero omitted, Abs format (unit mm)*
G04 Created by KiCad (PCBNEW 10.0.3) date 2026-08-22 15:59:49*
%MOMM*%
%LPD*%
G01*
G04 APERTURE LIST*
G04 Aperture macros list*
%AMRoundRect*
0 Rectangle with rounded corners*
0 $1 Rounding radius*
0 $2 $3 $4 $5 $6 $7 $8 $9 X,Y pos of 4 corners*
0 Add a 4 corners polygon primitive as box body*
4,1,4,$2,$3,$4,$5,$6,$7,$8,$9,$2,$3,0*
0 Add four circle primitives for the rounded corners*
1,1,$1+$1,$2,$3*
1,1,$1+$1,$4,$5*
1,1,$1+$1,$6,$7*
1,1,$1+$1,$8,$9*
0 Add four rect primitives between the rounded corners*
20,1,$1+$1,$2,$3,$4,$5,0*
20,1,$1+$1,$4,$5,$6,$7,0*
20,1,$1+$1,$6,$7,$8,$9,0*
20,1,$1+$1,$8,$9,$2,$3,0*%
G04 Aperture macros list end*
G04 #@! TA.AperFunction,ComponentPad*
%ADD10R,5.750000X5.750000*%
G04 #@! TD*
G04 #@! TA.AperFunction,ComponentPad*
%ADD11RoundRect,0.250000X-0.350000X0.350000X-0.350000X-0.350000X0.350000X-0.350000X0.350000X0.350000X0*%
G04 #@! TD*
G04 #@! TA.AperFunction,ComponentPad*
%ADD12C,1.200000*%
G04 #@! TD*
G04 #@! TA.AperFunction,ComponentPad*
%ADD13C,3.500000*%
G04 #@! TD*
G04 #@! TA.AperFunction,ComponentPad*
%ADD14R,1.000000X1.000000*%
G04 #@! TD*
G04 #@! TA.AperFunction,ComponentPad*
%ADD15C,2.794000*%
G04 #@! TD*
G04 #@! TA.AperFunction,ComponentPad*
%ADD16C,4.572000*%
G04 #@! TD*
G04 #@! TA.AperFunction,ComponentPad*
%ADD17C,2.286000*%
G04 #@! TD*
G04 #@! TA.AperFunction,ConnectorPad*
%ADD18R,0.700000X3.200000*%
G04 #@! TD*
G04 #@! TA.AperFunction,ConnectorPad*
%ADD19R,0.700000X4.300000*%
G04 #@! TD*
G04 #@! TA.AperFunction,SMDPad,CuDef*
%ADD20RoundRect,0.155000X0.212500X0.155000X-0.212500X0.155000X-0.212500X-0.155000X0.212500X-0.155000X0*%
G04 #@! TD*
G04 #@! TA.AperFunction,SMDPad,CuDef*
%ADD21RoundRect,0.155000X0.155000X-0.212500X0.155000X0.212500X-0.155000X0.212500X-0.155000X-0.212500X0*%
G04 #@! TD*
G04 #@! TA.AperFunction,SMDPad,CuDef*
%ADD22RoundRect,0.155000X-0.155000X0.212500X-0.155000X-0.212500X0.155000X-0.212500X0.155000X0.212500X0*%
G04 #@! TD*
G04 #@! TA.AperFunction,SMDPad,CuDef*
%ADD23RoundRect,0.155000X-0.212500X-0.155000X0.212500X-0.155000X0.212500X0.155000X-0.212500X0.155000X0*%
G04 #@! TD*
G04 #@! TA.AperFunction,ViaPad*
%ADD24C,0.350000*%
G04 #@! TD*
G04 #@! TA.AperFunction,ViaPad*
%ADD25C,1.000000*%
G04 #@! TD*
G04 #@! TA.AperFunction,ViaPad*
%ADD26C,0.600000*%
G04 #@! TD*
G04 #@! TA.AperFunction,Conductor*
%ADD27C,0.200000*%
G04 #@! TD*
G04 #@! TA.AperFunction,Conductor*
%ADD28C,0.500000*%
G04 #@! TD*
G04 #@! TA.AperFunction,Conductor*
%ADD29C,1.000000*%
G04 #@! TD*
G04 #@! TA.AperFunction,Conductor*
%ADD30C,2.000000*%
G04 #@! TD*
G04 #@! TA.AperFunction,Conductor*
%ADD31C,0.218700*%
G04 #@! TD*
G04 APERTURE END LIST*
D10*
G04 #@! TO.P,U1,69*
G04 #@! TO.N,N/C*
X90224900Y-106299999D03*
G04 #@! TD*
D11*
G04 #@! TO.P,J5,1,VBUS_1*
G04 #@! TO.N,Net-(J5-VBUS)*
X58177776Y-52499999D03*
D12*
G04 #@! TO.P,J5,2,D-_2*
G04 #@! TO.N,U2D1N*
X58177776Y-54999999D03*
G04 #@! TO.P,J5,3,D+_3*
G04 #@! TO.N,U2D1P*
X58177776Y-56999999D03*
G04 #@! TO.P,J5,4,GND_4*
G04 #@! TO.N,GND*
X58177776Y-59499999D03*
G04 #@! TO.P,J5,5,SSRX-_5*
G04 #@! TO.N,U3RXD1N*
X59677776Y-59999999D03*
G04 #@! TO.P,J5,6,SSRX+_6*
G04 #@! TO.N,U3RXD1P*
X59677776Y-57999999D03*
G04 #@! TO.P,J5,7,GND_DRAIN_7*
G04 #@! TO.N,GND*
X59677776Y-55999999D03*
G04 #@! TO.P,J5,8,SSTX-_8*
G04 #@! TO.N,U3TXD1N*
X59677776Y-53999999D03*
G04 #@! TO.P,J5,9,SSTX+_9*
G04 #@! TO.N,U3TXD1P*
X59677776Y-51999999D03*
D13*
G04 #@! TO.P,J5,SH,SHIELD_SH*
G04 #@! TO.N,Earth*
X56177776Y-49429999D03*
X56177776Y-62569999D03*
G04 #@! TD*
D14*
G04 #@! TO.P,TP2,1,1_1*
G04 #@! TO.N,Net-(U1-SMIB)*
X84800000Y-112400000D03*
G04 #@! TD*
D15*
G04 #@! TO.P,U6,*
G04 #@! TO.N,*
X138421900Y-102126600D03*
D16*
X146041900Y-97046600D03*
X146041900Y-86886600D03*
D15*
X138421900Y-81806600D03*
D17*
G04 #@! TO.P,U6,1,+12V_1*
G04 #@! TO.N,Net-(U6-+12V)*
X135881900Y-99586600D03*
G04 #@! TO.P,U6,2,COM_2*
G04 #@! TO.N,GND*
X135881900Y-94506600D03*
G04 #@! TO.P,U6,3,COM_3*
X135881900Y-89426600D03*
G04 #@! TO.P,U6,4,+5V_4*
G04 #@! TO.N,unconnected-(U6-+5V-Pad4)*
X135881900Y-84346600D03*
G04 #@! TD*
D14*
G04 #@! TO.P,TP3,1,1_1*
G04 #@! TO.N,+3V3_AUX*
X85700000Y-130900000D03*
G04 #@! TD*
D11*
G04 #@! TO.P,J4,1,VBUS_1*
G04 #@! TO.N,Net-(J4-VBUS)*
X58177776Y-75766665D03*
D12*
G04 #@! TO.P,J4,2,D-_2*
G04 #@! TO.N,U2D2N*
X58177776Y-78266665D03*
G04 #@! TO.P,J4,3,D+_3*
G04 #@! TO.N,U2D2P*
X58177776Y-80266665D03*
G04 #@! TO.P,J4,4,GND_4*
G04 #@! TO.N,GND*
X58177776Y-82766665D03*
G04 #@! TO.P,J4,5,SSRX-_5*
G04 #@! TO.N,U3RXD2N*
X59677776Y-83266665D03*
G04 #@! TO.P,J4,6,SSRX+_6*
G04 #@! TO.N,U3RXD2P*
X59677776Y-81266665D03*
G04 #@! TO.P,J4,7,GND_DRAIN_7*
G04 #@! TO.N,GND*
X59677776Y-79266665D03*
G04 #@! TO.P,J4,8,SSTX-_8*
G04 #@! TO.N,U3TXD2N*
X59677776Y-77266665D03*
G04 #@! TO.P,J4,9,SSTX+_9*
G04 #@! TO.N,U3TXD2P*
X59677776Y-75266665D03*
D13*
G04 #@! TO.P,J4,SH,SHIELD_SH*
G04 #@! TO.N,Earth*
X56177776Y-72696665D03*
X56177776Y-85836665D03*
G04 #@! TD*
D14*
G04 #@! TO.P,TP1,1,1_1*
G04 #@! TO.N,Net-(U1-PECREQB)*
X94600000Y-113300000D03*
G04 #@! TD*
G04 #@! TO.P,TP5,1,1_1*
G04 #@! TO.N,Net-(U7-VO)*
X144250000Y-47837500D03*
G04 #@! TD*
G04 #@! TO.P,TP7,1,1_1*
G04 #@! TO.N,Net-(C60-Pad1)*
X120137500Y-112350000D03*
G04 #@! TD*
D11*
G04 #@! TO.P,J2,1,VBUS_1*
G04 #@! TO.N,Net-(J2-VBUS)*
X58177776Y-122499999D03*
D12*
G04 #@! TO.P,J2,2,D-_2*
G04 #@! TO.N,U2D4N*
X58177776Y-124999999D03*
G04 #@! TO.P,J2,3,D+_3*
G04 #@! TO.N,U2D4P*
X58177776Y-126999999D03*
G04 #@! TO.P,J2,4,GND_4*
G04 #@! TO.N,GND*
X58177776Y-129499999D03*
G04 #@! TO.P,J2,5,SSRX-_5*
G04 #@! TO.N,U3RXD4N*
X59677776Y-129999999D03*
G04 #@! TO.P,J2,6,SSRX+_6*
G04 #@! TO.N,U3RXD4P*
X59677776Y-127999999D03*
G04 #@! TO.P,J2,7,GND_DRAIN_7*
G04 #@! TO.N,GND*
X59677776Y-125999999D03*
G04 #@! TO.P,J2,8,SSTX-_8*
G04 #@! TO.N,U3TXD4N*
X59677776Y-123999999D03*
G04 #@! TO.P,J2,9,SSTX+_9*
G04 #@! TO.N,U3TXD4P*
X59677776Y-121999999D03*
D13*
G04 #@! TO.P,J2,SH,SHIELD_SH*
G04 #@! TO.N,Earth*
X56177776Y-119429999D03*
X56177776Y-132569999D03*
G04 #@! TD*
D18*
G04 #@! TO.P,J1,A1,~{PRSNT1}_A1*
G04 #@! TO.N,PRSNT*
X97100000Y-145750000D03*
D19*
G04 #@! TO.P,J1,A2,+12V_A2*
G04 #@! TO.N,+12V*
X98100000Y-146300000D03*
G04 #@! TO.P,J1,A3,+12V_A3*
X99100000Y-146300000D03*
G04 #@! TO.P,J1,A4,GND_A4*
G04 #@! TO.N,GND*
X100100000Y-146300000D03*
G04 #@! TO.P,J1,A5,JTAG2_A5*
G04 #@! TO.N,unconnected-(J1-JTAG2-PadA5)*
X101100000Y-146300000D03*
G04 #@! TO.P,J1,A6,JTAG3_A6*
G04 #@! TO.N,Net-(J1-JTAG3)*
X102100000Y-146300000D03*
G04 #@! TO.P,J1,A7,JTAG4_A7*
X103100000Y-146300000D03*
G04 #@! TO.P,J1,A8,JTAG5_A8*
G04 #@! TO.N,unconnected-(J1-JTAG5-PadA8)*
X104100000Y-146300000D03*
G04 #@! TO.P,J1,A9,+3.3V_A9*
G04 #@! TO.N,+3V3_INT*
X105100000Y-146300000D03*
G04 #@! TO.P,J1,A10,+3.3V_A10*
X106100000Y-146300000D03*
G04 #@! TO.P,J1,A11,~{PERST}_A11*
G04 #@! TO.N,PERSTB*
X107100000Y-146300000D03*
G04 #@! TO.P,J1,A12,GND_A12*
G04 #@! TO.N,GND*
X110100000Y-146300000D03*
G04 #@! TO.P,J1,A13,REFCLK+_A13*
G04 #@! TO.N,PECLKP*
X111100000Y-146300000D03*
G04 #@! TO.P,J1,A14,REFCLK-_A14*
G04 #@! TO.N,PECLKN*
X112100000Y-146300000D03*
G04 #@! TO.P,J1,A15,GND_A15*
G04 #@! TO.N,GND*
X113100000Y-146300000D03*
G04 #@! TO.P,J1,A16,PERp0_A16*
G04 #@! TO.N,PETXP*
X114100000Y-146300000D03*
G04 #@! TO.P,J1,A17,PERn0_A17*
G04 #@! TO.N,PETXN*
X115100000Y-146300000D03*
G04 #@! TO.P,J1,A18,GND_A18*
G04 #@! TO.N,GND*
X116100000Y-146300000D03*
G04 #@! TD*
D14*
G04 #@! TO.P,TP6,1,1_1*
G04 #@! TO.N,+1V05*
X117750000Y-117700000D03*
G04 #@! TD*
D11*
G04 #@! TO.P,J3,1,VBUS_1*
G04 #@! TO.N,Net-(J3-VBUS)*
X58177776Y-99033332D03*
D12*
G04 #@! TO.P,J3,2,D-_2*
G04 #@! TO.N,U2D3N*
X58177776Y-101533332D03*
G04 #@! TO.P,J3,3,D+_3*
G04 #@! TO.N,U2D3P*
X58177776Y-103533332D03*
G04 #@! TO.P,J3,4,GND_4*
G04 #@! TO.N,GND*
X58177776Y-106033332D03*
G04 #@! TO.P,J3,5,SSRX-_5*
G04 #@! TO.N,U3RXD3N*
X59677776Y-106533332D03*
G04 #@! TO.P,J3,6,SSRX+_6*
G04 #@! TO.N,U3RXD3P*
X59677776Y-104533332D03*
G04 #@! TO.P,J3,7,GND_DRAIN_7*
G04 #@! TO.N,GND*
X59677776Y-102533332D03*
G04 #@! TO.P,J3,8,SSTX-_8*
G04 #@! TO.N,U3TXD3N*
X59677776Y-100533332D03*
G04 #@! TO.P,J3,9,SSTX+_9*
G04 #@! TO.N,U3TXD3P*
X59677776Y-98533332D03*
D13*
G04 #@! TO.P,J3,SH,SHIELD_SH*
G04 #@! TO.N,Earth*
X56177776Y-95963332D03*
X56177776Y-109103332D03*
G04 #@! TD*
D14*
G04 #@! TO.P,TP4,1,1_1*
G04 #@! TO.N,+3V3_DUAL*
X137250000Y-41237500D03*
G04 #@! TD*
D20*
G04 #@! TO.P,C8,1*
G04 #@! TO.N,GND*
X87342500Y-106325000D03*
G04 #@! TO.P,C8,2*
G04 #@! TO.N,+1V05*
X86207500Y-106325000D03*
G04 #@! TD*
D21*
G04 #@! TO.P,C13,1*
G04 #@! TO.N,GND*
X92100000Y-103417500D03*
G04 #@! TO.P,C13,2*
G04 #@! TO.N,+1V05*
X92100000Y-102282500D03*
G04 #@! TD*
D22*
G04 #@! TO.P,C2,1*
G04 #@! TO.N,GND*
X93113377Y-109182031D03*
G04 #@! TO.P,C2,2*
G04 #@! TO.N,+3V3_DUAL*
X93113377Y-110317031D03*
G04 #@! TD*
D20*
G04 #@! TO.P,C3,1*
G04 #@! TO.N,GND*
X87342500Y-108200000D03*
G04 #@! TO.P,C3,2*
G04 #@! TO.N,+3V3_DUAL*
X86207500Y-108200000D03*
G04 #@! TD*
D23*
G04 #@! TO.P,C18,1*
G04 #@! TO.N,+3V3_DUAL*
X94312500Y-104790000D03*
G04 #@! TO.P,C18,2*
G04 #@! TO.N,GND*
X95447500Y-104790000D03*
G04 #@! TD*
D21*
G04 #@! TO.P,C9,1*
G04 #@! TO.N,GND*
X90120000Y-103417500D03*
G04 #@! TO.P,C9,2*
G04 #@! TO.N,+1V05*
X90120000Y-102282500D03*
G04 #@! TD*
D22*
G04 #@! TO.P,C17,1*
G04 #@! TO.N,GND*
X88225000Y-109182500D03*
G04 #@! TO.P,C17,2*
G04 #@! TO.N,+3V3A*
X88225000Y-110317500D03*
G04 #@! TD*
D21*
G04 #@! TO.P,C5,1*
G04 #@! TO.N,GND*
X91100000Y-103417500D03*
G04 #@! TO.P,C5,2*
G04 #@! TO.N,+3V3_DUAL*
X91100000Y-102282500D03*
G04 #@! TD*
D22*
G04 #@! TO.P,C12,1*
G04 #@! TO.N,GND*
X91150000Y-109182500D03*
G04 #@! TO.P,C12,2*
G04 #@! TO.N,+1V05*
X91150000Y-110317500D03*
G04 #@! TD*
D21*
G04 #@! TO.P,C22,1*
G04 #@! TO.N,+1V05*
X86000000Y-103417500D03*
G04 #@! TO.P,C22,2*
G04 #@! TO.N,GND*
X86000000Y-102282500D03*
G04 #@! TD*
G04 #@! TO.P,C19,1*
G04 #@! TO.N,+3V3_DUAL*
X87160000Y-102217500D03*
G04 #@! TO.P,C19,2*
G04 #@! TO.N,GND*
X87160000Y-101082500D03*
G04 #@! TD*
D20*
G04 #@! TO.P,C11,1*
G04 #@! TO.N,GND*
X95450000Y-106770000D03*
G04 #@! TO.P,C11,2*
G04 #@! TO.N,+1V05*
X94315000Y-106770000D03*
G04 #@! TD*
G04 #@! TO.P,C14,1*
G04 #@! TO.N,GND*
X87342500Y-107275000D03*
G04 #@! TO.P,C14,2*
G04 #@! TO.N,+1V05*
X86207500Y-107275000D03*
G04 #@! TD*
D21*
G04 #@! TO.P,C1,1*
G04 #@! TO.N,GND*
X86200000Y-110342500D03*
G04 #@! TO.P,C1,2*
G04 #@! TO.N,+3V3_DUAL*
X86200000Y-109207500D03*
G04 #@! TD*
G04 #@! TO.P,C6,1*
G04 #@! TO.N,GND*
X88150000Y-103417500D03*
G04 #@! TO.P,C6,2*
G04 #@! TO.N,+3V3_DUAL*
X88150000Y-102282500D03*
G04 #@! TD*
G04 #@! TO.P,C25,1*
G04 #@! TO.N,+3V3A*
X89200000Y-110317500D03*
G04 #@! TO.P,C25,2*
G04 #@! TO.N,GND*
X89200000Y-109182500D03*
G04 #@! TD*
G04 #@! TO.P,C10,1*
G04 #@! TO.N,GND*
X89130000Y-103417500D03*
G04 #@! TO.P,C10,2*
G04 #@! TO.N,+1V05*
X89130000Y-102282500D03*
G04 #@! TD*
D22*
G04 #@! TO.P,C23,1*
G04 #@! TO.N,+1V05*
X93100000Y-102282500D03*
G04 #@! TO.P,C23,2*
G04 #@! TO.N,GND*
X93100000Y-103417500D03*
G04 #@! TD*
D23*
G04 #@! TO.P,C21,1*
G04 #@! TO.N,+1V05*
X94315000Y-105770000D03*
G04 #@! TO.P,C21,2*
G04 #@! TO.N,GND*
X95450000Y-105770000D03*
G04 #@! TD*
D20*
G04 #@! TO.P,C15,1*
G04 #@! TO.N,GND*
X87167500Y-104450000D03*
G04 #@! TO.P,C15,2*
G04 #@! TO.N,+1V05*
X86032500Y-104450000D03*
G04 #@! TD*
D21*
G04 #@! TO.P,C20,1*
G04 #@! TO.N,+1V05*
X92135777Y-110322373D03*
G04 #@! TO.P,C20,2*
G04 #@! TO.N,GND*
X92135777Y-109187373D03*
G04 #@! TD*
D20*
G04 #@! TO.P,C4,1*
G04 #@! TO.N,GND*
X87342500Y-105375000D03*
G04 #@! TO.P,C4,2*
G04 #@! TO.N,+3V3_DUAL*
X86207500Y-105375000D03*
G04 #@! TD*
D22*
G04 #@! TO.P,C7,1*
G04 #@! TO.N,GND*
X90175000Y-109182500D03*
G04 #@! TO.P,C7,2*
G04 #@! TO.N,+1V05*
X90175000Y-110317500D03*
G04 #@! TD*
D24*
G04 #@! TO.N,GND*
X87900000Y-108200000D03*
X87900000Y-107275000D03*
X91975000Y-107750000D03*
X92775000Y-106812347D03*
X92775000Y-104925000D03*
X140850000Y-86900000D03*
X138600000Y-86900000D03*
X138600000Y-90800000D03*
X140850000Y-84900000D03*
X138600000Y-88900000D03*
X138600000Y-95000000D03*
X140850000Y-90800000D03*
X138600000Y-93000000D03*
X140850000Y-93000000D03*
X140850000Y-88900000D03*
X140850000Y-95000000D03*
X138600000Y-84900000D03*
X130200000Y-103900000D03*
X128400000Y-103900000D03*
X132100000Y-98500000D03*
X132100000Y-102100000D03*
X132100000Y-100300000D03*
X132100000Y-103900000D03*
X127300000Y-127300000D03*
X129550000Y-129200000D03*
X124150000Y-127300000D03*
X124150000Y-129200000D03*
X121900000Y-129200000D03*
X129550000Y-127300000D03*
X127300000Y-129200000D03*
X121900000Y-127300000D03*
X105800000Y-125400000D03*
X109800000Y-127400000D03*
X107800000Y-125400000D03*
X107800000Y-127400000D03*
X107800000Y-129300000D03*
X105800000Y-129300000D03*
X109800000Y-129300000D03*
X105800000Y-127400000D03*
X109800000Y-125400000D03*
X70900000Y-134100000D03*
X79000000Y-134000000D03*
X76800000Y-134050000D03*
X72900000Y-134050000D03*
X74900000Y-134050000D03*
X75400000Y-114700000D03*
X75500000Y-122800000D03*
X75450000Y-120600000D03*
X75450000Y-116700000D03*
X75450000Y-118700000D03*
X76000000Y-93100000D03*
X76100000Y-101200000D03*
X76050000Y-99000000D03*
X76050000Y-95100000D03*
X76050000Y-97100000D03*
X76400000Y-69800000D03*
X76500000Y-77900000D03*
X76450000Y-75700000D03*
X76450000Y-71800000D03*
X76450000Y-73800000D03*
X144750000Y-125600000D03*
X144750000Y-109300000D03*
X147000000Y-119400000D03*
X147000000Y-125600000D03*
X147000000Y-113200000D03*
X147000000Y-127600000D03*
X147000000Y-121400000D03*
X147000000Y-111300000D03*
X144750000Y-115400000D03*
X144750000Y-119400000D03*
X144750000Y-121400000D03*
X144750000Y-113200000D03*
X144750000Y-107300000D03*
X147000000Y-117400000D03*
X147000000Y-107300000D03*
X147000000Y-123300000D03*
X144750000Y-111300000D03*
X144750000Y-127600000D03*
X144750000Y-117400000D03*
X147000000Y-109300000D03*
X144750000Y-123300000D03*
X147000000Y-115400000D03*
X138950000Y-125700000D03*
X138950000Y-109400000D03*
X141200000Y-119500000D03*
X141200000Y-125700000D03*
X141200000Y-113300000D03*
X141200000Y-127700000D03*
X141200000Y-121500000D03*
X141200000Y-129600000D03*
X141200000Y-111400000D03*
X138950000Y-115500000D03*
X138950000Y-119500000D03*
X138950000Y-121500000D03*
X138950000Y-113300000D03*
X138950000Y-129600000D03*
X138950000Y-107400000D03*
X141200000Y-117500000D03*
X141200000Y-107400000D03*
X141200000Y-123400000D03*
X138950000Y-111400000D03*
X138950000Y-127700000D03*
X138950000Y-117500000D03*
X141200000Y-109400000D03*
X138950000Y-123400000D03*
X141200000Y-115500000D03*
X135800000Y-125700000D03*
X135800000Y-127700000D03*
X133550000Y-125700000D03*
X133550000Y-127700000D03*
X135800000Y-129600000D03*
X133550000Y-129600000D03*
X133550000Y-107400000D03*
X133550000Y-121500000D03*
X135800000Y-111400000D03*
X133550000Y-117500000D03*
X133550000Y-115500000D03*
X135800000Y-117500000D03*
X133550000Y-123400000D03*
X133550000Y-113300000D03*
X133550000Y-109400000D03*
X133550000Y-119500000D03*
X135800000Y-119500000D03*
X135800000Y-115500000D03*
X135800000Y-109400000D03*
X135800000Y-107400000D03*
X133550000Y-111400000D03*
X135800000Y-121500000D03*
X135800000Y-113300000D03*
X135800000Y-123400000D03*
X107900000Y-81800000D03*
X131900000Y-41650000D03*
D25*
X113250000Y-49150000D03*
D24*
X112100000Y-80200000D03*
X125950000Y-115850000D03*
X122000000Y-41750000D03*
X101500000Y-141600000D03*
D25*
X73900000Y-122600000D03*
X147650000Y-75700000D03*
D24*
X67200000Y-85600000D03*
X117650000Y-87400000D03*
X140050000Y-63800000D03*
X91975000Y-103975000D03*
X95400000Y-95300000D03*
X64800000Y-129750000D03*
D25*
X73700000Y-52400000D03*
D24*
X67525000Y-129750000D03*
X91100000Y-103975000D03*
X87800000Y-132100000D03*
X64950000Y-85600000D03*
D25*
X76250000Y-48500000D03*
D24*
X131250000Y-121350000D03*
X98686644Y-101894564D03*
X112100000Y-39300000D03*
X108644143Y-108071462D03*
X97600000Y-87400000D03*
X107800000Y-71700000D03*
X102000000Y-39400000D03*
D25*
X138750000Y-54850000D03*
D24*
X99800000Y-91700000D03*
X127300000Y-78150000D03*
X90125000Y-103975000D03*
D25*
X142200000Y-57050000D03*
X73700000Y-48800000D03*
D24*
X112100000Y-78300000D03*
X88100000Y-39550000D03*
D26*
X67800000Y-41900000D03*
D24*
X120000000Y-41800000D03*
X102000000Y-95700000D03*
X85475000Y-102275000D03*
X131250000Y-120450000D03*
X97750000Y-102425210D03*
X104100000Y-95700000D03*
X64950000Y-89500000D03*
X84100000Y-39500000D03*
X94500000Y-55700000D03*
X111100000Y-117300000D03*
X144700000Y-50700000D03*
D25*
X53257776Y-114642224D03*
D24*
X67200000Y-111100000D03*
X125950000Y-117300000D03*
X82100000Y-39500000D03*
X140100000Y-69900000D03*
X78100000Y-39550000D03*
X64950000Y-87600000D03*
X131900000Y-39400000D03*
X64950000Y-113000000D03*
X115700000Y-140700000D03*
X113600000Y-142300000D03*
X97600000Y-93700000D03*
X96800000Y-57700000D03*
X87899087Y-105375000D03*
X115700000Y-141500000D03*
X107900000Y-79900000D03*
D25*
X102761907Y-51888133D03*
D24*
X105550000Y-69800000D03*
X102700000Y-137400000D03*
X127600000Y-65450000D03*
X106900000Y-114000000D03*
D25*
X80000000Y-48500000D03*
X146050000Y-74050000D03*
D24*
X126300000Y-113450000D03*
X128500000Y-101450000D03*
X133800000Y-39400000D03*
X67525000Y-106300000D03*
D25*
X53100000Y-91100000D03*
D24*
X107750000Y-65800000D03*
X102000000Y-93600000D03*
X95350000Y-87400000D03*
X67300000Y-134100000D03*
X124000000Y-39500000D03*
X105850000Y-55700000D03*
X127900000Y-39450000D03*
X112739542Y-130894221D03*
X95350000Y-89400000D03*
X99750000Y-89700000D03*
X133000000Y-79050000D03*
X67200000Y-109100000D03*
X99097825Y-118695054D03*
D25*
X75139363Y-41839737D03*
D24*
X112100000Y-76300000D03*
X67250000Y-66500000D03*
X95400000Y-93400000D03*
D25*
X107511907Y-48388133D03*
X53200000Y-67800000D03*
D24*
X147000000Y-52700000D03*
D25*
X144200000Y-43350000D03*
D24*
X86500000Y-134000000D03*
D25*
X102617386Y-41639971D03*
D24*
X86000000Y-39500000D03*
X122000000Y-39500000D03*
X126300000Y-112650000D03*
X124750000Y-85800000D03*
X98195173Y-101898125D03*
X142350000Y-69900000D03*
X107800000Y-67800000D03*
X95250000Y-81000000D03*
X126300000Y-115100000D03*
X133500000Y-41700000D03*
X67250000Y-62600000D03*
D25*
X93765177Y-51906162D03*
D26*
X65500000Y-41900000D03*
D24*
X100000000Y-39400000D03*
X103900000Y-39400000D03*
X79200000Y-55700000D03*
X107850000Y-73900000D03*
D25*
X53200000Y-44600000D03*
D24*
X112150000Y-92400000D03*
X106900000Y-115000000D03*
X124900000Y-65500000D03*
D25*
X85678300Y-48514339D03*
D26*
X67800000Y-39800000D03*
D24*
X112200000Y-88400000D03*
X80100000Y-39550000D03*
D25*
X111100000Y-70350000D03*
D24*
X112050000Y-74300000D03*
X124000000Y-41750000D03*
X86125000Y-101475000D03*
X87800000Y-57700000D03*
X95400000Y-91400000D03*
X67200000Y-89500000D03*
X130550000Y-112850000D03*
X100500000Y-142400000D03*
D26*
X65500000Y-39800000D03*
D24*
X67675000Y-59768000D03*
X103725370Y-97313402D03*
X144750000Y-52700000D03*
X87800000Y-132900000D03*
X85550000Y-55800000D03*
D25*
X111150000Y-63300000D03*
D24*
X104582774Y-97329428D03*
X129900000Y-41650000D03*
X64800000Y-83076000D03*
X92825000Y-103975000D03*
D25*
X59000000Y-91600000D03*
X138800000Y-57100000D03*
D24*
X88925000Y-107700000D03*
X95983765Y-105274603D03*
X65050000Y-134100000D03*
X65000000Y-62600000D03*
D25*
X84678300Y-52014339D03*
X76000000Y-54500000D03*
D24*
X126300000Y-65550000D03*
X130200000Y-120400000D03*
X88875000Y-104925000D03*
X147000000Y-56900000D03*
X129900000Y-39400000D03*
D25*
X73700000Y-72000000D03*
D24*
X107900000Y-77900000D03*
X89125000Y-103975000D03*
X110300000Y-142300000D03*
X67300000Y-132100000D03*
X144700000Y-54900000D03*
X104100000Y-93600000D03*
D25*
X98515177Y-48406162D03*
D24*
X91975000Y-108650000D03*
X104500000Y-135700000D03*
X65000000Y-66500000D03*
X100409184Y-102326944D03*
D25*
X73700000Y-75600000D03*
D24*
X115700000Y-142300000D03*
X127800000Y-99900000D03*
X126750000Y-116600000D03*
X118100000Y-39350000D03*
X65050000Y-132100000D03*
D25*
X113200000Y-45250000D03*
D24*
X94804123Y-99091893D03*
D25*
X103761907Y-48388133D03*
D24*
X128950000Y-69700000D03*
X103900000Y-136200000D03*
D25*
X93742455Y-41773523D03*
D24*
X110000000Y-115000000D03*
X123954484Y-102667751D03*
X100500000Y-140800000D03*
X110300000Y-141500000D03*
X113600000Y-141500000D03*
D25*
X89428300Y-48514339D03*
D24*
X105650000Y-77900000D03*
X147050000Y-69900000D03*
X142250000Y-61800000D03*
X96475000Y-105275000D03*
D25*
X58800000Y-115000000D03*
D24*
X101500000Y-142400000D03*
X140050000Y-67700000D03*
X112200000Y-90300000D03*
X102000000Y-91800000D03*
X70000000Y-39650000D03*
X93500000Y-70250000D03*
X105550000Y-67800000D03*
X95250000Y-79250000D03*
X100409184Y-101151687D03*
D25*
X143650000Y-45950000D03*
D24*
X64875000Y-59768000D03*
X124303098Y-93143309D03*
X130600000Y-93750000D03*
X92774087Y-105850000D03*
X88225000Y-108625000D03*
X140050000Y-65800000D03*
X64950000Y-109100000D03*
X123750000Y-103700000D03*
X142300000Y-63800000D03*
X104641002Y-111427157D03*
X75900000Y-39600000D03*
X94200000Y-102775000D03*
X96000000Y-39500000D03*
X126850000Y-85850000D03*
D25*
X74000000Y-95400000D03*
D24*
X86500000Y-134800000D03*
X126950000Y-120350000D03*
X116350000Y-87400000D03*
X105550000Y-71700000D03*
X93500000Y-72250000D03*
X103650000Y-57700000D03*
X146950000Y-54900000D03*
D25*
X73900000Y-119000000D03*
D24*
X87900000Y-104450000D03*
X87900000Y-106337347D03*
X93250000Y-81000000D03*
X105650000Y-81800000D03*
D25*
X117700000Y-54800000D03*
D24*
X90100000Y-39550000D03*
X142300000Y-67700000D03*
X144700000Y-59400000D03*
D25*
X58600000Y-68400000D03*
D24*
X126300000Y-114250000D03*
X87800000Y-55800000D03*
X67200000Y-87600000D03*
X107850000Y-75900000D03*
X97650000Y-90700000D03*
X92775000Y-107750000D03*
X100100000Y-140000000D03*
X126950000Y-119700000D03*
X144750000Y-61400000D03*
X146950000Y-50700000D03*
X92775000Y-108625000D03*
X91150000Y-108625000D03*
D25*
X94515177Y-54406162D03*
D24*
X140000000Y-59400000D03*
X106100000Y-39350000D03*
X113600000Y-140700000D03*
X74000000Y-39600000D03*
D25*
X111150000Y-66850000D03*
D24*
X122350000Y-123450000D03*
X91250000Y-72250000D03*
X88150000Y-103975000D03*
X97650000Y-95300000D03*
D25*
X94765177Y-48406162D03*
X85428300Y-54514339D03*
D24*
X96983367Y-105275000D03*
X108100000Y-39350000D03*
X67575000Y-83076000D03*
X126300000Y-111850000D03*
X105600000Y-73900000D03*
X125900000Y-41750000D03*
X144750000Y-56900000D03*
X67250000Y-64600000D03*
D25*
X84488191Y-41771368D03*
D24*
X105600000Y-75900000D03*
X127900000Y-41300000D03*
X110000000Y-114000000D03*
D25*
X140350000Y-53050000D03*
D24*
X126700000Y-117300000D03*
X112150000Y-82400000D03*
D25*
X103511907Y-54388133D03*
D24*
X90175000Y-108625000D03*
X99800000Y-93700000D03*
X129050000Y-85850000D03*
X64950000Y-111100000D03*
X107800000Y-69800000D03*
X126700000Y-122000000D03*
X65000000Y-64600000D03*
X112150000Y-94400000D03*
X125950000Y-116600000D03*
X98000000Y-39450000D03*
X114000000Y-39300000D03*
X103600000Y-55700000D03*
X97600000Y-89400000D03*
X94550000Y-57700000D03*
X146950000Y-59400000D03*
X100500000Y-141600000D03*
X67200000Y-113000000D03*
X105900000Y-57700000D03*
X104687307Y-104273296D03*
X116100000Y-39350000D03*
X110100000Y-39300000D03*
X120000000Y-39550000D03*
X126650000Y-92500000D03*
X142250000Y-59400000D03*
X140000000Y-61800000D03*
X65050000Y-136000000D03*
X67300000Y-136000000D03*
X126700000Y-115850000D03*
X118900000Y-87400000D03*
X100044319Y-97651952D03*
X64800000Y-106275000D03*
X105650000Y-79900000D03*
X125900000Y-39500000D03*
X96750000Y-55700000D03*
X89200000Y-108625000D03*
X105700000Y-134600000D03*
D25*
X75250000Y-52000000D03*
D24*
X110925197Y-131367529D03*
X147000000Y-61400000D03*
X105500000Y-65800000D03*
X132800000Y-70250000D03*
X91250000Y-70250000D03*
X112200000Y-86400000D03*
X97753561Y-103376101D03*
X112200000Y-96400000D03*
X112200000Y-98400000D03*
X91975000Y-104925000D03*
X144800000Y-69900000D03*
X93250000Y-79250000D03*
X72000000Y-39600000D03*
X112200000Y-100300000D03*
D25*
X74000000Y-99000000D03*
D24*
X92100000Y-39500000D03*
X86200000Y-110900000D03*
X94100000Y-39500000D03*
D25*
X58500000Y-45000000D03*
D24*
X112150000Y-84400000D03*
D25*
G04 #@! TO.N,VCCCH4*
X64000000Y-115000000D03*
X65500000Y-115000000D03*
X67000000Y-115000000D03*
X102344564Y-46339737D03*
X102344564Y-43339737D03*
X102344564Y-44839737D03*
G04 #@! TO.N,+5V*
X87701461Y-54300387D03*
X143950000Y-49550000D03*
X105850000Y-54250000D03*
D24*
X122550000Y-85650000D03*
X131700000Y-87850000D03*
D25*
X78251461Y-54300387D03*
D24*
X121250000Y-86750000D03*
D25*
X96801461Y-54300387D03*
D24*
X127800000Y-103050000D03*
D25*
X134400000Y-50150000D03*
D24*
X121250000Y-85650000D03*
X122550000Y-86750000D03*
X131700000Y-88850000D03*
G04 #@! TO.N,+3V3_SW*
X117100000Y-78650000D03*
X122650000Y-100350000D03*
X129350000Y-95350000D03*
X117100000Y-79900000D03*
X122650000Y-99600000D03*
X117100000Y-76150000D03*
X125650000Y-120000000D03*
X131450000Y-117300000D03*
X129350000Y-95950000D03*
X131450000Y-115350000D03*
X131450000Y-116350000D03*
X117100000Y-77350000D03*
X125800000Y-93200000D03*
G04 #@! TO.N,+3V3_DUAL*
X85650000Y-105095221D03*
X98272045Y-113089855D03*
X105100000Y-120900000D03*
D25*
X89214876Y-40900736D03*
D24*
X91425000Y-101725000D03*
X111793298Y-108079475D03*
D25*
X79827202Y-40924127D03*
D24*
X106800000Y-120900000D03*
D25*
X98392029Y-40900736D03*
D24*
X105256607Y-113264760D03*
D25*
X107358660Y-40729200D03*
D24*
X92628846Y-110875000D03*
D25*
X135400000Y-39600000D03*
D24*
X87824975Y-101725000D03*
X93550000Y-105025000D03*
X106578163Y-110603842D03*
X85650000Y-108692292D03*
X109400000Y-120900000D03*
X99194098Y-117125793D03*
X98100000Y-97300000D03*
D25*
X137250000Y-39600000D03*
D24*
X98800000Y-97300000D03*
X107836223Y-110659934D03*
G04 #@! TO.N,+3V3A*
X96700000Y-97300000D03*
X96000000Y-97300000D03*
X89020761Y-110875000D03*
D25*
G04 #@! TO.N,VCCCH2*
X84250000Y-45000000D03*
X84250000Y-46500000D03*
X84250000Y-43500000D03*
X64000000Y-68250000D03*
X65500000Y-68250000D03*
X67000000Y-68250000D03*
D24*
G04 #@! TO.N,PERSTB*
X98000000Y-135500000D03*
G04 #@! TO.N,PECLKP*
X103431355Y-137268645D03*
G04 #@! TO.N,PECLKN*
X103768645Y-136931355D03*
G04 #@! TO.N,+1V05*
X116250000Y-119900000D03*
X85650000Y-103900000D03*
X92625000Y-101725000D03*
X85650000Y-107497639D03*
X91425000Y-110875000D03*
X116250000Y-119000000D03*
X90225043Y-110875000D03*
X85650000Y-106298999D03*
X90221121Y-101725000D03*
X89025901Y-101725000D03*
X117200000Y-119900000D03*
X93550000Y-105569479D03*
X117200000Y-119000000D03*
G04 #@! TO.N,+3V3*
X125350000Y-77400000D03*
X114600000Y-129500000D03*
X125350000Y-79900000D03*
X117700000Y-129500000D03*
X125350000Y-78650000D03*
X116100000Y-129500000D03*
G04 #@! TO.N,+3V3_INT*
X101800000Y-140400000D03*
X116600000Y-134900000D03*
X118000000Y-134900000D03*
X115200000Y-134900000D03*
X110900000Y-134900000D03*
X112400000Y-134900000D03*
X103000000Y-141600000D03*
X113700000Y-134900000D03*
X102350000Y-140950000D03*
G04 #@! TO.N,+12V*
X99000000Y-140000000D03*
X134550000Y-77700000D03*
X136250000Y-77000000D03*
X134550000Y-77000000D03*
D25*
X92800000Y-135050000D03*
D24*
X99000000Y-142400000D03*
X99000000Y-141600000D03*
X99000000Y-140800000D03*
D25*
X92800000Y-133450000D03*
D24*
X136250000Y-77700000D03*
D25*
G04 #@! TO.N,VCCCH3*
X65500000Y-91500000D03*
X93373383Y-45003186D03*
X67000000Y-91500000D03*
X64000000Y-91500000D03*
X93373383Y-46503186D03*
X93373383Y-43503186D03*
D24*
G04 #@! TO.N,PETXP*
X105231355Y-135668645D03*
G04 #@! TO.N,PETXN*
X105568645Y-135331355D03*
G04 #@! TO.N,PRSNT*
X115700000Y-136300000D03*
G04 #@! TD*
G04 #@! TO.N,GND*
D27*
X85482500Y-102282500D02*
X85475000Y-102275000D01*
X86000000Y-102282500D02*
X85482500Y-102282500D01*
D28*
X113600000Y-142300000D02*
X113500000Y-142300000D01*
X115700000Y-142300000D02*
X115999588Y-142599588D01*
X113100000Y-142700000D02*
X113100000Y-146300000D01*
D27*
X86125000Y-101450000D02*
X86492500Y-101082500D01*
X86492500Y-101082500D02*
X87160000Y-101082500D01*
X86200000Y-110342500D02*
X86200000Y-110900000D01*
D28*
X115999588Y-142599588D02*
X115999588Y-146300000D01*
X113500000Y-142300000D02*
X113100000Y-142700000D01*
D27*
X110148639Y-142451361D02*
X110148639Y-146300000D01*
X110300000Y-142300000D02*
X110148639Y-142451361D01*
X86125000Y-101475000D02*
X86125000Y-101450000D01*
G04 #@! TO.N,Earth*
D29*
X54000000Y-106925556D02*
X56177776Y-109103332D01*
X56177776Y-119429999D02*
X54100000Y-121507775D01*
X54100000Y-121507775D02*
X54100000Y-130492223D01*
X54100000Y-130492223D02*
X56177776Y-132569999D01*
X53900000Y-51707775D02*
X53900000Y-60292223D01*
X54000000Y-98141108D02*
X54000000Y-106925556D01*
X56177776Y-95963332D02*
X54000000Y-98141108D01*
X56177776Y-72696665D02*
X54000000Y-74874441D01*
X54000000Y-74874441D02*
X54000000Y-83658889D01*
X53900000Y-60292223D02*
X56177776Y-62569999D01*
X56177776Y-49429999D02*
X53900000Y-51707775D01*
X54000000Y-83658889D02*
X56177776Y-85836665D01*
G04 #@! TO.N,VCCCH4*
D30*
X78350000Y-91150000D02*
X99250000Y-70250000D01*
X99250000Y-70250000D02*
X99250000Y-52000000D01*
X67000000Y-115000000D02*
X70500000Y-115000000D01*
X65500000Y-115000000D02*
X67000000Y-115000000D01*
X64000000Y-115000000D02*
X65500000Y-115000000D01*
X78350000Y-107150000D02*
X78350000Y-91150000D01*
X70500000Y-115000000D02*
X78350000Y-107150000D01*
X99250000Y-52000000D02*
X101000000Y-50250000D01*
X102344564Y-43339737D02*
X102344564Y-46339737D01*
X101000000Y-50250000D02*
X101000000Y-44684301D01*
X101000000Y-44684301D02*
X102344564Y-43339737D01*
G04 #@! TO.N,+3V3_SW*
D29*
X125650000Y-119150000D02*
X125650000Y-120000000D01*
X126400000Y-118400000D02*
X125650000Y-119150000D01*
X131450000Y-115350000D02*
X131450000Y-117300000D01*
X131450000Y-117300000D02*
X131450000Y-117350000D01*
X131450000Y-117350000D02*
X130400000Y-118400000D01*
X130400000Y-118400000D02*
X126400000Y-118400000D01*
G04 #@! TO.N,+3V3_DUAL*
D27*
X93113377Y-110686623D02*
X93113377Y-110317031D01*
X94312500Y-104790000D02*
X93785000Y-104790000D01*
X93785000Y-104790000D02*
X93550000Y-105025000D01*
X92925000Y-110875000D02*
X93113377Y-110686623D01*
X92628846Y-110875000D02*
X92925000Y-110875000D01*
X91425000Y-101725000D02*
X91225000Y-101725000D01*
X85800000Y-105375000D02*
X86207500Y-105375000D01*
X91225000Y-101725000D02*
X91100000Y-101850000D01*
X85650000Y-105095221D02*
X85650000Y-105225000D01*
X85650000Y-105225000D02*
X85800000Y-105375000D01*
X91100000Y-101850000D02*
X91100000Y-102282500D01*
G04 #@! TO.N,+3V3A*
D29*
X83400000Y-114625000D02*
X86925000Y-114625000D01*
X88225000Y-113325000D02*
X88225000Y-111670761D01*
X82425000Y-113650000D02*
X83400000Y-114625000D01*
X82425000Y-100325000D02*
X82425000Y-113650000D01*
X96700000Y-97300000D02*
X96000000Y-97300000D01*
X96000000Y-97300000D02*
X85450000Y-97300000D01*
X88225000Y-111670761D02*
X89020761Y-110875000D01*
X85450000Y-97300000D02*
X82425000Y-100325000D01*
X86925000Y-114625000D02*
X88225000Y-113325000D01*
G04 #@! TO.N,VCCCH2*
D30*
X84250000Y-46500000D02*
X84250000Y-45000000D01*
X71750000Y-68250000D02*
X81250000Y-58750000D01*
X83250000Y-44500000D02*
X84250000Y-43500000D01*
X67000000Y-68250000D02*
X65500000Y-68250000D01*
X81250000Y-51000000D02*
X83250000Y-49000000D01*
X84250000Y-45000000D02*
X84250000Y-43500000D01*
X64000000Y-68250000D02*
X65500000Y-68250000D01*
X83250000Y-49000000D02*
X83250000Y-44500000D01*
X67000000Y-68250000D02*
X71750000Y-68250000D01*
X81250000Y-58750000D02*
X81250000Y-51000000D01*
G04 #@! TO.N,PERSTB*
D27*
X99100000Y-135500000D02*
X107050694Y-143450694D01*
X98000000Y-135500000D02*
X99100000Y-135500000D01*
X107050694Y-143450694D02*
X107050694Y-146300000D01*
G04 #@! TO.N,PECLKP*
D31*
X103456316Y-137268645D02*
X103578376Y-137390705D01*
X106156806Y-138745700D02*
X110256804Y-138745700D01*
X111100000Y-144200000D02*
X111100000Y-146300000D01*
X111427150Y-139916046D02*
X111427150Y-143872850D01*
X110256804Y-138745700D02*
X111427150Y-139916046D01*
X103431355Y-137268645D02*
X103456316Y-137268645D01*
X111427150Y-143872850D02*
X111100000Y-144200000D01*
X103578376Y-137390705D02*
X103646258Y-137390705D01*
X105083956Y-137672850D02*
X106156806Y-138745700D01*
X103928403Y-137672850D02*
X105083956Y-137672850D01*
X103646258Y-137390705D02*
X103928403Y-137672850D01*
G04 #@! TO.N,PECLKN*
X106300000Y-138400000D02*
X110400000Y-138400000D01*
X103768645Y-136931355D02*
X103768645Y-136956316D01*
X111772850Y-139772850D02*
X111772850Y-143872850D01*
X112100000Y-144200000D02*
X112100000Y-146300000D01*
X103890705Y-137078376D02*
X103890705Y-137146258D01*
X104071597Y-137327150D02*
X105227150Y-137327150D01*
X111772850Y-143872850D02*
X112100000Y-144200000D01*
X103890705Y-137146258D02*
X104071597Y-137327150D01*
X105227150Y-137327150D02*
X106300000Y-138400000D01*
X110400000Y-138400000D02*
X111772850Y-139772850D01*
X103768645Y-136956316D02*
X103890705Y-137078376D01*
G04 #@! TO.N,+1V05*
D27*
X90225043Y-110367543D02*
X90175000Y-110317500D01*
X90225043Y-110875000D02*
X90225043Y-110367543D01*
G04 #@! TO.N,VCCCH3*
D30*
X64000000Y-91500000D02*
X65500000Y-91500000D01*
X90000000Y-52000000D02*
X92000000Y-50000000D01*
X92000000Y-44876569D02*
X93373383Y-43503186D01*
X92000000Y-50000000D02*
X92000000Y-44876569D01*
X93373383Y-45003186D02*
X93373383Y-46503186D01*
X78750000Y-75000000D02*
X90000000Y-63750000D01*
X78750000Y-82250000D02*
X78750000Y-75000000D01*
X93373383Y-43503186D02*
X93373383Y-45003186D01*
X90000000Y-63750000D02*
X90000000Y-52000000D01*
X65500000Y-91500000D02*
X67000000Y-91500000D01*
X69500000Y-91500000D02*
X78750000Y-82250000D01*
X67000000Y-91500000D02*
X69500000Y-91500000D01*
G04 #@! TO.N,PETXP*
D31*
X114427150Y-139371598D02*
X114427150Y-143872850D01*
X106928403Y-137272850D02*
X112328402Y-137272850D01*
X105256316Y-135668645D02*
X105378376Y-135790705D01*
X114100000Y-144200000D02*
X114100000Y-146300000D01*
X114427150Y-143872850D02*
X114100000Y-144200000D01*
X105378376Y-135790705D02*
X105446258Y-135790705D01*
X112328402Y-137272850D02*
X114427150Y-139371598D01*
X105231355Y-135668645D02*
X105256316Y-135668645D01*
X105446258Y-135790705D02*
X106928403Y-137272850D01*
G04 #@! TO.N,PETXN*
X105568645Y-135356316D02*
X105690705Y-135478376D01*
X114772850Y-143872850D02*
X115100000Y-144200000D01*
X105568645Y-135331355D02*
X105568645Y-135356316D01*
X105690705Y-135546258D02*
X107071597Y-136927150D01*
X115100000Y-144200000D02*
X115100000Y-146300000D01*
X107071597Y-136927150D02*
X112471598Y-136927150D01*
X105690705Y-135478376D02*
X105690705Y-135546258D01*
X112471598Y-136927150D02*
X114772850Y-139228402D01*
X114772850Y-139228402D02*
X114772850Y-143872850D01*
G04 #@! TO.N,PRSNT*
D27*
X120000000Y-134000000D02*
X120000000Y-126900000D01*
X116800000Y-123700000D02*
X85400000Y-123700000D01*
X97100000Y-143350000D02*
X97100000Y-145750000D01*
X95700000Y-135900000D02*
X97500000Y-137700000D01*
X115700000Y-136300000D02*
X117700000Y-136300000D01*
X120000000Y-126900000D02*
X116800000Y-123700000D01*
X97500000Y-137700000D02*
X97500000Y-142950000D01*
X83400000Y-125700000D02*
X83400000Y-133900000D01*
X97500000Y-142950000D02*
X97100000Y-143350000D01*
X117700000Y-136300000D02*
X120000000Y-134000000D01*
X85400000Y-123700000D02*
X83400000Y-125700000D01*
X85400000Y-135900000D02*
X95700000Y-135900000D01*
X83400000Y-133900000D02*
X85400000Y-135900000D01*
G04 #@! TD*
G04 #@! TA.AperFunction,Conductor*
G04 #@! TO.N,+1V05*
G36*
X93278640Y-101547417D02*
G01*
X93345243Y-101568523D01*
X93389865Y-101622288D01*
X93400000Y-101671389D01*
X93400000Y-102526000D01*
X93380315Y-102593039D01*
X93327511Y-102638794D01*
X93276000Y-102650000D01*
X91924000Y-102650000D01*
X91856961Y-102630315D01*
X91811206Y-102577511D01*
X91800000Y-102526000D01*
X91800000Y-101933518D01*
X91819685Y-101866479D01*
X91845170Y-101837800D01*
X92189505Y-101554230D01*
X92253769Y-101526808D01*
X92270969Y-101525978D01*
X93278640Y-101547417D01*
G37*
G04 #@! TD.AperFunction*
G04 #@! TD*
G04 #@! TA.AperFunction,Conductor*
G04 #@! TO.N,GND*
G36*
X101093039Y-139269685D02*
G01*
X101138794Y-139322489D01*
X101150000Y-139374000D01*
X101150000Y-140750000D01*
X103413681Y-143013681D01*
X103447166Y-143075004D01*
X103450000Y-143101362D01*
X103450000Y-143775500D01*
X103430315Y-143842539D01*
X103377511Y-143888294D01*
X103326000Y-143899500D01*
X102725324Y-143899500D01*
X102652259Y-143914033D01*
X102647452Y-143916025D01*
X102577983Y-143923494D01*
X102552548Y-143916025D01*
X102547740Y-143914033D01*
X102474676Y-143899500D01*
X102474674Y-143899500D01*
X101725326Y-143899500D01*
X101725324Y-143899500D01*
X101652259Y-143914033D01*
X101647452Y-143916025D01*
X101577983Y-143923494D01*
X101552548Y-143916025D01*
X101547740Y-143914033D01*
X101474676Y-143899500D01*
X101474674Y-143899500D01*
X100725326Y-143899500D01*
X100725323Y-143899500D01*
X100652264Y-143914032D01*
X100652260Y-143914033D01*
X100569399Y-143969399D01*
X100514033Y-144052260D01*
X100514032Y-144052264D01*
X100499500Y-144125321D01*
X100499500Y-147326000D01*
X100479815Y-147393039D01*
X100427011Y-147438794D01*
X100375500Y-147450000D01*
X99874000Y-147450000D01*
X99806961Y-147430315D01*
X99761206Y-147377511D01*
X99750000Y-147326000D01*
X99750000Y-139374000D01*
X99769685Y-139306961D01*
X99822489Y-139261206D01*
X99874000Y-139250000D01*
X101026000Y-139250000D01*
X101093039Y-139269685D01*
G37*
G04 #@! TD.AperFunction*
G04 #@! TD*
G04 #@! TA.AperFunction,Conductor*
G04 #@! TO.N,+1V05*
G36*
X86293106Y-103055023D02*
G01*
X86308104Y-103059427D01*
X86323094Y-103069057D01*
X86340175Y-103074067D01*
X86366855Y-103097172D01*
X86368042Y-103098541D01*
X86395518Y-103153402D01*
X86397163Y-103160960D01*
X86400000Y-103187331D01*
X86400000Y-104583170D01*
X86394975Y-104618114D01*
X86390570Y-104633112D01*
X86380939Y-104648101D01*
X86375932Y-104665175D01*
X86352827Y-104691855D01*
X86351458Y-104693042D01*
X86296597Y-104720518D01*
X86289039Y-104722163D01*
X86262668Y-104725000D01*
X85735462Y-104725000D01*
X85703371Y-104720775D01*
X85699440Y-104719721D01*
X85699435Y-104719721D01*
X85600565Y-104719721D01*
X85600559Y-104719721D01*
X85596629Y-104720775D01*
X85564538Y-104725000D01*
X85541830Y-104725000D01*
X85506889Y-104719975D01*
X85491890Y-104715570D01*
X85476885Y-104705930D01*
X85474791Y-104705315D01*
X85473362Y-104703666D01*
X85433144Y-104677827D01*
X85431957Y-104676458D01*
X85404477Y-104621583D01*
X85402832Y-104614021D01*
X85400000Y-104587668D01*
X85400000Y-103191829D01*
X85405023Y-103156893D01*
X85409427Y-103141895D01*
X85447172Y-103083144D01*
X85447200Y-103083119D01*
X85447199Y-103083119D01*
X85448541Y-103081956D01*
X85503420Y-103054477D01*
X85510979Y-103052833D01*
X85537332Y-103050000D01*
X86258170Y-103050000D01*
X86293106Y-103055023D01*
G37*
G04 #@! TD.AperFunction*
G04 #@! TD*
G04 #@! TA.AperFunction,Conductor*
G04 #@! TO.N,GND*
G36*
X97076871Y-104479626D02*
G01*
X97091869Y-104484030D01*
X97106859Y-104493660D01*
X97123940Y-104498670D01*
X97150620Y-104521775D01*
X97151807Y-104523144D01*
X97179283Y-104578005D01*
X97180928Y-104585563D01*
X97183765Y-104611934D01*
X97183765Y-105532773D01*
X97178740Y-105567717D01*
X97174335Y-105582715D01*
X97164704Y-105597704D01*
X97159697Y-105614778D01*
X97136592Y-105641458D01*
X97135223Y-105642645D01*
X97080362Y-105670121D01*
X97072804Y-105671766D01*
X97046433Y-105674603D01*
X96283765Y-105674603D01*
X95983765Y-106074603D01*
X95983765Y-107032773D01*
X95983764Y-107032779D01*
X95983765Y-107032782D01*
X95978740Y-107067717D01*
X95974335Y-107082715D01*
X95936592Y-107141458D01*
X95936557Y-107141488D01*
X95936556Y-107141490D01*
X95936554Y-107141490D01*
X95935223Y-107142645D01*
X95880362Y-107170121D01*
X95872804Y-107171766D01*
X95846433Y-107174603D01*
X95225595Y-107174603D01*
X95225590Y-107174602D01*
X95225588Y-107174603D01*
X95190654Y-107169578D01*
X95175655Y-107165173D01*
X95116909Y-107127430D01*
X95116880Y-107127396D01*
X95116879Y-107127396D01*
X95116878Y-107127394D01*
X95115722Y-107126061D01*
X95088242Y-107071186D01*
X95086597Y-107063624D01*
X95083765Y-107037271D01*
X95083765Y-104616432D01*
X95088788Y-104581496D01*
X95093192Y-104566498D01*
X95130937Y-104507747D01*
X95130965Y-104507722D01*
X95130964Y-104507722D01*
X95132306Y-104506559D01*
X95187185Y-104479080D01*
X95194744Y-104477436D01*
X95221097Y-104474603D01*
X97041935Y-104474603D01*
X97076871Y-104479626D01*
G37*
G04 #@! TD.AperFunction*
G04 #@! TD*
G04 #@! TA.AperFunction,Conductor*
G04 #@! TO.N,+3V3_DUAL*
G36*
X86468106Y-107905023D02*
G01*
X86483104Y-107909427D01*
X86498094Y-107919057D01*
X86515175Y-107924067D01*
X86541855Y-107947172D01*
X86543042Y-107948541D01*
X86570518Y-108003402D01*
X86572163Y-108010960D01*
X86575000Y-108037331D01*
X86575000Y-109433170D01*
X86569975Y-109468114D01*
X86565570Y-109483112D01*
X86555939Y-109498101D01*
X86550932Y-109515175D01*
X86527827Y-109541855D01*
X86526458Y-109543042D01*
X86471597Y-109570518D01*
X86464039Y-109572163D01*
X86437668Y-109575000D01*
X85591830Y-109575000D01*
X85556889Y-109569975D01*
X85541890Y-109565570D01*
X85526902Y-109555940D01*
X85509824Y-109550932D01*
X85483144Y-109527827D01*
X85481957Y-109526458D01*
X85454477Y-109471583D01*
X85452832Y-109464021D01*
X85450000Y-109437668D01*
X85450000Y-108319191D01*
X85455022Y-108284258D01*
X85462434Y-108259013D01*
X85493728Y-108206271D01*
X85751076Y-107948923D01*
X85779326Y-107927775D01*
X85802418Y-107915167D01*
X85861843Y-107900000D01*
X86433170Y-107900000D01*
X86468106Y-107905023D01*
G37*
G04 #@! TD.AperFunction*
G04 #@! TD*
G04 #@! TA.AperFunction,Conductor*
G04 #@! TO.N,+1V05*
G36*
X90368039Y-101569685D02*
G01*
X90413794Y-101622489D01*
X90425000Y-101674000D01*
X90425000Y-102526000D01*
X90405315Y-102593039D01*
X90352511Y-102638794D01*
X90301000Y-102650000D01*
X88949000Y-102650000D01*
X88881961Y-102630315D01*
X88836206Y-102577511D01*
X88825000Y-102526000D01*
X88825000Y-101674000D01*
X88844685Y-101606961D01*
X88897489Y-101561206D01*
X88949000Y-101550000D01*
X90301000Y-101550000D01*
X90368039Y-101569685D01*
G37*
G04 #@! TD.AperFunction*
G04 #@! TD*
G04 #@! TA.AperFunction,Conductor*
G04 #@! TO.N,+3V3_INT*
G36*
X102270058Y-139205021D02*
G01*
X102295302Y-139212434D01*
X102348048Y-139243730D01*
X106351074Y-143246755D01*
X106372223Y-143275006D01*
X106384831Y-143298095D01*
X106400000Y-143357524D01*
X106400000Y-147058170D01*
X106394975Y-147093114D01*
X106390570Y-147108112D01*
X106352827Y-147166855D01*
X106351458Y-147168042D01*
X106296597Y-147195518D01*
X106289039Y-147197163D01*
X106262668Y-147200000D01*
X104842330Y-147200000D01*
X104842325Y-147199999D01*
X104842323Y-147200000D01*
X104807389Y-147194975D01*
X104792390Y-147190570D01*
X104733644Y-147152827D01*
X104733615Y-147152793D01*
X104733614Y-147152793D01*
X104733613Y-147152791D01*
X104732457Y-147151458D01*
X104704977Y-147096583D01*
X104703332Y-147089021D01*
X104700500Y-147062668D01*
X104700500Y-144125139D01*
X104700064Y-144123134D01*
X104685972Y-144052289D01*
X104685971Y-144052287D01*
X104685967Y-144052264D01*
X104685966Y-144052260D01*
X104685965Y-144052258D01*
X104685964Y-144052256D01*
X104630601Y-143969399D01*
X104557891Y-143920816D01*
X104553826Y-143917480D01*
X104547739Y-143914033D01*
X104547735Y-143914032D01*
X104547709Y-143914026D01*
X104474680Y-143899500D01*
X104474677Y-143899500D01*
X104474674Y-143899500D01*
X103941830Y-143899500D01*
X103941825Y-143899499D01*
X103941823Y-143899500D01*
X103906889Y-143894475D01*
X103891890Y-143890070D01*
X103833144Y-143852327D01*
X103833115Y-143852293D01*
X103833114Y-143852293D01*
X103833113Y-143852291D01*
X103831957Y-143850958D01*
X103804477Y-143796083D01*
X103802832Y-143788521D01*
X103800000Y-143762168D01*
X103800000Y-142900000D01*
X101448926Y-140548926D01*
X101448921Y-140548921D01*
X101427774Y-140520670D01*
X101420667Y-140507654D01*
X101405500Y-140448229D01*
X101405500Y-139374000D01*
X101405499Y-139373986D01*
X101402728Y-139348214D01*
X101403471Y-139339909D01*
X101402017Y-139334957D01*
X101407039Y-139300025D01*
X101409427Y-139291894D01*
X101447198Y-139233120D01*
X101448576Y-139231926D01*
X101503420Y-139204477D01*
X101510979Y-139202833D01*
X101537332Y-139200000D01*
X102235126Y-139200000D01*
X102270058Y-139205021D01*
G37*
G04 #@! TD.AperFunction*
G04 #@! TD*
G04 #@! TA.AperFunction,Conductor*
G04 #@! TO.N,+3V3_DUAL*
G36*
X87940740Y-101555021D02*
G01*
X87965984Y-101562434D01*
X88018730Y-101593730D01*
X88401074Y-101976074D01*
X88422223Y-102004325D01*
X88434831Y-102027414D01*
X88450000Y-102086843D01*
X88450000Y-102508170D01*
X88444975Y-102543114D01*
X88440570Y-102558112D01*
X88402827Y-102616855D01*
X88401458Y-102618042D01*
X88346597Y-102645518D01*
X88339039Y-102647163D01*
X88312668Y-102650000D01*
X86991830Y-102650000D01*
X86991825Y-102649999D01*
X86991823Y-102650000D01*
X86956889Y-102644975D01*
X86941890Y-102640570D01*
X86883144Y-102602827D01*
X86883115Y-102602793D01*
X86883114Y-102602793D01*
X86883113Y-102602791D01*
X86881957Y-102601458D01*
X86854477Y-102546583D01*
X86852832Y-102539021D01*
X86850000Y-102512668D01*
X86850000Y-101991829D01*
X86855023Y-101956893D01*
X86859427Y-101941895D01*
X86897172Y-101883144D01*
X86897200Y-101883119D01*
X86897199Y-101883119D01*
X86898541Y-101881956D01*
X86953420Y-101854477D01*
X86960979Y-101852833D01*
X86987332Y-101850000D01*
X87425000Y-101850000D01*
X87676077Y-101598922D01*
X87701884Y-101579145D01*
X87703088Y-101578451D01*
X87715608Y-101571615D01*
X87721161Y-101568046D01*
X87723781Y-101566538D01*
X87754911Y-101559025D01*
X87785648Y-101550000D01*
X87905808Y-101550000D01*
X87940740Y-101555021D01*
G37*
G04 #@! TD.AperFunction*
G04 #@! TD*
G04 #@! TA.AperFunction,Conductor*
G04 #@! TO.N,+1V05*
G36*
X92393039Y-109969685D02*
G01*
X92438794Y-110022489D01*
X92450000Y-110074000D01*
X92450000Y-110401000D01*
X92430315Y-110468039D01*
X92377511Y-110513794D01*
X92326000Y-110525000D01*
X92025000Y-110525000D01*
X91587233Y-111077967D01*
X91530189Y-111118311D01*
X91490013Y-111125000D01*
X90974000Y-111125000D01*
X90906961Y-111105315D01*
X90861206Y-111052511D01*
X90850000Y-111001000D01*
X90850000Y-110074000D01*
X90869685Y-110006961D01*
X90922489Y-109961206D01*
X90974000Y-109950000D01*
X92326000Y-109950000D01*
X92393039Y-109969685D01*
G37*
G04 #@! TD.AperFunction*
G04 #@! TD*
G04 #@! TA.AperFunction,Conductor*
G04 #@! TO.N,+1V05*
G36*
X86543039Y-106019685D02*
G01*
X86588794Y-106072489D01*
X86600000Y-106124000D01*
X86600000Y-107476000D01*
X86580315Y-107543039D01*
X86527511Y-107588794D01*
X86476000Y-107600000D01*
X85874999Y-107600000D01*
X85811319Y-107663681D01*
X85784391Y-107678384D01*
X85758573Y-107694977D01*
X85752372Y-107695868D01*
X85749996Y-107697166D01*
X85723638Y-107700000D01*
X85549000Y-107700000D01*
X85481961Y-107680315D01*
X85436206Y-107627511D01*
X85425000Y-107576000D01*
X85425000Y-106124000D01*
X85444685Y-106056961D01*
X85497489Y-106011206D01*
X85549000Y-106000000D01*
X86476000Y-106000000D01*
X86543039Y-106019685D01*
G37*
G04 #@! TD.AperFunction*
G04 #@! TD*
G04 #@! TA.AperFunction,Conductor*
G04 #@! TO.N,+1V05*
G36*
X94618039Y-105419685D02*
G01*
X94663794Y-105472489D01*
X94675000Y-105524000D01*
X94675000Y-107026000D01*
X94655315Y-107093039D01*
X94602511Y-107138794D01*
X94551000Y-107150000D01*
X93949000Y-107150000D01*
X93881961Y-107130315D01*
X93836206Y-107077511D01*
X93825000Y-107026000D01*
X93825000Y-106125000D01*
X93422871Y-105812233D01*
X93420885Y-105809476D01*
X93417797Y-105808066D01*
X93400612Y-105781325D01*
X93382039Y-105755536D01*
X93381314Y-105751297D01*
X93380023Y-105749288D01*
X93375000Y-105714353D01*
X93375000Y-105524500D01*
X93394685Y-105457461D01*
X93447489Y-105411706D01*
X93499000Y-105400500D01*
X93603730Y-105400500D01*
X93611359Y-105400000D01*
X94551000Y-105400000D01*
X94618039Y-105419685D01*
G37*
G04 #@! TD.AperFunction*
G04 #@! TD*
G04 #@! TA.AperFunction,Conductor*
G04 #@! TO.N,+12V*
G36*
X99443453Y-139219685D02*
G01*
X99489208Y-139272489D01*
X99499152Y-139341647D01*
X99499152Y-139341648D01*
X99494500Y-139374002D01*
X99494500Y-142954137D01*
X99474815Y-143021176D01*
X99458181Y-143041818D01*
X99400000Y-143099998D01*
X99400000Y-147158170D01*
X99399999Y-147158176D01*
X99400000Y-147158179D01*
X99394975Y-147193114D01*
X99390570Y-147208112D01*
X99352827Y-147266855D01*
X99352792Y-147266885D01*
X99352791Y-147266887D01*
X99352789Y-147266887D01*
X99351458Y-147268042D01*
X99296597Y-147295518D01*
X99289039Y-147297163D01*
X99262668Y-147300000D01*
X97941830Y-147300000D01*
X97941825Y-147299999D01*
X97941823Y-147300000D01*
X97906889Y-147294975D01*
X97891890Y-147290570D01*
X97833144Y-147252827D01*
X97833115Y-147252793D01*
X97833114Y-147252793D01*
X97833113Y-147252791D01*
X97831957Y-147251458D01*
X97804477Y-147196583D01*
X97802832Y-147189021D01*
X97800000Y-147162668D01*
X97800000Y-143769191D01*
X97805022Y-143734258D01*
X97812434Y-143709013D01*
X97843728Y-143656271D01*
X98300000Y-143200000D01*
X98300000Y-139341829D01*
X98305023Y-139306893D01*
X98306456Y-139302015D01*
X98309427Y-139291894D01*
X98347172Y-139233144D01*
X98347200Y-139233119D01*
X98347199Y-139233119D01*
X98348541Y-139231956D01*
X98403420Y-139204477D01*
X98410979Y-139202833D01*
X98437332Y-139200000D01*
X99376414Y-139200000D01*
X99443453Y-139219685D01*
G37*
G04 #@! TD.AperFunction*
G04 #@! TD*
G04 #@! TA.AperFunction,Conductor*
G04 #@! TO.N,Earth*
G36*
X56143039Y-38784476D02*
G01*
X56188794Y-38837280D01*
X56200000Y-38888791D01*
X56200000Y-40225500D01*
X56180315Y-40292539D01*
X56127511Y-40338294D01*
X56076000Y-40349500D01*
X55906989Y-40349500D01*
X55906983Y-40349500D01*
X55906979Y-40349501D01*
X55672989Y-40380306D01*
X55445006Y-40441394D01*
X55226954Y-40531714D01*
X55226943Y-40531719D01*
X55022545Y-40649730D01*
X54835302Y-40793406D01*
X54835295Y-40793412D01*
X54668412Y-40960295D01*
X54668406Y-40960302D01*
X54524730Y-41147545D01*
X54406719Y-41351943D01*
X54406714Y-41351954D01*
X54316394Y-41570006D01*
X54255306Y-41797989D01*
X54224501Y-42031979D01*
X54224500Y-42031995D01*
X54224500Y-42268004D01*
X54224501Y-42268020D01*
X54255306Y-42502010D01*
X54316394Y-42729993D01*
X54406714Y-42948045D01*
X54406719Y-42948056D01*
X54477677Y-43070957D01*
X54524727Y-43152450D01*
X54524729Y-43152453D01*
X54524730Y-43152454D01*
X54668406Y-43339697D01*
X54668412Y-43339704D01*
X54835295Y-43506587D01*
X54835301Y-43506592D01*
X55022550Y-43650273D01*
X55153918Y-43726118D01*
X55226943Y-43768280D01*
X55226948Y-43768282D01*
X55226951Y-43768284D01*
X55445007Y-43858606D01*
X55672986Y-43919693D01*
X55906989Y-43950500D01*
X55906996Y-43950500D01*
X56076000Y-43950500D01*
X56143039Y-43970185D01*
X56188794Y-44022989D01*
X56200000Y-44074500D01*
X56200000Y-138600500D01*
X56180315Y-138667539D01*
X56127511Y-138713294D01*
X56076000Y-138724500D01*
X55906989Y-138724500D01*
X55906983Y-138724500D01*
X55906979Y-138724501D01*
X55672989Y-138755306D01*
X55445006Y-138816394D01*
X55226954Y-138906714D01*
X55226943Y-138906719D01*
X55022545Y-139024730D01*
X54835302Y-139168406D01*
X54835295Y-139168412D01*
X54668412Y-139335295D01*
X54668406Y-139335302D01*
X54524730Y-139522545D01*
X54406719Y-139726943D01*
X54406714Y-139726954D01*
X54316394Y-139945006D01*
X54255306Y-140172989D01*
X54224501Y-140406979D01*
X54224500Y-140406995D01*
X54224500Y-140643004D01*
X54224501Y-140643020D01*
X54255306Y-140877010D01*
X54316394Y-141104993D01*
X54406714Y-141323045D01*
X54406719Y-141323056D01*
X54477677Y-141445957D01*
X54524727Y-141527450D01*
X54524729Y-141527453D01*
X54524730Y-141527454D01*
X54668406Y-141714697D01*
X54668412Y-141714704D01*
X54835295Y-141881587D01*
X54835301Y-141881592D01*
X55022550Y-142025273D01*
X55153918Y-142101118D01*
X55226943Y-142143280D01*
X55226948Y-142143282D01*
X55226951Y-142143284D01*
X55445007Y-142233606D01*
X55672986Y-142294693D01*
X55906989Y-142325500D01*
X55906996Y-142325500D01*
X56076000Y-142325500D01*
X56143039Y-142345185D01*
X56188794Y-142397989D01*
X56200000Y-142449500D01*
X56200000Y-144637291D01*
X56180315Y-144704330D01*
X56127511Y-144750085D01*
X56076000Y-144761291D01*
X52074166Y-144761291D01*
X52007127Y-144741606D01*
X51961372Y-144688802D01*
X51950166Y-144637291D01*
X51950166Y-114716144D01*
X52507275Y-114716144D01*
X52536116Y-114861131D01*
X52536119Y-114861141D01*
X52592688Y-114997712D01*
X52592695Y-114997725D01*
X52674824Y-115120639D01*
X52674827Y-115120643D01*
X52779356Y-115225172D01*
X52779360Y-115225175D01*
X52902274Y-115307304D01*
X52902287Y-115307311D01*
X53038858Y-115363880D01*
X53038863Y-115363882D01*
X53038867Y-115363882D01*
X53038868Y-115363883D01*
X53183855Y-115392724D01*
X53183858Y-115392724D01*
X53331696Y-115392724D01*
X53429238Y-115373320D01*
X53476689Y-115363882D01*
X53613271Y-115307308D01*
X53736192Y-115225175D01*
X53840727Y-115120640D01*
X53922860Y-114997719D01*
X53979434Y-114861137D01*
X54008276Y-114716142D01*
X54008276Y-114568306D01*
X54008276Y-114568303D01*
X53979435Y-114423316D01*
X53979434Y-114423315D01*
X53979434Y-114423311D01*
X53979432Y-114423306D01*
X53922863Y-114286735D01*
X53922856Y-114286722D01*
X53840727Y-114163808D01*
X53840724Y-114163804D01*
X53736195Y-114059275D01*
X53736191Y-114059272D01*
X53613277Y-113977143D01*
X53613264Y-113977136D01*
X53476693Y-113920567D01*
X53476683Y-113920564D01*
X53331696Y-113891724D01*
X53331694Y-113891724D01*
X53183858Y-113891724D01*
X53183856Y-113891724D01*
X53038868Y-113920564D01*
X53038858Y-113920567D01*
X52902287Y-113977136D01*
X52902274Y-113977143D01*
X52779360Y-114059272D01*
X52779356Y-114059275D01*
X52674827Y-114163804D01*
X52674824Y-114163808D01*
X52592695Y-114286722D01*
X52592688Y-114286735D01*
X52536119Y-114423306D01*
X52536116Y-114423316D01*
X52507276Y-114568303D01*
X52507276Y-114568306D01*
X52507276Y-114716142D01*
X52507276Y-114716144D01*
X52507275Y-114716144D01*
X51950166Y-114716144D01*
X51950166Y-91173920D01*
X52349499Y-91173920D01*
X52378340Y-91318907D01*
X52378343Y-91318917D01*
X52434912Y-91455488D01*
X52434919Y-91455501D01*
X52517048Y-91578415D01*
X52517051Y-91578419D01*
X52621580Y-91682948D01*
X52621584Y-91682951D01*
X52744498Y-91765080D01*
X52744511Y-91765087D01*
X52881082Y-91821656D01*
X52881087Y-91821658D01*
X52881091Y-91821658D01*
X52881092Y-91821659D01*
X53026079Y-91850500D01*
X53026082Y-91850500D01*
X53173920Y-91850500D01*
X53271462Y-91831096D01*
X53318913Y-91821658D01*
X53455495Y-91765084D01*
X53578416Y-91682951D01*
X53682951Y-91578416D01*
X53765084Y-91455495D01*
X53821658Y-91318913D01*
X53850500Y-91173918D01*
X53850500Y-91026082D01*
X53850500Y-91026079D01*
X53821659Y-90881092D01*
X53821658Y-90881091D01*
X53821658Y-90881087D01*
X53821656Y-90881082D01*
X53765087Y-90744511D01*
X53765080Y-90744498D01*
X53682951Y-90621584D01*
X53682948Y-90621580D01*
X53578419Y-90517051D01*
X53578415Y-90517048D01*
X53455501Y-90434919D01*
X53455488Y-90434912D01*
X53318917Y-90378343D01*
X53318907Y-90378340D01*
X53173920Y-90349500D01*
X53173918Y-90349500D01*
X53026082Y-90349500D01*
X53026080Y-90349500D01*
X52881092Y-90378340D01*
X52881082Y-90378343D01*
X52744511Y-90434912D01*
X52744498Y-90434919D01*
X52621584Y-90517048D01*
X52621580Y-90517051D01*
X52517051Y-90621580D01*
X52517048Y-90621584D01*
X52434919Y-90744498D01*
X52434912Y-90744511D01*
X52378343Y-90881082D01*
X52378340Y-90881092D01*
X52349500Y-91026079D01*
X52349500Y-91026082D01*
X52349500Y-91173918D01*
X52349500Y-91173920D01*
X52349499Y-91173920D01*
X51950166Y-91173920D01*
X51950166Y-67873920D01*
X52449499Y-67873920D01*
X52478340Y-68018907D01*
X52478343Y-68018917D01*
X52534912Y-68155488D01*
X52534919Y-68155501D01*
X52617048Y-68278415D01*
X52617051Y-68278419D01*
X52721580Y-68382948D01*
X52721584Y-68382951D01*
X52844498Y-68465080D01*
X52844511Y-68465087D01*
X52981082Y-68521656D01*
X52981087Y-68521658D01*
X52981091Y-68521658D01*
X52981092Y-68521659D01*
X53126079Y-68550500D01*
X53126082Y-68550500D01*
X53273920Y-68550500D01*
X53371462Y-68531096D01*
X53418913Y-68521658D01*
X53555495Y-68465084D01*
X53678416Y-68382951D01*
X53782951Y-68278416D01*
X53865084Y-68155495D01*
X53921658Y-68018913D01*
X53950500Y-67873918D01*
X53950500Y-67726082D01*
X53950500Y-67726079D01*
X53921659Y-67581092D01*
X53921658Y-67581091D01*
X53921658Y-67581087D01*
X53921656Y-67581082D01*
X53865087Y-67444511D01*
X53865080Y-67444498D01*
X53782951Y-67321584D01*
X53782948Y-67321580D01*
X53678419Y-67217051D01*
X53678415Y-67217048D01*
X53555501Y-67134919D01*
X53555488Y-67134912D01*
X53418917Y-67078343D01*
X53418907Y-67078340D01*
X53273920Y-67049500D01*
X53273918Y-67049500D01*
X53126082Y-67049500D01*
X53126080Y-67049500D01*
X52981092Y-67078340D01*
X52981082Y-67078343D01*
X52844511Y-67134912D01*
X52844498Y-67134919D01*
X52721584Y-67217048D01*
X52721580Y-67217051D01*
X52617051Y-67321580D01*
X52617048Y-67321584D01*
X52534919Y-67444498D01*
X52534912Y-67444511D01*
X52478343Y-67581082D01*
X52478340Y-67581092D01*
X52449500Y-67726079D01*
X52449500Y-67726082D01*
X52449500Y-67873918D01*
X52449500Y-67873920D01*
X52449499Y-67873920D01*
X51950166Y-67873920D01*
X51950166Y-44673920D01*
X52449499Y-44673920D01*
X52478340Y-44818907D01*
X52478343Y-44818917D01*
X52534912Y-44955488D01*
X52534919Y-44955501D01*
X52617048Y-45078415D01*
X52617051Y-45078419D01*
X52721580Y-45182948D01*
X52721584Y-45182951D01*
X52844498Y-45265080D01*
X52844511Y-45265087D01*
X52981082Y-45321656D01*
X52981087Y-45321658D01*
X52981091Y-45321658D01*
X52981092Y-45321659D01*
X53126079Y-45350500D01*
X53126082Y-45350500D01*
X53273920Y-45350500D01*
X53371462Y-45331096D01*
X53418913Y-45321658D01*
X53555495Y-45265084D01*
X53678416Y-45182951D01*
X53782951Y-45078416D01*
X53865084Y-44955495D01*
X53921658Y-44818913D01*
X53950500Y-44673918D01*
X53950500Y-44526082D01*
X53950500Y-44526079D01*
X53921659Y-44381092D01*
X53921658Y-44381091D01*
X53921658Y-44381087D01*
X53921656Y-44381082D01*
X53865087Y-44244511D01*
X53865080Y-44244498D01*
X53782951Y-44121584D01*
X53782948Y-44121580D01*
X53678419Y-44017051D01*
X53678415Y-44017048D01*
X53555501Y-43934919D01*
X53555488Y-43934912D01*
X53418917Y-43878343D01*
X53418907Y-43878340D01*
X53273920Y-43849500D01*
X53273918Y-43849500D01*
X53126082Y-43849500D01*
X53126080Y-43849500D01*
X52981092Y-43878340D01*
X52981082Y-43878343D01*
X52844511Y-43934912D01*
X52844498Y-43934919D01*
X52721584Y-44017048D01*
X52721580Y-44017051D01*
X52617051Y-44121580D01*
X52617048Y-44121584D01*
X52534919Y-44244498D01*
X52534912Y-44244511D01*
X52478343Y-44381082D01*
X52478340Y-44381092D01*
X52449500Y-44526079D01*
X52449500Y-44526082D01*
X52449500Y-44673918D01*
X52449500Y-44673920D01*
X52449499Y-44673920D01*
X51950166Y-44673920D01*
X51950166Y-38888791D01*
X51969851Y-38821752D01*
X52022655Y-38775997D01*
X52074166Y-38764791D01*
X56076000Y-38764791D01*
X56143039Y-38784476D01*
G37*
G04 #@! TD.AperFunction*
G04 #@! TD*
G04 #@! TA.AperFunction,Conductor*
G04 #@! TO.N,+3V3A*
G36*
X89468039Y-109969685D02*
G01*
X89513794Y-110022489D01*
X89525000Y-110074000D01*
X89525000Y-110926000D01*
X89505315Y-110993039D01*
X89452511Y-111038794D01*
X89401000Y-111050000D01*
X88329478Y-111050000D01*
X88262439Y-111030315D01*
X88235632Y-111007049D01*
X88223532Y-110993039D01*
X87955154Y-110682284D01*
X87926233Y-110618680D01*
X87925000Y-110601235D01*
X87925000Y-110074000D01*
X87944685Y-110006961D01*
X87997489Y-109961206D01*
X88049000Y-109950000D01*
X89401000Y-109950000D01*
X89468039Y-109969685D01*
G37*
G04 #@! TD.AperFunction*
G04 #@! TD*
M02*
