G04 #@! TF.GenerationSoftware,KiCad,Pcbnew,10.0.3*
G04 #@! TF.CreationDate,2026-08-22T23:09:30-05:00*
G04 #@! TF.ProjectId,USB_PCIE_Board,5553425f-5043-4494-955f-426f6172642e,0.1*
G04 #@! TF.SameCoordinates,Original*
G04 #@! TF.FileFunction,Soldermask,Top*
G04 #@! TF.FilePolarity,Negative*
%FSLAX46Y46*%
G04 Gerber Fmt 4.6, Leading zero omitted, Abs format (unit mm)*
G04 Created by KiCad (PCBNEW 10.0.3) date 2026-08-22 23:09:30*
%MOMM*%
%LPD*%
G01*
G04 APERTURE LIST*
G04 Aperture macros list*
%AMRoundRect*
0 Rectangle with rounded corners*
0 $1 Rounding radius*
0 $2 $3 $4 $5 $6 $7 $8 $9 X,Y pos of 4 corners*
0 Add a 4 corners polygon primitive as box body*
4,1,4,$2,$3,$4,$5,$6,$7,$8,$9,$2,$3,0*
0 Add four circle primitives for the rounded corners*
1,1,$1+$1,$2,$3*
1,1,$1+$1,$4,$5*
1,1,$1+$1,$6,$7*
1,1,$1+$1,$8,$9*
0 Add four rect primitives between the rounded corners*
20,1,$1+$1,$2,$3,$4,$5,0*
20,1,$1+$1,$4,$5,$6,$7,0*
20,1,$1+$1,$6,$7,$8,$9,0*
20,1,$1+$1,$8,$9,$2,$3,0*%
%AMFreePoly0*
4,1,9,3.862500,-0.866500,0.737500,-0.866500,0.737500,-0.450000,-0.737500,-0.450000,-0.737500,0.450000,0.737500,0.450000,0.737500,0.866500,3.862500,0.866500,3.862500,-0.866500,3.862500,-0.866500,$1*%
G04 Aperture macros list end*
%ADD10RoundRect,0.237500X0.250000X0.237500X-0.250000X0.237500X-0.250000X-0.237500X0.250000X-0.237500X0*%
%ADD11R,0.762000X0.254000*%
%ADD12RoundRect,0.237500X-0.237500X0.250000X-0.237500X-0.250000X0.237500X-0.250000X0.237500X0.250000X0*%
%ADD13RoundRect,0.155000X0.212500X0.155000X-0.212500X0.155000X-0.212500X-0.155000X0.212500X-0.155000X0*%
%ADD14RoundRect,0.250000X0.325000X0.450000X-0.325000X0.450000X-0.325000X-0.450000X0.325000X-0.450000X0*%
%ADD15RoundRect,0.250000X1.100000X-0.412500X1.100000X0.412500X-1.100000X0.412500X-1.100000X-0.412500X0*%
%ADD16RoundRect,0.102000X1.700000X-0.925000X1.700000X0.925000X-1.700000X0.925000X-1.700000X-0.925000X0*%
%ADD17RoundRect,0.150000X0.150000X-0.825000X0.150000X0.825000X-0.150000X0.825000X-0.150000X-0.825000X0*%
%ADD18R,2.300000X2.300000*%
%ADD19RoundRect,0.237500X0.237500X-0.300000X0.237500X0.300000X-0.237500X0.300000X-0.237500X-0.300000X0*%
%ADD20RoundRect,0.250000X-0.350000X0.350000X-0.350000X-0.350000X0.350000X-0.350000X0.350000X0.350000X0*%
%ADD21C,1.200000*%
%ADD22C,3.500000*%
%ADD23RoundRect,0.237500X0.300000X0.237500X-0.300000X0.237500X-0.300000X-0.237500X0.300000X-0.237500X0*%
%ADD24RoundRect,0.250000X-1.825000X-0.700000X1.825000X-0.700000X1.825000X0.700000X-1.825000X0.700000X0*%
%ADD25RoundRect,0.250000X0.337500X0.475000X-0.337500X0.475000X-0.337500X-0.475000X0.337500X-0.475000X0*%
%ADD26RoundRect,0.250000X0.400000X0.625000X-0.400000X0.625000X-0.400000X-0.625000X0.400000X-0.625000X0*%
%ADD27R,1.000000X1.000000*%
%ADD28R,0.203200X0.863600*%
%ADD29R,0.863600X0.203200*%
%ADD30R,5.750000X5.750000*%
%ADD31RoundRect,0.250000X0.450000X-0.325000X0.450000X0.325000X-0.450000X0.325000X-0.450000X-0.325000X0*%
%ADD32RoundRect,0.237500X-0.250000X-0.237500X0.250000X-0.237500X0.250000X0.237500X-0.250000X0.237500X0*%
%ADD33RoundRect,0.250000X-0.412500X-0.650000X0.412500X-0.650000X0.412500X0.650000X-0.412500X0.650000X0*%
%ADD34RoundRect,0.160000X0.160000X-0.197500X0.160000X0.197500X-0.160000X0.197500X-0.160000X-0.197500X0*%
%ADD35R,3.200400X2.006600*%
%ADD36RoundRect,0.250000X-0.650000X0.412500X-0.650000X-0.412500X0.650000X-0.412500X0.650000X0.412500X0*%
%ADD37RoundRect,0.250000X-0.650000X0.800000X-0.650000X-0.800000X0.650000X-0.800000X0.650000X0.800000X0*%
%ADD38RoundRect,0.155000X-0.212500X-0.155000X0.212500X-0.155000X0.212500X0.155000X-0.212500X0.155000X0*%
%ADD39RoundRect,0.250000X-0.400000X-0.625000X0.400000X-0.625000X0.400000X0.625000X-0.400000X0.625000X0*%
%ADD40RoundRect,0.225000X0.425000X0.225000X-0.425000X0.225000X-0.425000X-0.225000X0.425000X-0.225000X0*%
%ADD41FreePoly0,180.000000*%
%ADD42RoundRect,0.250000X2.000000X-1.400000X2.000000X1.400000X-2.000000X1.400000X-2.000000X-1.400000X0*%
%ADD43RoundRect,0.237500X-0.300000X-0.237500X0.300000X-0.237500X0.300000X0.237500X-0.300000X0.237500X0*%
%ADD44R,1.200000X0.600000*%
%ADD45RoundRect,0.250000X-0.325000X-0.450000X0.325000X-0.450000X0.325000X0.450000X-0.325000X0.450000X0*%
%ADD46RoundRect,0.237500X-0.237500X0.300000X-0.237500X-0.300000X0.237500X-0.300000X0.237500X0.300000X0*%
%ADD47RoundRect,0.250000X-0.625000X0.400000X-0.625000X-0.400000X0.625000X-0.400000X0.625000X0.400000X0*%
%ADD48RoundRect,0.155000X0.155000X-0.212500X0.155000X0.212500X-0.155000X0.212500X-0.155000X-0.212500X0*%
%ADD49C,2.794000*%
%ADD50C,4.572000*%
%ADD51C,2.286000*%
%ADD52RoundRect,0.160000X0.197500X0.160000X-0.197500X0.160000X-0.197500X-0.160000X0.197500X-0.160000X0*%
%ADD53RoundRect,0.250000X0.412500X0.650000X-0.412500X0.650000X-0.412500X-0.650000X0.412500X-0.650000X0*%
%ADD54RoundRect,0.160000X-0.160000X0.197500X-0.160000X-0.197500X0.160000X-0.197500X0.160000X0.197500X0*%
%ADD55RoundRect,0.087500X0.250000X0.087500X-0.250000X0.087500X-0.250000X-0.087500X0.250000X-0.087500X0*%
%ADD56C,3.200000*%
%ADD57RoundRect,0.250000X0.800000X-0.450000X0.800000X0.450000X-0.800000X0.450000X-0.800000X-0.450000X0*%
%ADD58RoundRect,0.150000X-0.150000X0.725000X-0.150000X-0.725000X0.150000X-0.725000X0.150000X0.725000X0*%
%ADD59RoundRect,0.200000X0.200000X-0.250000X0.200000X0.250000X-0.200000X0.250000X-0.200000X-0.250000X0*%
%ADD60RoundRect,0.250001X0.849999X-0.462499X0.849999X0.462499X-0.849999X0.462499X-0.849999X-0.462499X0*%
%ADD61RoundRect,0.125000X0.125000X-0.537500X0.125000X0.537500X-0.125000X0.537500X-0.125000X-0.537500X0*%
%ADD62RoundRect,0.237500X0.237500X-0.287500X0.237500X0.287500X-0.237500X0.287500X-0.237500X-0.287500X0*%
%ADD63RoundRect,0.250000X1.950000X1.000000X-1.950000X1.000000X-1.950000X-1.000000X1.950000X-1.000000X0*%
%ADD64RoundRect,0.250000X-0.650000X1.000000X-0.650000X-1.000000X0.650000X-1.000000X0.650000X1.000000X0*%
%ADD65RoundRect,0.112500X0.237500X-0.112500X0.237500X0.112500X-0.237500X0.112500X-0.237500X-0.112500X0*%
%ADD66RoundRect,0.237500X0.237500X-0.250000X0.237500X0.250000X-0.237500X0.250000X-0.237500X-0.250000X0*%
%ADD67RoundRect,0.200000X-0.200000X2.100000X-0.200000X-2.100000X0.200000X-2.100000X0.200000X2.100000X0*%
%ADD68RoundRect,0.250002X-5.149998X4.449998X-5.149998X-4.449998X5.149998X-4.449998X5.149998X4.449998X0*%
%ADD69RoundRect,0.250000X0.300000X-0.300000X0.300000X0.300000X-0.300000X0.300000X-0.300000X-0.300000X0*%
%ADD70RoundRect,0.250000X-0.337500X-0.475000X0.337500X-0.475000X0.337500X0.475000X-0.337500X0.475000X0*%
%ADD71RoundRect,0.250000X0.475000X-0.337500X0.475000X0.337500X-0.475000X0.337500X-0.475000X-0.337500X0*%
%ADD72RoundRect,0.250000X0.625000X-0.400000X0.625000X0.400000X-0.625000X0.400000X-0.625000X-0.400000X0*%
%ADD73RoundRect,0.155000X-0.155000X0.212500X-0.155000X-0.212500X0.155000X-0.212500X0.155000X0.212500X0*%
%ADD74RoundRect,0.250000X0.300000X0.300000X-0.300000X0.300000X-0.300000X-0.300000X0.300000X-0.300000X0*%
%ADD75R,0.700000X4.300000*%
%ADD76R,0.700000X3.200000*%
%ADD77RoundRect,0.250000X0.650000X-0.412500X0.650000X0.412500X-0.650000X0.412500X-0.650000X-0.412500X0*%
%ADD78RoundRect,0.112500X-0.237500X0.112500X-0.237500X-0.112500X0.237500X-0.112500X0.237500X0.112500X0*%
%ADD79RoundRect,0.250000X-0.550000X1.500000X-0.550000X-1.500000X0.550000X-1.500000X0.550000X1.500000X0*%
%ADD80RoundRect,0.160000X-0.197500X-0.160000X0.197500X-0.160000X0.197500X0.160000X-0.197500X0.160000X0*%
G04 APERTURE END LIST*
D10*
G04 #@! TO.C,R25*
X129250000Y-122000000D03*
X127425000Y-122000000D03*
G04 #@! TD*
D11*
G04 #@! TO.C,U15*
X65488000Y-57736000D03*
X65488000Y-58244000D03*
X65488000Y-58752000D03*
X65488000Y-59260000D03*
X65488000Y-59768000D03*
X65488000Y-60276000D03*
X65488000Y-60784000D03*
X67012000Y-60784000D03*
X67012000Y-60276000D03*
X67012000Y-59768000D03*
X67012000Y-59260000D03*
X67012000Y-58752000D03*
X67012000Y-58244000D03*
X67012000Y-57736000D03*
G04 #@! TD*
D12*
G04 #@! TO.C,R12*
X53257776Y-115787498D03*
X53257776Y-117612498D03*
G04 #@! TD*
D13*
G04 #@! TO.C,C39*
X72177500Y-102823335D03*
X71042500Y-102823335D03*
G04 #@! TD*
D10*
G04 #@! TO.C,R1*
X91087500Y-129210000D03*
X89262500Y-129210000D03*
G04 #@! TD*
D14*
G04 #@! TO.C,FB2*
X62152776Y-117099999D03*
X60102776Y-117099999D03*
G04 #@! TD*
D15*
G04 #@! TO.C,C54*
X125200000Y-90062500D03*
X125200000Y-86937500D03*
G04 #@! TD*
D16*
G04 #@! TO.C,L2*
X118500000Y-102337500D03*
X118500000Y-96787500D03*
G04 #@! TD*
D17*
G04 #@! TO.C,U11*
X76205000Y-50975000D03*
D18*
X78110000Y-48500000D03*
D17*
X77475000Y-50975000D03*
X78745000Y-50975000D03*
X80015000Y-50975000D03*
X80015000Y-46025000D03*
X78745000Y-46025000D03*
X77475000Y-46025000D03*
X76205000Y-46025000D03*
G04 #@! TD*
D11*
G04 #@! TO.C,U12*
X65412000Y-127726000D03*
X65412000Y-128234000D03*
X65412000Y-128742000D03*
X65412000Y-129250000D03*
X65412000Y-129758000D03*
X65412000Y-130266000D03*
X65412000Y-130774000D03*
X66936000Y-130774000D03*
X66936000Y-130266000D03*
X66936000Y-129758000D03*
X66936000Y-129250000D03*
X66936000Y-128742000D03*
X66936000Y-128234000D03*
X66936000Y-127726000D03*
G04 #@! TD*
D19*
G04 #@! TO.C,C63*
X142350000Y-47862500D03*
X142350000Y-46137500D03*
G04 #@! TD*
D14*
G04 #@! TO.C,FB1*
X98405000Y-98770000D03*
X96355000Y-98770000D03*
G04 #@! TD*
D20*
G04 #@! TO.C,J5*
X58177776Y-52499999D03*
D21*
X58177776Y-54999999D03*
X58177776Y-56999999D03*
X58177776Y-59499999D03*
X59677776Y-59999999D03*
X59677776Y-57999999D03*
X59677776Y-55999999D03*
X59677776Y-53999999D03*
X59677776Y-51999999D03*
D22*
X56177776Y-49429999D03*
X56177776Y-62569999D03*
G04 #@! TD*
D14*
G04 #@! TO.C,D13*
X139275000Y-43400000D03*
X137225000Y-43400000D03*
G04 #@! TD*
D10*
G04 #@! TO.C,R34*
X87522500Y-41750000D03*
X85697500Y-41750000D03*
G04 #@! TD*
D13*
G04 #@! TO.C,C41*
X72147500Y-79326665D03*
X71012500Y-79326665D03*
G04 #@! TD*
D23*
G04 #@! TO.C,C75*
X78197500Y-53125000D03*
X76472500Y-53125000D03*
G04 #@! TD*
D12*
G04 #@! TO.C,R13*
X53117776Y-92290831D03*
X53117776Y-94115831D03*
G04 #@! TD*
D24*
G04 #@! TO.C,C65*
X65300000Y-120800000D03*
X72250000Y-120800000D03*
G04 #@! TD*
D25*
G04 #@! TO.C,C70*
X62137500Y-68400000D03*
X60062500Y-68400000D03*
G04 #@! TD*
D26*
G04 #@! TO.C,R17*
X138350000Y-74800000D03*
X135250000Y-74800000D03*
G04 #@! TD*
D27*
G04 #@! TO.C,TP2*
X84800000Y-112400000D03*
G04 #@! TD*
D23*
G04 #@! TO.C,C66*
X105660000Y-53050000D03*
X103935000Y-53050000D03*
G04 #@! TD*
D28*
G04 #@! TO.C,U1*
X87024901Y-110275099D03*
X87424901Y-110275099D03*
X87824900Y-110275099D03*
X88224899Y-110275099D03*
X88624901Y-110275099D03*
X89024900Y-110275099D03*
X89424899Y-110275099D03*
X89824901Y-110275099D03*
X90224900Y-110275099D03*
X90624899Y-110275099D03*
X91024901Y-110275099D03*
X91424900Y-110275099D03*
X91824899Y-110275099D03*
X92224899Y-110275099D03*
X92624900Y-110275099D03*
X93024899Y-110275099D03*
X93424899Y-110275099D03*
D29*
X94200000Y-109499998D03*
X94200000Y-109099998D03*
X94200000Y-108699999D03*
X94200000Y-108299998D03*
X94200000Y-107899998D03*
X94200000Y-107499999D03*
X94200000Y-107100000D03*
X94200000Y-106699998D03*
X94200000Y-106299999D03*
X94200000Y-105900000D03*
X94200000Y-105499998D03*
X94200000Y-105099999D03*
X94200000Y-104700000D03*
X94200000Y-104300000D03*
X94200000Y-103899999D03*
X94200000Y-103500000D03*
X94200000Y-103100000D03*
D28*
X93424899Y-102324899D03*
X93024899Y-102324899D03*
X92624900Y-102324899D03*
X92224899Y-102324899D03*
X91824899Y-102324899D03*
X91424900Y-102324899D03*
X91024901Y-102324899D03*
X90624899Y-102324899D03*
X90224900Y-102324899D03*
X89824901Y-102324899D03*
X89424899Y-102324899D03*
X89024900Y-102324899D03*
X88624901Y-102324899D03*
X88224901Y-102324899D03*
X87824900Y-102324899D03*
X87424901Y-102324899D03*
X87024901Y-102324899D03*
D29*
X86249800Y-103100000D03*
X86249800Y-103500000D03*
X86249800Y-103899999D03*
X86249800Y-104300000D03*
X86249800Y-104700000D03*
X86249800Y-105099999D03*
X86249800Y-105499998D03*
X86249800Y-105900000D03*
X86249800Y-106299999D03*
X86249800Y-106699998D03*
X86249800Y-107100000D03*
X86249800Y-107499999D03*
X86249800Y-107899998D03*
X86249800Y-108299998D03*
X86249800Y-108699999D03*
X86249800Y-109099998D03*
X86249800Y-109499998D03*
D30*
X90224900Y-106299999D03*
G04 #@! TD*
D31*
G04 #@! TO.C,D12*
X131650000Y-92075000D03*
X131650000Y-90025000D03*
G04 #@! TD*
D32*
G04 #@! TO.C,R38*
X141037500Y-43400000D03*
X142862500Y-43400000D03*
G04 #@! TD*
D33*
G04 #@! TO.C,C49*
X119587500Y-53500000D03*
X122712500Y-53500000D03*
G04 #@! TD*
D34*
G04 #@! TO.C,R20*
X125500000Y-102697500D03*
X125500000Y-101502500D03*
G04 #@! TD*
D35*
G04 #@! TO.C,L1*
X127800000Y-51998900D03*
X127800000Y-44201100D03*
G04 #@! TD*
D36*
G04 #@! TO.C,C45*
X124900000Y-61337500D03*
X124900000Y-64462500D03*
G04 #@! TD*
D12*
G04 #@! TO.C,R37*
X129800000Y-91950000D03*
X129800000Y-93775000D03*
G04 #@! TD*
D37*
G04 #@! TO.C,X1*
X101810000Y-98900000D03*
X101810000Y-101800000D03*
X104110000Y-101800000D03*
X104110000Y-98900000D03*
G04 #@! TD*
D38*
G04 #@! TO.C,C42*
X71011000Y-80296665D03*
X72146000Y-80296665D03*
G04 #@! TD*
D39*
G04 #@! TO.C,R26*
X137300000Y-45700000D03*
X140400000Y-45700000D03*
G04 #@! TD*
D14*
G04 #@! TO.C,D10*
X78070000Y-43625000D03*
X76020000Y-43625000D03*
G04 #@! TD*
D12*
G04 #@! TO.C,R27*
X107360000Y-41837500D03*
X107360000Y-43662500D03*
G04 #@! TD*
D40*
G04 #@! TO.C,U7*
X140600000Y-51100000D03*
D41*
X140512500Y-49600000D03*
D40*
X140600000Y-48100000D03*
G04 #@! TD*
D42*
G04 #@! TO.C,D2*
X126200000Y-56900000D03*
X135000000Y-56900000D03*
G04 #@! TD*
D43*
G04 #@! TO.C,C50*
X144337500Y-75200000D03*
X146062500Y-75200000D03*
G04 #@! TD*
D44*
G04 #@! TO.C,Q4*
X124200000Y-79905000D03*
X124200000Y-78635000D03*
X124200000Y-77365000D03*
X124200000Y-76095000D03*
X118600000Y-76095000D03*
X118600000Y-77365000D03*
X118600000Y-78635000D03*
X118600000Y-79905000D03*
G04 #@! TD*
D45*
G04 #@! TO.C,D14*
X128012500Y-114700000D03*
X130062500Y-114700000D03*
G04 #@! TD*
D46*
G04 #@! TO.C,C62*
X142350000Y-49537500D03*
X142350000Y-51262500D03*
G04 #@! TD*
D32*
G04 #@! TO.C,R18*
X127387500Y-75300000D03*
X129212500Y-75300000D03*
G04 #@! TD*
D11*
G04 #@! TO.C,U13*
X65408000Y-104256000D03*
X65408000Y-104764000D03*
X65408000Y-105272000D03*
X65408000Y-105780000D03*
X65408000Y-106288000D03*
X65408000Y-106796000D03*
X65408000Y-107304000D03*
X66932000Y-107304000D03*
X66932000Y-106796000D03*
X66932000Y-106288000D03*
X66932000Y-105780000D03*
X66932000Y-105272000D03*
X66932000Y-104764000D03*
X66932000Y-104256000D03*
G04 #@! TD*
D47*
G04 #@! TO.C,R11*
X115000000Y-130700000D03*
X115000000Y-133800000D03*
G04 #@! TD*
D10*
G04 #@! TO.C,R35*
X78157500Y-41825000D03*
X76332500Y-41825000D03*
G04 #@! TD*
D23*
G04 #@! TO.C,C36*
X90662500Y-132420000D03*
X88937500Y-132420000D03*
G04 #@! TD*
D48*
G04 #@! TO.C,C30*
X100040000Y-99447500D03*
X100040000Y-98312500D03*
G04 #@! TD*
D49*
G04 #@! TO.C,U6*
X138421900Y-102126600D03*
D50*
X146041900Y-97046600D03*
X146041900Y-86886600D03*
D49*
X138421900Y-81806600D03*
D51*
X135881900Y-99586600D03*
X135881900Y-94506600D03*
X135881900Y-89426600D03*
X135881900Y-84346600D03*
G04 #@! TD*
D52*
G04 #@! TO.C,R19*
X127797500Y-101462500D03*
X126602500Y-101462500D03*
G04 #@! TD*
D10*
G04 #@! TO.C,R2*
X98282500Y-117130000D03*
X96457500Y-117130000D03*
G04 #@! TD*
D27*
G04 #@! TO.C,TP3*
X85700000Y-130900000D03*
G04 #@! TD*
D12*
G04 #@! TO.C,R29*
X89220000Y-41987500D03*
X89220000Y-43812500D03*
G04 #@! TD*
G04 #@! TO.C,R14*
X53227776Y-69004165D03*
X53227776Y-70829165D03*
G04 #@! TD*
D43*
G04 #@! TO.C,C61*
X123375000Y-114600000D03*
X125100000Y-114600000D03*
G04 #@! TD*
D14*
G04 #@! TO.C,FB3*
X62152776Y-93800000D03*
X60102776Y-93800000D03*
G04 #@! TD*
D12*
G04 #@! TO.C,R15*
X53147776Y-45757499D03*
X53147776Y-47582499D03*
G04 #@! TD*
D53*
G04 #@! TO.C,C35*
X90800000Y-134400000D03*
X87675000Y-134400000D03*
G04 #@! TD*
D10*
G04 #@! TO.C,R23*
X129212500Y-80000000D03*
X127387500Y-80000000D03*
G04 #@! TD*
D47*
G04 #@! TO.C,R10*
X117280000Y-130740000D03*
X117280000Y-133840000D03*
G04 #@! TD*
D54*
G04 #@! TO.C,R8*
X94810000Y-99802500D03*
X94810000Y-100997500D03*
G04 #@! TD*
D20*
G04 #@! TO.C,J4*
X58177776Y-75766665D03*
D21*
X58177776Y-78266665D03*
X58177776Y-80266665D03*
X58177776Y-82766665D03*
X59677776Y-83266665D03*
X59677776Y-81266665D03*
X59677776Y-79266665D03*
X59677776Y-77266665D03*
X59677776Y-75266665D03*
D22*
X56177776Y-72696665D03*
X56177776Y-85836665D03*
G04 #@! TD*
D32*
G04 #@! TO.C,R36*
X119725000Y-123450000D03*
X121550000Y-123450000D03*
G04 #@! TD*
D38*
G04 #@! TO.C,C52*
X124382500Y-103700000D03*
X125517500Y-103700000D03*
G04 #@! TD*
D23*
G04 #@! TO.C,C59*
X129700000Y-118100000D03*
X127975000Y-118100000D03*
G04 #@! TD*
D43*
G04 #@! TO.C,C28*
X96507500Y-118690000D03*
X98232500Y-118690000D03*
G04 #@! TD*
D14*
G04 #@! TO.C,FB4*
X62152776Y-70600000D03*
X60102776Y-70600000D03*
G04 #@! TD*
D38*
G04 #@! TO.C,C40*
X71042500Y-103800000D03*
X72177500Y-103800000D03*
G04 #@! TD*
D55*
G04 #@! TO.C,U5*
X127650000Y-120500000D03*
X127650000Y-120000000D03*
X127650000Y-119500000D03*
X126225000Y-119500000D03*
X126225000Y-120000000D03*
X126225000Y-120500000D03*
G04 #@! TD*
D23*
G04 #@! TO.C,C69*
X96702500Y-53100000D03*
X94977500Y-53100000D03*
G04 #@! TD*
D56*
G04 #@! TO.C,H2*
X56025000Y-140525000D03*
G04 #@! TD*
D17*
G04 #@! TO.C,U2*
X106570000Y-116887500D03*
X107840000Y-116887500D03*
X109110000Y-116887500D03*
X110380000Y-116887500D03*
D18*
X108475000Y-114412500D03*
D17*
X110380000Y-111937500D03*
X109110000Y-111937500D03*
X107840000Y-111937500D03*
X106570000Y-111937500D03*
G04 #@! TD*
D56*
G04 #@! TO.C,H1*
X56025000Y-42150000D03*
G04 #@! TD*
D27*
G04 #@! TO.C,TP1*
X94600000Y-113300000D03*
G04 #@! TD*
D10*
G04 #@! TO.C,R32*
X96802500Y-41750000D03*
X94977500Y-41750000D03*
G04 #@! TD*
D57*
G04 #@! TO.C,D3*
X134300000Y-48500000D03*
X134300000Y-44100000D03*
G04 #@! TD*
D12*
G04 #@! TO.C,R28*
X98390000Y-42037500D03*
X98390000Y-43862500D03*
G04 #@! TD*
D25*
G04 #@! TO.C,C67*
X62237500Y-91600000D03*
X60162500Y-91600000D03*
G04 #@! TD*
D58*
G04 #@! TO.C,Q5*
X118905000Y-88987500D03*
X117635000Y-88987500D03*
X116365000Y-88987500D03*
X115095000Y-88987500D03*
X115095000Y-94137500D03*
X116365000Y-94137500D03*
X117635000Y-94137500D03*
X118905000Y-94137500D03*
G04 #@! TD*
D19*
G04 #@! TO.C,C57*
X124300000Y-95725000D03*
X124300000Y-94000000D03*
G04 #@! TD*
D36*
G04 #@! TO.C,C46*
X127600000Y-61337500D03*
X127600000Y-64462500D03*
G04 #@! TD*
D38*
G04 #@! TO.C,C31*
X103542500Y-103740000D03*
X104677500Y-103740000D03*
G04 #@! TD*
D32*
G04 #@! TO.C,R40*
X126287500Y-69700000D03*
X128112500Y-69700000D03*
G04 #@! TD*
D59*
G04 #@! TO.C,D1*
X96600000Y-115490000D03*
X98500000Y-115490000D03*
X97550000Y-113090000D03*
G04 #@! TD*
D60*
G04 #@! TO.C,L3*
X123637500Y-118762500D03*
X123637500Y-116437500D03*
G04 #@! TD*
D24*
G04 #@! TO.C,C68*
X65500000Y-97200000D03*
X72450000Y-97200000D03*
G04 #@! TD*
D61*
G04 #@! TO.C,U4*
X125325000Y-99900000D03*
X125975000Y-99900000D03*
X126625000Y-99900000D03*
X127275000Y-99900000D03*
X127275000Y-97625000D03*
X126625000Y-97625000D03*
X125975000Y-97625000D03*
X125325000Y-97625000D03*
G04 #@! TD*
D62*
G04 #@! TO.C,F1*
X142600000Y-77675000D03*
X142600000Y-75925000D03*
G04 #@! TD*
D31*
G04 #@! TO.C,D11*
X119937500Y-121675000D03*
X119937500Y-119625000D03*
G04 #@! TD*
D27*
G04 #@! TO.C,TP5*
X144250000Y-47837500D03*
G04 #@! TD*
D19*
G04 #@! TO.C,C33*
X110930000Y-133910000D03*
X110930000Y-132185000D03*
G04 #@! TD*
D14*
G04 #@! TO.C,D8*
X105595000Y-43450000D03*
X103545000Y-43450000D03*
G04 #@! TD*
D52*
G04 #@! TO.C,R9*
X102327500Y-103710000D03*
X101132500Y-103710000D03*
G04 #@! TD*
D48*
G04 #@! TO.C,C26*
X89146443Y-117861152D03*
X89146443Y-116726152D03*
G04 #@! TD*
D15*
G04 #@! TO.C,C55*
X128500000Y-90062500D03*
X128500000Y-86937500D03*
G04 #@! TD*
D63*
G04 #@! TO.C,C48*
X120500000Y-47200000D03*
X113100000Y-47200000D03*
G04 #@! TD*
D25*
G04 #@! TO.C,C71*
X61967500Y-45000000D03*
X59892500Y-45000000D03*
G04 #@! TD*
D27*
G04 #@! TO.C,TP7*
X120137500Y-112350000D03*
G04 #@! TD*
D64*
G04 #@! TO.C,D6*
X121700000Y-89862500D03*
X121700000Y-93862500D03*
G04 #@! TD*
D65*
G04 #@! TO.C,Q2*
X129300000Y-78350000D03*
X129300000Y-77050000D03*
X127300000Y-77700000D03*
G04 #@! TD*
D66*
G04 #@! TO.C,R4*
X109400000Y-109900000D03*
X109400000Y-108075000D03*
G04 #@! TD*
D20*
G04 #@! TO.C,J2*
X58177776Y-122499999D03*
D21*
X58177776Y-124999999D03*
X58177776Y-126999999D03*
X58177776Y-129499999D03*
X59677776Y-129999999D03*
X59677776Y-127999999D03*
X59677776Y-125999999D03*
X59677776Y-123999999D03*
X59677776Y-121999999D03*
D22*
X56177776Y-119429999D03*
X56177776Y-132569999D03*
G04 #@! TD*
D38*
G04 #@! TO.C,C44*
X71012500Y-57000000D03*
X72147500Y-57000000D03*
G04 #@! TD*
D66*
G04 #@! TO.C,R5*
X107650000Y-120850000D03*
X107650000Y-119025000D03*
G04 #@! TD*
D17*
G04 #@! TO.C,U9*
X94710000Y-50900000D03*
D18*
X96615000Y-48425000D03*
D17*
X95980000Y-50900000D03*
X97250000Y-50900000D03*
X98520000Y-50900000D03*
X98520000Y-45950000D03*
X97250000Y-45950000D03*
X95980000Y-45950000D03*
X94710000Y-45950000D03*
G04 #@! TD*
D67*
G04 #@! TO.C,U3*
X121540000Y-57825000D03*
X120270000Y-57825000D03*
X119000000Y-57825000D03*
X117730000Y-57825000D03*
X116460000Y-57825000D03*
X115190000Y-57825000D03*
X113920000Y-57825000D03*
D68*
X117730000Y-66975000D03*
G04 #@! TD*
D45*
G04 #@! TO.C,D15*
X125975000Y-67900000D03*
X128025000Y-67900000D03*
G04 #@! TD*
D23*
G04 #@! TO.C,C58*
X129700000Y-116600000D03*
X127975000Y-116600000D03*
G04 #@! TD*
D69*
G04 #@! TO.C,D5*
X140500000Y-77600000D03*
X140500000Y-74800000D03*
G04 #@! TD*
D17*
G04 #@! TO.C,U8*
X103730000Y-50850000D03*
D18*
X105635000Y-48375000D03*
D17*
X105000000Y-50850000D03*
X106270000Y-50850000D03*
X107540000Y-50850000D03*
X107540000Y-45900000D03*
X106270000Y-45900000D03*
X105000000Y-45900000D03*
X103730000Y-45900000D03*
G04 #@! TD*
D38*
G04 #@! TO.C,C24*
X95992500Y-102390000D03*
X97127500Y-102390000D03*
G04 #@! TD*
D48*
G04 #@! TO.C,C29*
X105250000Y-112567500D03*
X105250000Y-111432500D03*
G04 #@! TD*
D66*
G04 #@! TO.C,R24*
X129237500Y-125412500D03*
X129237500Y-123587500D03*
G04 #@! TD*
D24*
G04 #@! TO.C,C72*
X65300000Y-73800000D03*
X72250000Y-73800000D03*
G04 #@! TD*
D66*
G04 #@! TO.C,R6*
X110250000Y-120850000D03*
X110250000Y-119025000D03*
G04 #@! TD*
D24*
G04 #@! TO.C,C73*
X65300000Y-50600000D03*
X72250000Y-50600000D03*
G04 #@! TD*
D70*
G04 #@! TO.C,C32*
X96302500Y-100880000D03*
X98377500Y-100880000D03*
G04 #@! TD*
D66*
G04 #@! TO.C,R3*
X105100000Y-120050000D03*
X105100000Y-118225000D03*
G04 #@! TD*
D12*
G04 #@! TO.C,R30*
X79835000Y-42062500D03*
X79835000Y-43887500D03*
G04 #@! TD*
D71*
G04 #@! TO.C,C34*
X112740000Y-133855000D03*
X112740000Y-131780000D03*
G04 #@! TD*
D17*
G04 #@! TO.C,U10*
X85640000Y-50950000D03*
D18*
X87545000Y-48475000D03*
D17*
X86910000Y-50950000D03*
X88180000Y-50950000D03*
X89450000Y-50950000D03*
X89450000Y-46000000D03*
X88180000Y-46000000D03*
X86910000Y-46000000D03*
X85640000Y-46000000D03*
G04 #@! TD*
D72*
G04 #@! TO.C,R31*
X120037500Y-117700000D03*
X120037500Y-114600000D03*
G04 #@! TD*
D56*
G04 #@! TO.C,H4*
X145250000Y-132450000D03*
G04 #@! TD*
D73*
G04 #@! TO.C,C27*
X90106443Y-116726152D03*
X90106443Y-117861152D03*
G04 #@! TD*
D32*
G04 #@! TO.C,R39*
X127987500Y-112850000D03*
X129812500Y-112850000D03*
G04 #@! TD*
D74*
G04 #@! TO.C,D4*
X138200000Y-77400000D03*
X135400000Y-77400000D03*
G04 #@! TD*
D25*
G04 #@! TO.C,C64*
X62137500Y-115000000D03*
X60062500Y-115000000D03*
G04 #@! TD*
D48*
G04 #@! TO.C,C53*
X124500000Y-102667500D03*
X124500000Y-101532500D03*
G04 #@! TD*
D14*
G04 #@! TO.C,D9*
X87435000Y-43550000D03*
X85385000Y-43550000D03*
G04 #@! TD*
D13*
G04 #@! TO.C,C37*
X72147500Y-126199999D03*
X71012500Y-126199999D03*
G04 #@! TD*
D75*
G04 #@! TO.C,J1*
X97100000Y-146300000D03*
X98100000Y-146300000D03*
X99100000Y-146300000D03*
X100100000Y-146300000D03*
X101100000Y-146300000D03*
X102100000Y-146300000D03*
X103100000Y-146300000D03*
X104100000Y-146300000D03*
X105100000Y-146300000D03*
X106100000Y-146300000D03*
X107100000Y-146300000D03*
X110100000Y-146300000D03*
X111100000Y-146300000D03*
X112100000Y-146300000D03*
X113100000Y-146300000D03*
X114100000Y-146300000D03*
D76*
X115100000Y-145750000D03*
D75*
X116100000Y-146300000D03*
G04 #@! TD*
D66*
G04 #@! TO.C,R22*
X125800000Y-95775000D03*
X125800000Y-93950000D03*
G04 #@! TD*
D10*
G04 #@! TO.C,R33*
X105682500Y-41637500D03*
X103857500Y-41637500D03*
G04 #@! TD*
D77*
G04 #@! TO.C,C56*
X127800000Y-95625000D03*
X127800000Y-92500000D03*
G04 #@! TD*
D13*
G04 #@! TO.C,C43*
X72147500Y-56000000D03*
X71012500Y-56000000D03*
G04 #@! TD*
D19*
G04 #@! TO.C,C60*
X130837500Y-125362500D03*
X130837500Y-123637500D03*
G04 #@! TD*
D78*
G04 #@! TO.C,Q1*
X131200000Y-75250000D03*
X131200000Y-76550000D03*
X133200000Y-75900000D03*
G04 #@! TD*
D11*
G04 #@! TO.C,U14*
X65412000Y-81044000D03*
X65412000Y-81552000D03*
X65412000Y-82060000D03*
X65412000Y-82568000D03*
X65412000Y-83076000D03*
X65412000Y-83584000D03*
X65412000Y-84092000D03*
X66936000Y-84092000D03*
X66936000Y-83584000D03*
X66936000Y-83076000D03*
X66936000Y-82568000D03*
X66936000Y-82060000D03*
X66936000Y-81552000D03*
X66936000Y-81044000D03*
G04 #@! TD*
D27*
G04 #@! TO.C,TP6*
X117750000Y-117700000D03*
G04 #@! TD*
D23*
G04 #@! TO.C,C74*
X87632500Y-53050000D03*
X85907500Y-53050000D03*
G04 #@! TD*
D33*
G04 #@! TO.C,C51*
X144500000Y-77300000D03*
X147625000Y-77300000D03*
G04 #@! TD*
D56*
G04 #@! TO.C,H3*
X145225000Y-65950000D03*
G04 #@! TD*
D38*
G04 #@! TO.C,C38*
X71012500Y-127199999D03*
X72147500Y-127199999D03*
G04 #@! TD*
D79*
G04 #@! TO.C,C47*
X132800000Y-62500000D03*
X132800000Y-68100000D03*
G04 #@! TD*
D12*
G04 #@! TO.C,R7*
X111000000Y-108075000D03*
X111000000Y-109900000D03*
G04 #@! TD*
D13*
G04 #@! TO.C,C16*
X97127500Y-103380000D03*
X95992500Y-103380000D03*
G04 #@! TD*
D20*
G04 #@! TO.C,J3*
X58177776Y-99033332D03*
D21*
X58177776Y-101533332D03*
X58177776Y-103533332D03*
X58177776Y-106033332D03*
X59677776Y-106533332D03*
X59677776Y-104533332D03*
X59677776Y-102533332D03*
X59677776Y-100533332D03*
X59677776Y-98533332D03*
D22*
X56177776Y-95963332D03*
X56177776Y-109103332D03*
G04 #@! TD*
D80*
G04 #@! TO.C,R21*
X126602500Y-102462500D03*
X127797500Y-102462500D03*
G04 #@! TD*
D32*
G04 #@! TO.C,R16*
X131187500Y-78300000D03*
X133012500Y-78300000D03*
G04 #@! TD*
D14*
G04 #@! TO.C,FB5*
X61952776Y-47200000D03*
X59902776Y-47200000D03*
G04 #@! TD*
D27*
G04 #@! TO.C,TP4*
X137250000Y-41237500D03*
G04 #@! TD*
D14*
G04 #@! TO.C,D7*
X96615000Y-43550000D03*
X94565000Y-43550000D03*
G04 #@! TD*
M02*
