G04 #@! TF.GenerationSoftware,KiCad,Pcbnew,10.0.3*
G04 #@! TF.CreationDate,2026-08-22T15:59:49-05:00*
G04 #@! TF.ProjectId,USB_PCIE_Board,5553425f-5043-4494-955f-426f6172642e,0.1*
G04 #@! TF.SameCoordinates,Original*
G04 #@! TF.FileFunction,Legend,Bot*
G04 #@! TF.FilePolarity,Positive*
%FSLAX46Y46*%
G04 Gerber Fmt 4.6, Leading zero omitted, Abs format (unit mm)*
G04 Created by KiCad (PCBNEW 10.0.3) date 2026-08-22 15:59:49*
%MOMM*%
%LPD*%
G01*
G04 APERTURE LIST*
G04 Aperture macros list*
%AMRoundRect*
0 Rectangle with rounded corners*
0 $1 Rounding radius*
0 $2 $3 $4 $5 $6 $7 $8 $9 X,Y pos of 4 corners*
0 Add a 4 corners polygon primitive as box body*
4,1,4,$2,$3,$4,$5,$6,$7,$8,$9,$2,$3,0*
0 Add four circle primitives for the rounded corners*
1,1,$1+$1,$2,$3*
1,1,$1+$1,$4,$5*
1,1,$1+$1,$6,$7*
1,1,$1+$1,$8,$9*
0 Add four rect primitives between the rounded corners*
20,1,$1+$1,$2,$3,$4,$5,0*
20,1,$1+$1,$4,$5,$6,$7,0*
20,1,$1+$1,$6,$7,$8,$9,0*
20,1,$1+$1,$8,$9,$2,$3,0*%
G04 Aperture macros list end*
%ADD10C,0.150000*%
%ADD11C,0.508000*%
%ADD12C,0.120000*%
%ADD13R,5.750000X5.750000*%
%ADD14RoundRect,0.250000X-0.350000X0.350000X-0.350000X-0.350000X0.350000X-0.350000X0.350000X0.350000X0*%
%ADD15C,1.200000*%
%ADD16C,3.500000*%
%ADD17R,1.000000X1.000000*%
%ADD18C,2.794000*%
%ADD19C,4.572000*%
%ADD20C,2.286000*%
%ADD21C,3.200000*%
%ADD22R,0.700000X3.200000*%
%ADD23R,0.700000X4.300000*%
%ADD24RoundRect,0.155000X0.212500X0.155000X-0.212500X0.155000X-0.212500X-0.155000X0.212500X-0.155000X0*%
%ADD25RoundRect,0.155000X0.155000X-0.212500X0.155000X0.212500X-0.155000X0.212500X-0.155000X-0.212500X0*%
%ADD26RoundRect,0.155000X-0.155000X0.212500X-0.155000X-0.212500X0.155000X-0.212500X0.155000X0.212500X0*%
%ADD27RoundRect,0.155000X-0.212500X-0.155000X0.212500X-0.155000X0.212500X0.155000X-0.212500X0.155000X0*%
G04 APERTURE END LIST*
D10*
X84516666Y-107009580D02*
X84564285Y-107057200D01*
X84564285Y-107057200D02*
X84707142Y-107104819D01*
X84707142Y-107104819D02*
X84802380Y-107104819D01*
X84802380Y-107104819D02*
X84945237Y-107057200D01*
X84945237Y-107057200D02*
X85040475Y-106961961D01*
X85040475Y-106961961D02*
X85088094Y-106866723D01*
X85088094Y-106866723D02*
X85135713Y-106676247D01*
X85135713Y-106676247D02*
X85135713Y-106533390D01*
X85135713Y-106533390D02*
X85088094Y-106342914D01*
X85088094Y-106342914D02*
X85040475Y-106247676D01*
X85040475Y-106247676D02*
X84945237Y-106152438D01*
X84945237Y-106152438D02*
X84802380Y-106104819D01*
X84802380Y-106104819D02*
X84707142Y-106104819D01*
X84707142Y-106104819D02*
X84564285Y-106152438D01*
X84564285Y-106152438D02*
X84516666Y-106200057D01*
X83945237Y-106533390D02*
X84040475Y-106485771D01*
X84040475Y-106485771D02*
X84088094Y-106438152D01*
X84088094Y-106438152D02*
X84135713Y-106342914D01*
X84135713Y-106342914D02*
X84135713Y-106295295D01*
X84135713Y-106295295D02*
X84088094Y-106200057D01*
X84088094Y-106200057D02*
X84040475Y-106152438D01*
X84040475Y-106152438D02*
X83945237Y-106104819D01*
X83945237Y-106104819D02*
X83754761Y-106104819D01*
X83754761Y-106104819D02*
X83659523Y-106152438D01*
X83659523Y-106152438D02*
X83611904Y-106200057D01*
X83611904Y-106200057D02*
X83564285Y-106295295D01*
X83564285Y-106295295D02*
X83564285Y-106342914D01*
X83564285Y-106342914D02*
X83611904Y-106438152D01*
X83611904Y-106438152D02*
X83659523Y-106485771D01*
X83659523Y-106485771D02*
X83754761Y-106533390D01*
X83754761Y-106533390D02*
X83945237Y-106533390D01*
X83945237Y-106533390D02*
X84040475Y-106581009D01*
X84040475Y-106581009D02*
X84088094Y-106628628D01*
X84088094Y-106628628D02*
X84135713Y-106723866D01*
X84135713Y-106723866D02*
X84135713Y-106914342D01*
X84135713Y-106914342D02*
X84088094Y-107009580D01*
X84088094Y-107009580D02*
X84040475Y-107057200D01*
X84040475Y-107057200D02*
X83945237Y-107104819D01*
X83945237Y-107104819D02*
X83754761Y-107104819D01*
X83754761Y-107104819D02*
X83659523Y-107057200D01*
X83659523Y-107057200D02*
X83611904Y-107009580D01*
X83611904Y-107009580D02*
X83564285Y-106914342D01*
X83564285Y-106914342D02*
X83564285Y-106723866D01*
X83564285Y-106723866D02*
X83611904Y-106628628D01*
X83611904Y-106628628D02*
X83659523Y-106581009D01*
X83659523Y-106581009D02*
X83754761Y-106533390D01*
X93084580Y-98307142D02*
X93132200Y-98259523D01*
X93132200Y-98259523D02*
X93179819Y-98116666D01*
X93179819Y-98116666D02*
X93179819Y-98021428D01*
X93179819Y-98021428D02*
X93132200Y-97878571D01*
X93132200Y-97878571D02*
X93036961Y-97783333D01*
X93036961Y-97783333D02*
X92941723Y-97735714D01*
X92941723Y-97735714D02*
X92751247Y-97688095D01*
X92751247Y-97688095D02*
X92608390Y-97688095D01*
X92608390Y-97688095D02*
X92417914Y-97735714D01*
X92417914Y-97735714D02*
X92322676Y-97783333D01*
X92322676Y-97783333D02*
X92227438Y-97878571D01*
X92227438Y-97878571D02*
X92179819Y-98021428D01*
X92179819Y-98021428D02*
X92179819Y-98116666D01*
X92179819Y-98116666D02*
X92227438Y-98259523D01*
X92227438Y-98259523D02*
X92275057Y-98307142D01*
X93179819Y-99259523D02*
X93179819Y-98688095D01*
X93179819Y-98973809D02*
X92179819Y-98973809D01*
X92179819Y-98973809D02*
X92322676Y-98878571D01*
X92322676Y-98878571D02*
X92417914Y-98783333D01*
X92417914Y-98783333D02*
X92465533Y-98688095D01*
X92179819Y-99592857D02*
X92179819Y-100211904D01*
X92179819Y-100211904D02*
X92560771Y-99878571D01*
X92560771Y-99878571D02*
X92560771Y-100021428D01*
X92560771Y-100021428D02*
X92608390Y-100116666D01*
X92608390Y-100116666D02*
X92656009Y-100164285D01*
X92656009Y-100164285D02*
X92751247Y-100211904D01*
X92751247Y-100211904D02*
X92989342Y-100211904D01*
X92989342Y-100211904D02*
X93084580Y-100164285D01*
X93084580Y-100164285D02*
X93132200Y-100116666D01*
X93132200Y-100116666D02*
X93179819Y-100021428D01*
X93179819Y-100021428D02*
X93179819Y-99735714D01*
X93179819Y-99735714D02*
X93132200Y-99640476D01*
X93132200Y-99640476D02*
X93084580Y-99592857D01*
X93509580Y-111908333D02*
X93557200Y-111860714D01*
X93557200Y-111860714D02*
X93604819Y-111717857D01*
X93604819Y-111717857D02*
X93604819Y-111622619D01*
X93604819Y-111622619D02*
X93557200Y-111479762D01*
X93557200Y-111479762D02*
X93461961Y-111384524D01*
X93461961Y-111384524D02*
X93366723Y-111336905D01*
X93366723Y-111336905D02*
X93176247Y-111289286D01*
X93176247Y-111289286D02*
X93033390Y-111289286D01*
X93033390Y-111289286D02*
X92842914Y-111336905D01*
X92842914Y-111336905D02*
X92747676Y-111384524D01*
X92747676Y-111384524D02*
X92652438Y-111479762D01*
X92652438Y-111479762D02*
X92604819Y-111622619D01*
X92604819Y-111622619D02*
X92604819Y-111717857D01*
X92604819Y-111717857D02*
X92652438Y-111860714D01*
X92652438Y-111860714D02*
X92700057Y-111908333D01*
X92700057Y-112289286D02*
X92652438Y-112336905D01*
X92652438Y-112336905D02*
X92604819Y-112432143D01*
X92604819Y-112432143D02*
X92604819Y-112670238D01*
X92604819Y-112670238D02*
X92652438Y-112765476D01*
X92652438Y-112765476D02*
X92700057Y-112813095D01*
X92700057Y-112813095D02*
X92795295Y-112860714D01*
X92795295Y-112860714D02*
X92890533Y-112860714D01*
X92890533Y-112860714D02*
X93033390Y-112813095D01*
X93033390Y-112813095D02*
X93604819Y-112241667D01*
X93604819Y-112241667D02*
X93604819Y-112860714D01*
X84491666Y-109384580D02*
X84539285Y-109432200D01*
X84539285Y-109432200D02*
X84682142Y-109479819D01*
X84682142Y-109479819D02*
X84777380Y-109479819D01*
X84777380Y-109479819D02*
X84920237Y-109432200D01*
X84920237Y-109432200D02*
X85015475Y-109336961D01*
X85015475Y-109336961D02*
X85063094Y-109241723D01*
X85063094Y-109241723D02*
X85110713Y-109051247D01*
X85110713Y-109051247D02*
X85110713Y-108908390D01*
X85110713Y-108908390D02*
X85063094Y-108717914D01*
X85063094Y-108717914D02*
X85015475Y-108622676D01*
X85015475Y-108622676D02*
X84920237Y-108527438D01*
X84920237Y-108527438D02*
X84777380Y-108479819D01*
X84777380Y-108479819D02*
X84682142Y-108479819D01*
X84682142Y-108479819D02*
X84539285Y-108527438D01*
X84539285Y-108527438D02*
X84491666Y-108575057D01*
X84158332Y-108479819D02*
X83539285Y-108479819D01*
X83539285Y-108479819D02*
X83872618Y-108860771D01*
X83872618Y-108860771D02*
X83729761Y-108860771D01*
X83729761Y-108860771D02*
X83634523Y-108908390D01*
X83634523Y-108908390D02*
X83586904Y-108956009D01*
X83586904Y-108956009D02*
X83539285Y-109051247D01*
X83539285Y-109051247D02*
X83539285Y-109289342D01*
X83539285Y-109289342D02*
X83586904Y-109384580D01*
X83586904Y-109384580D02*
X83634523Y-109432200D01*
X83634523Y-109432200D02*
X83729761Y-109479819D01*
X83729761Y-109479819D02*
X84015475Y-109479819D01*
X84015475Y-109479819D02*
X84110713Y-109432200D01*
X84110713Y-109432200D02*
X84158332Y-109384580D01*
X98092857Y-104939580D02*
X98140476Y-104987200D01*
X98140476Y-104987200D02*
X98283333Y-105034819D01*
X98283333Y-105034819D02*
X98378571Y-105034819D01*
X98378571Y-105034819D02*
X98521428Y-104987200D01*
X98521428Y-104987200D02*
X98616666Y-104891961D01*
X98616666Y-104891961D02*
X98664285Y-104796723D01*
X98664285Y-104796723D02*
X98711904Y-104606247D01*
X98711904Y-104606247D02*
X98711904Y-104463390D01*
X98711904Y-104463390D02*
X98664285Y-104272914D01*
X98664285Y-104272914D02*
X98616666Y-104177676D01*
X98616666Y-104177676D02*
X98521428Y-104082438D01*
X98521428Y-104082438D02*
X98378571Y-104034819D01*
X98378571Y-104034819D02*
X98283333Y-104034819D01*
X98283333Y-104034819D02*
X98140476Y-104082438D01*
X98140476Y-104082438D02*
X98092857Y-104130057D01*
X97140476Y-105034819D02*
X97711904Y-105034819D01*
X97426190Y-105034819D02*
X97426190Y-104034819D01*
X97426190Y-104034819D02*
X97521428Y-104177676D01*
X97521428Y-104177676D02*
X97616666Y-104272914D01*
X97616666Y-104272914D02*
X97711904Y-104320533D01*
X96569047Y-104463390D02*
X96664285Y-104415771D01*
X96664285Y-104415771D02*
X96711904Y-104368152D01*
X96711904Y-104368152D02*
X96759523Y-104272914D01*
X96759523Y-104272914D02*
X96759523Y-104225295D01*
X96759523Y-104225295D02*
X96711904Y-104130057D01*
X96711904Y-104130057D02*
X96664285Y-104082438D01*
X96664285Y-104082438D02*
X96569047Y-104034819D01*
X96569047Y-104034819D02*
X96378571Y-104034819D01*
X96378571Y-104034819D02*
X96283333Y-104082438D01*
X96283333Y-104082438D02*
X96235714Y-104130057D01*
X96235714Y-104130057D02*
X96188095Y-104225295D01*
X96188095Y-104225295D02*
X96188095Y-104272914D01*
X96188095Y-104272914D02*
X96235714Y-104368152D01*
X96235714Y-104368152D02*
X96283333Y-104415771D01*
X96283333Y-104415771D02*
X96378571Y-104463390D01*
X96378571Y-104463390D02*
X96569047Y-104463390D01*
X96569047Y-104463390D02*
X96664285Y-104511009D01*
X96664285Y-104511009D02*
X96711904Y-104558628D01*
X96711904Y-104558628D02*
X96759523Y-104653866D01*
X96759523Y-104653866D02*
X96759523Y-104844342D01*
X96759523Y-104844342D02*
X96711904Y-104939580D01*
X96711904Y-104939580D02*
X96664285Y-104987200D01*
X96664285Y-104987200D02*
X96569047Y-105034819D01*
X96569047Y-105034819D02*
X96378571Y-105034819D01*
X96378571Y-105034819D02*
X96283333Y-104987200D01*
X96283333Y-104987200D02*
X96235714Y-104939580D01*
X96235714Y-104939580D02*
X96188095Y-104844342D01*
X96188095Y-104844342D02*
X96188095Y-104653866D01*
X96188095Y-104653866D02*
X96235714Y-104558628D01*
X96235714Y-104558628D02*
X96283333Y-104511009D01*
X96283333Y-104511009D02*
X96378571Y-104463390D01*
X90659580Y-98333333D02*
X90707200Y-98285714D01*
X90707200Y-98285714D02*
X90754819Y-98142857D01*
X90754819Y-98142857D02*
X90754819Y-98047619D01*
X90754819Y-98047619D02*
X90707200Y-97904762D01*
X90707200Y-97904762D02*
X90611961Y-97809524D01*
X90611961Y-97809524D02*
X90516723Y-97761905D01*
X90516723Y-97761905D02*
X90326247Y-97714286D01*
X90326247Y-97714286D02*
X90183390Y-97714286D01*
X90183390Y-97714286D02*
X89992914Y-97761905D01*
X89992914Y-97761905D02*
X89897676Y-97809524D01*
X89897676Y-97809524D02*
X89802438Y-97904762D01*
X89802438Y-97904762D02*
X89754819Y-98047619D01*
X89754819Y-98047619D02*
X89754819Y-98142857D01*
X89754819Y-98142857D02*
X89802438Y-98285714D01*
X89802438Y-98285714D02*
X89850057Y-98333333D01*
X90754819Y-98809524D02*
X90754819Y-99000000D01*
X90754819Y-99000000D02*
X90707200Y-99095238D01*
X90707200Y-99095238D02*
X90659580Y-99142857D01*
X90659580Y-99142857D02*
X90516723Y-99238095D01*
X90516723Y-99238095D02*
X90326247Y-99285714D01*
X90326247Y-99285714D02*
X89945295Y-99285714D01*
X89945295Y-99285714D02*
X89850057Y-99238095D01*
X89850057Y-99238095D02*
X89802438Y-99190476D01*
X89802438Y-99190476D02*
X89754819Y-99095238D01*
X89754819Y-99095238D02*
X89754819Y-98904762D01*
X89754819Y-98904762D02*
X89802438Y-98809524D01*
X89802438Y-98809524D02*
X89850057Y-98761905D01*
X89850057Y-98761905D02*
X89945295Y-98714286D01*
X89945295Y-98714286D02*
X90183390Y-98714286D01*
X90183390Y-98714286D02*
X90278628Y-98761905D01*
X90278628Y-98761905D02*
X90326247Y-98809524D01*
X90326247Y-98809524D02*
X90373866Y-98904762D01*
X90373866Y-98904762D02*
X90373866Y-99095238D01*
X90373866Y-99095238D02*
X90326247Y-99190476D01*
X90326247Y-99190476D02*
X90278628Y-99238095D01*
X90278628Y-99238095D02*
X90183390Y-99285714D01*
X87484580Y-111882142D02*
X87532200Y-111834523D01*
X87532200Y-111834523D02*
X87579819Y-111691666D01*
X87579819Y-111691666D02*
X87579819Y-111596428D01*
X87579819Y-111596428D02*
X87532200Y-111453571D01*
X87532200Y-111453571D02*
X87436961Y-111358333D01*
X87436961Y-111358333D02*
X87341723Y-111310714D01*
X87341723Y-111310714D02*
X87151247Y-111263095D01*
X87151247Y-111263095D02*
X87008390Y-111263095D01*
X87008390Y-111263095D02*
X86817914Y-111310714D01*
X86817914Y-111310714D02*
X86722676Y-111358333D01*
X86722676Y-111358333D02*
X86627438Y-111453571D01*
X86627438Y-111453571D02*
X86579819Y-111596428D01*
X86579819Y-111596428D02*
X86579819Y-111691666D01*
X86579819Y-111691666D02*
X86627438Y-111834523D01*
X86627438Y-111834523D02*
X86675057Y-111882142D01*
X87579819Y-112834523D02*
X87579819Y-112263095D01*
X87579819Y-112548809D02*
X86579819Y-112548809D01*
X86579819Y-112548809D02*
X86722676Y-112453571D01*
X86722676Y-112453571D02*
X86817914Y-112358333D01*
X86817914Y-112358333D02*
X86865533Y-112263095D01*
X86579819Y-113167857D02*
X86579819Y-113834523D01*
X86579819Y-113834523D02*
X87579819Y-113405952D01*
X91884580Y-98333333D02*
X91932200Y-98285714D01*
X91932200Y-98285714D02*
X91979819Y-98142857D01*
X91979819Y-98142857D02*
X91979819Y-98047619D01*
X91979819Y-98047619D02*
X91932200Y-97904762D01*
X91932200Y-97904762D02*
X91836961Y-97809524D01*
X91836961Y-97809524D02*
X91741723Y-97761905D01*
X91741723Y-97761905D02*
X91551247Y-97714286D01*
X91551247Y-97714286D02*
X91408390Y-97714286D01*
X91408390Y-97714286D02*
X91217914Y-97761905D01*
X91217914Y-97761905D02*
X91122676Y-97809524D01*
X91122676Y-97809524D02*
X91027438Y-97904762D01*
X91027438Y-97904762D02*
X90979819Y-98047619D01*
X90979819Y-98047619D02*
X90979819Y-98142857D01*
X90979819Y-98142857D02*
X91027438Y-98285714D01*
X91027438Y-98285714D02*
X91075057Y-98333333D01*
X90979819Y-99238095D02*
X90979819Y-98761905D01*
X90979819Y-98761905D02*
X91456009Y-98714286D01*
X91456009Y-98714286D02*
X91408390Y-98761905D01*
X91408390Y-98761905D02*
X91360771Y-98857143D01*
X91360771Y-98857143D02*
X91360771Y-99095238D01*
X91360771Y-99095238D02*
X91408390Y-99190476D01*
X91408390Y-99190476D02*
X91456009Y-99238095D01*
X91456009Y-99238095D02*
X91551247Y-99285714D01*
X91551247Y-99285714D02*
X91789342Y-99285714D01*
X91789342Y-99285714D02*
X91884580Y-99238095D01*
X91884580Y-99238095D02*
X91932200Y-99190476D01*
X91932200Y-99190476D02*
X91979819Y-99095238D01*
X91979819Y-99095238D02*
X91979819Y-98857143D01*
X91979819Y-98857143D02*
X91932200Y-98761905D01*
X91932200Y-98761905D02*
X91884580Y-98714286D01*
X91084580Y-111907142D02*
X91132200Y-111859523D01*
X91132200Y-111859523D02*
X91179819Y-111716666D01*
X91179819Y-111716666D02*
X91179819Y-111621428D01*
X91179819Y-111621428D02*
X91132200Y-111478571D01*
X91132200Y-111478571D02*
X91036961Y-111383333D01*
X91036961Y-111383333D02*
X90941723Y-111335714D01*
X90941723Y-111335714D02*
X90751247Y-111288095D01*
X90751247Y-111288095D02*
X90608390Y-111288095D01*
X90608390Y-111288095D02*
X90417914Y-111335714D01*
X90417914Y-111335714D02*
X90322676Y-111383333D01*
X90322676Y-111383333D02*
X90227438Y-111478571D01*
X90227438Y-111478571D02*
X90179819Y-111621428D01*
X90179819Y-111621428D02*
X90179819Y-111716666D01*
X90179819Y-111716666D02*
X90227438Y-111859523D01*
X90227438Y-111859523D02*
X90275057Y-111907142D01*
X91179819Y-112859523D02*
X91179819Y-112288095D01*
X91179819Y-112573809D02*
X90179819Y-112573809D01*
X90179819Y-112573809D02*
X90322676Y-112478571D01*
X90322676Y-112478571D02*
X90417914Y-112383333D01*
X90417914Y-112383333D02*
X90465533Y-112288095D01*
X90275057Y-113240476D02*
X90227438Y-113288095D01*
X90227438Y-113288095D02*
X90179819Y-113383333D01*
X90179819Y-113383333D02*
X90179819Y-113621428D01*
X90179819Y-113621428D02*
X90227438Y-113716666D01*
X90227438Y-113716666D02*
X90275057Y-113764285D01*
X90275057Y-113764285D02*
X90370295Y-113811904D01*
X90370295Y-113811904D02*
X90465533Y-113811904D01*
X90465533Y-113811904D02*
X90608390Y-113764285D01*
X90608390Y-113764285D02*
X91179819Y-113192857D01*
X91179819Y-113192857D02*
X91179819Y-113811904D01*
X85834580Y-98307142D02*
X85882200Y-98259523D01*
X85882200Y-98259523D02*
X85929819Y-98116666D01*
X85929819Y-98116666D02*
X85929819Y-98021428D01*
X85929819Y-98021428D02*
X85882200Y-97878571D01*
X85882200Y-97878571D02*
X85786961Y-97783333D01*
X85786961Y-97783333D02*
X85691723Y-97735714D01*
X85691723Y-97735714D02*
X85501247Y-97688095D01*
X85501247Y-97688095D02*
X85358390Y-97688095D01*
X85358390Y-97688095D02*
X85167914Y-97735714D01*
X85167914Y-97735714D02*
X85072676Y-97783333D01*
X85072676Y-97783333D02*
X84977438Y-97878571D01*
X84977438Y-97878571D02*
X84929819Y-98021428D01*
X84929819Y-98021428D02*
X84929819Y-98116666D01*
X84929819Y-98116666D02*
X84977438Y-98259523D01*
X84977438Y-98259523D02*
X85025057Y-98307142D01*
X85025057Y-98688095D02*
X84977438Y-98735714D01*
X84977438Y-98735714D02*
X84929819Y-98830952D01*
X84929819Y-98830952D02*
X84929819Y-99069047D01*
X84929819Y-99069047D02*
X84977438Y-99164285D01*
X84977438Y-99164285D02*
X85025057Y-99211904D01*
X85025057Y-99211904D02*
X85120295Y-99259523D01*
X85120295Y-99259523D02*
X85215533Y-99259523D01*
X85215533Y-99259523D02*
X85358390Y-99211904D01*
X85358390Y-99211904D02*
X85929819Y-98640476D01*
X85929819Y-98640476D02*
X85929819Y-99259523D01*
X85025057Y-99640476D02*
X84977438Y-99688095D01*
X84977438Y-99688095D02*
X84929819Y-99783333D01*
X84929819Y-99783333D02*
X84929819Y-100021428D01*
X84929819Y-100021428D02*
X84977438Y-100116666D01*
X84977438Y-100116666D02*
X85025057Y-100164285D01*
X85025057Y-100164285D02*
X85120295Y-100211904D01*
X85120295Y-100211904D02*
X85215533Y-100211904D01*
X85215533Y-100211904D02*
X85358390Y-100164285D01*
X85358390Y-100164285D02*
X85929819Y-99592857D01*
X85929819Y-99592857D02*
X85929819Y-100211904D01*
X87034580Y-98307142D02*
X87082200Y-98259523D01*
X87082200Y-98259523D02*
X87129819Y-98116666D01*
X87129819Y-98116666D02*
X87129819Y-98021428D01*
X87129819Y-98021428D02*
X87082200Y-97878571D01*
X87082200Y-97878571D02*
X86986961Y-97783333D01*
X86986961Y-97783333D02*
X86891723Y-97735714D01*
X86891723Y-97735714D02*
X86701247Y-97688095D01*
X86701247Y-97688095D02*
X86558390Y-97688095D01*
X86558390Y-97688095D02*
X86367914Y-97735714D01*
X86367914Y-97735714D02*
X86272676Y-97783333D01*
X86272676Y-97783333D02*
X86177438Y-97878571D01*
X86177438Y-97878571D02*
X86129819Y-98021428D01*
X86129819Y-98021428D02*
X86129819Y-98116666D01*
X86129819Y-98116666D02*
X86177438Y-98259523D01*
X86177438Y-98259523D02*
X86225057Y-98307142D01*
X87129819Y-99259523D02*
X87129819Y-98688095D01*
X87129819Y-98973809D02*
X86129819Y-98973809D01*
X86129819Y-98973809D02*
X86272676Y-98878571D01*
X86272676Y-98878571D02*
X86367914Y-98783333D01*
X86367914Y-98783333D02*
X86415533Y-98688095D01*
X87129819Y-99735714D02*
X87129819Y-99926190D01*
X87129819Y-99926190D02*
X87082200Y-100021428D01*
X87082200Y-100021428D02*
X87034580Y-100069047D01*
X87034580Y-100069047D02*
X86891723Y-100164285D01*
X86891723Y-100164285D02*
X86701247Y-100211904D01*
X86701247Y-100211904D02*
X86320295Y-100211904D01*
X86320295Y-100211904D02*
X86225057Y-100164285D01*
X86225057Y-100164285D02*
X86177438Y-100116666D01*
X86177438Y-100116666D02*
X86129819Y-100021428D01*
X86129819Y-100021428D02*
X86129819Y-99830952D01*
X86129819Y-99830952D02*
X86177438Y-99735714D01*
X86177438Y-99735714D02*
X86225057Y-99688095D01*
X86225057Y-99688095D02*
X86320295Y-99640476D01*
X86320295Y-99640476D02*
X86558390Y-99640476D01*
X86558390Y-99640476D02*
X86653628Y-99688095D01*
X86653628Y-99688095D02*
X86701247Y-99735714D01*
X86701247Y-99735714D02*
X86748866Y-99830952D01*
X86748866Y-99830952D02*
X86748866Y-100021428D01*
X86748866Y-100021428D02*
X86701247Y-100116666D01*
X86701247Y-100116666D02*
X86653628Y-100164285D01*
X86653628Y-100164285D02*
X86558390Y-100211904D01*
X98005357Y-107439580D02*
X98052976Y-107487200D01*
X98052976Y-107487200D02*
X98195833Y-107534819D01*
X98195833Y-107534819D02*
X98291071Y-107534819D01*
X98291071Y-107534819D02*
X98433928Y-107487200D01*
X98433928Y-107487200D02*
X98529166Y-107391961D01*
X98529166Y-107391961D02*
X98576785Y-107296723D01*
X98576785Y-107296723D02*
X98624404Y-107106247D01*
X98624404Y-107106247D02*
X98624404Y-106963390D01*
X98624404Y-106963390D02*
X98576785Y-106772914D01*
X98576785Y-106772914D02*
X98529166Y-106677676D01*
X98529166Y-106677676D02*
X98433928Y-106582438D01*
X98433928Y-106582438D02*
X98291071Y-106534819D01*
X98291071Y-106534819D02*
X98195833Y-106534819D01*
X98195833Y-106534819D02*
X98052976Y-106582438D01*
X98052976Y-106582438D02*
X98005357Y-106630057D01*
X97052976Y-107534819D02*
X97624404Y-107534819D01*
X97338690Y-107534819D02*
X97338690Y-106534819D01*
X97338690Y-106534819D02*
X97433928Y-106677676D01*
X97433928Y-106677676D02*
X97529166Y-106772914D01*
X97529166Y-106772914D02*
X97624404Y-106820533D01*
X96100595Y-107534819D02*
X96672023Y-107534819D01*
X96386309Y-107534819D02*
X96386309Y-106534819D01*
X96386309Y-106534819D02*
X96481547Y-106677676D01*
X96481547Y-106677676D02*
X96576785Y-106772914D01*
X96576785Y-106772914D02*
X96672023Y-106820533D01*
X84517857Y-108209580D02*
X84565476Y-108257200D01*
X84565476Y-108257200D02*
X84708333Y-108304819D01*
X84708333Y-108304819D02*
X84803571Y-108304819D01*
X84803571Y-108304819D02*
X84946428Y-108257200D01*
X84946428Y-108257200D02*
X85041666Y-108161961D01*
X85041666Y-108161961D02*
X85089285Y-108066723D01*
X85089285Y-108066723D02*
X85136904Y-107876247D01*
X85136904Y-107876247D02*
X85136904Y-107733390D01*
X85136904Y-107733390D02*
X85089285Y-107542914D01*
X85089285Y-107542914D02*
X85041666Y-107447676D01*
X85041666Y-107447676D02*
X84946428Y-107352438D01*
X84946428Y-107352438D02*
X84803571Y-107304819D01*
X84803571Y-107304819D02*
X84708333Y-107304819D01*
X84708333Y-107304819D02*
X84565476Y-107352438D01*
X84565476Y-107352438D02*
X84517857Y-107400057D01*
X83565476Y-108304819D02*
X84136904Y-108304819D01*
X83851190Y-108304819D02*
X83851190Y-107304819D01*
X83851190Y-107304819D02*
X83946428Y-107447676D01*
X83946428Y-107447676D02*
X84041666Y-107542914D01*
X84041666Y-107542914D02*
X84136904Y-107590533D01*
X82708333Y-107638152D02*
X82708333Y-108304819D01*
X82946428Y-107257200D02*
X83184523Y-107971485D01*
X83184523Y-107971485D02*
X82565476Y-107971485D01*
X84666666Y-110759580D02*
X84714285Y-110807200D01*
X84714285Y-110807200D02*
X84857142Y-110854819D01*
X84857142Y-110854819D02*
X84952380Y-110854819D01*
X84952380Y-110854819D02*
X85095237Y-110807200D01*
X85095237Y-110807200D02*
X85190475Y-110711961D01*
X85190475Y-110711961D02*
X85238094Y-110616723D01*
X85238094Y-110616723D02*
X85285713Y-110426247D01*
X85285713Y-110426247D02*
X85285713Y-110283390D01*
X85285713Y-110283390D02*
X85238094Y-110092914D01*
X85238094Y-110092914D02*
X85190475Y-109997676D01*
X85190475Y-109997676D02*
X85095237Y-109902438D01*
X85095237Y-109902438D02*
X84952380Y-109854819D01*
X84952380Y-109854819D02*
X84857142Y-109854819D01*
X84857142Y-109854819D02*
X84714285Y-109902438D01*
X84714285Y-109902438D02*
X84666666Y-109950057D01*
X83714285Y-110854819D02*
X84285713Y-110854819D01*
X83999999Y-110854819D02*
X83999999Y-109854819D01*
X83999999Y-109854819D02*
X84095237Y-109997676D01*
X84095237Y-109997676D02*
X84190475Y-110092914D01*
X84190475Y-110092914D02*
X84285713Y-110140533D01*
X88234580Y-98333333D02*
X88282200Y-98285714D01*
X88282200Y-98285714D02*
X88329819Y-98142857D01*
X88329819Y-98142857D02*
X88329819Y-98047619D01*
X88329819Y-98047619D02*
X88282200Y-97904762D01*
X88282200Y-97904762D02*
X88186961Y-97809524D01*
X88186961Y-97809524D02*
X88091723Y-97761905D01*
X88091723Y-97761905D02*
X87901247Y-97714286D01*
X87901247Y-97714286D02*
X87758390Y-97714286D01*
X87758390Y-97714286D02*
X87567914Y-97761905D01*
X87567914Y-97761905D02*
X87472676Y-97809524D01*
X87472676Y-97809524D02*
X87377438Y-97904762D01*
X87377438Y-97904762D02*
X87329819Y-98047619D01*
X87329819Y-98047619D02*
X87329819Y-98142857D01*
X87329819Y-98142857D02*
X87377438Y-98285714D01*
X87377438Y-98285714D02*
X87425057Y-98333333D01*
X87329819Y-99190476D02*
X87329819Y-99000000D01*
X87329819Y-99000000D02*
X87377438Y-98904762D01*
X87377438Y-98904762D02*
X87425057Y-98857143D01*
X87425057Y-98857143D02*
X87567914Y-98761905D01*
X87567914Y-98761905D02*
X87758390Y-98714286D01*
X87758390Y-98714286D02*
X88139342Y-98714286D01*
X88139342Y-98714286D02*
X88234580Y-98761905D01*
X88234580Y-98761905D02*
X88282200Y-98809524D01*
X88282200Y-98809524D02*
X88329819Y-98904762D01*
X88329819Y-98904762D02*
X88329819Y-99095238D01*
X88329819Y-99095238D02*
X88282200Y-99190476D01*
X88282200Y-99190476D02*
X88234580Y-99238095D01*
X88234580Y-99238095D02*
X88139342Y-99285714D01*
X88139342Y-99285714D02*
X87901247Y-99285714D01*
X87901247Y-99285714D02*
X87806009Y-99238095D01*
X87806009Y-99238095D02*
X87758390Y-99190476D01*
X87758390Y-99190476D02*
X87710771Y-99095238D01*
X87710771Y-99095238D02*
X87710771Y-98904762D01*
X87710771Y-98904762D02*
X87758390Y-98809524D01*
X87758390Y-98809524D02*
X87806009Y-98761905D01*
X87806009Y-98761905D02*
X87901247Y-98714286D01*
X88709580Y-111882142D02*
X88757200Y-111834523D01*
X88757200Y-111834523D02*
X88804819Y-111691666D01*
X88804819Y-111691666D02*
X88804819Y-111596428D01*
X88804819Y-111596428D02*
X88757200Y-111453571D01*
X88757200Y-111453571D02*
X88661961Y-111358333D01*
X88661961Y-111358333D02*
X88566723Y-111310714D01*
X88566723Y-111310714D02*
X88376247Y-111263095D01*
X88376247Y-111263095D02*
X88233390Y-111263095D01*
X88233390Y-111263095D02*
X88042914Y-111310714D01*
X88042914Y-111310714D02*
X87947676Y-111358333D01*
X87947676Y-111358333D02*
X87852438Y-111453571D01*
X87852438Y-111453571D02*
X87804819Y-111596428D01*
X87804819Y-111596428D02*
X87804819Y-111691666D01*
X87804819Y-111691666D02*
X87852438Y-111834523D01*
X87852438Y-111834523D02*
X87900057Y-111882142D01*
X87900057Y-112263095D02*
X87852438Y-112310714D01*
X87852438Y-112310714D02*
X87804819Y-112405952D01*
X87804819Y-112405952D02*
X87804819Y-112644047D01*
X87804819Y-112644047D02*
X87852438Y-112739285D01*
X87852438Y-112739285D02*
X87900057Y-112786904D01*
X87900057Y-112786904D02*
X87995295Y-112834523D01*
X87995295Y-112834523D02*
X88090533Y-112834523D01*
X88090533Y-112834523D02*
X88233390Y-112786904D01*
X88233390Y-112786904D02*
X88804819Y-112215476D01*
X88804819Y-112215476D02*
X88804819Y-112834523D01*
X87804819Y-113739285D02*
X87804819Y-113263095D01*
X87804819Y-113263095D02*
X88281009Y-113215476D01*
X88281009Y-113215476D02*
X88233390Y-113263095D01*
X88233390Y-113263095D02*
X88185771Y-113358333D01*
X88185771Y-113358333D02*
X88185771Y-113596428D01*
X88185771Y-113596428D02*
X88233390Y-113691666D01*
X88233390Y-113691666D02*
X88281009Y-113739285D01*
X88281009Y-113739285D02*
X88376247Y-113786904D01*
X88376247Y-113786904D02*
X88614342Y-113786904D01*
X88614342Y-113786904D02*
X88709580Y-113739285D01*
X88709580Y-113739285D02*
X88757200Y-113691666D01*
X88757200Y-113691666D02*
X88804819Y-113596428D01*
X88804819Y-113596428D02*
X88804819Y-113358333D01*
X88804819Y-113358333D02*
X88757200Y-113263095D01*
X88757200Y-113263095D02*
X88709580Y-113215476D01*
X89434580Y-98332142D02*
X89482200Y-98284523D01*
X89482200Y-98284523D02*
X89529819Y-98141666D01*
X89529819Y-98141666D02*
X89529819Y-98046428D01*
X89529819Y-98046428D02*
X89482200Y-97903571D01*
X89482200Y-97903571D02*
X89386961Y-97808333D01*
X89386961Y-97808333D02*
X89291723Y-97760714D01*
X89291723Y-97760714D02*
X89101247Y-97713095D01*
X89101247Y-97713095D02*
X88958390Y-97713095D01*
X88958390Y-97713095D02*
X88767914Y-97760714D01*
X88767914Y-97760714D02*
X88672676Y-97808333D01*
X88672676Y-97808333D02*
X88577438Y-97903571D01*
X88577438Y-97903571D02*
X88529819Y-98046428D01*
X88529819Y-98046428D02*
X88529819Y-98141666D01*
X88529819Y-98141666D02*
X88577438Y-98284523D01*
X88577438Y-98284523D02*
X88625057Y-98332142D01*
X89529819Y-99284523D02*
X89529819Y-98713095D01*
X89529819Y-98998809D02*
X88529819Y-98998809D01*
X88529819Y-98998809D02*
X88672676Y-98903571D01*
X88672676Y-98903571D02*
X88767914Y-98808333D01*
X88767914Y-98808333D02*
X88815533Y-98713095D01*
X88529819Y-99903571D02*
X88529819Y-99998809D01*
X88529819Y-99998809D02*
X88577438Y-100094047D01*
X88577438Y-100094047D02*
X88625057Y-100141666D01*
X88625057Y-100141666D02*
X88720295Y-100189285D01*
X88720295Y-100189285D02*
X88910771Y-100236904D01*
X88910771Y-100236904D02*
X89148866Y-100236904D01*
X89148866Y-100236904D02*
X89339342Y-100189285D01*
X89339342Y-100189285D02*
X89434580Y-100141666D01*
X89434580Y-100141666D02*
X89482200Y-100094047D01*
X89482200Y-100094047D02*
X89529819Y-99998809D01*
X89529819Y-99998809D02*
X89529819Y-99903571D01*
X89529819Y-99903571D02*
X89482200Y-99808333D01*
X89482200Y-99808333D02*
X89434580Y-99760714D01*
X89434580Y-99760714D02*
X89339342Y-99713095D01*
X89339342Y-99713095D02*
X89148866Y-99665476D01*
X89148866Y-99665476D02*
X88910771Y-99665476D01*
X88910771Y-99665476D02*
X88720295Y-99713095D01*
X88720295Y-99713095D02*
X88625057Y-99760714D01*
X88625057Y-99760714D02*
X88577438Y-99808333D01*
X88577438Y-99808333D02*
X88529819Y-99903571D01*
X94309580Y-98307142D02*
X94357200Y-98259523D01*
X94357200Y-98259523D02*
X94404819Y-98116666D01*
X94404819Y-98116666D02*
X94404819Y-98021428D01*
X94404819Y-98021428D02*
X94357200Y-97878571D01*
X94357200Y-97878571D02*
X94261961Y-97783333D01*
X94261961Y-97783333D02*
X94166723Y-97735714D01*
X94166723Y-97735714D02*
X93976247Y-97688095D01*
X93976247Y-97688095D02*
X93833390Y-97688095D01*
X93833390Y-97688095D02*
X93642914Y-97735714D01*
X93642914Y-97735714D02*
X93547676Y-97783333D01*
X93547676Y-97783333D02*
X93452438Y-97878571D01*
X93452438Y-97878571D02*
X93404819Y-98021428D01*
X93404819Y-98021428D02*
X93404819Y-98116666D01*
X93404819Y-98116666D02*
X93452438Y-98259523D01*
X93452438Y-98259523D02*
X93500057Y-98307142D01*
X93500057Y-98688095D02*
X93452438Y-98735714D01*
X93452438Y-98735714D02*
X93404819Y-98830952D01*
X93404819Y-98830952D02*
X93404819Y-99069047D01*
X93404819Y-99069047D02*
X93452438Y-99164285D01*
X93452438Y-99164285D02*
X93500057Y-99211904D01*
X93500057Y-99211904D02*
X93595295Y-99259523D01*
X93595295Y-99259523D02*
X93690533Y-99259523D01*
X93690533Y-99259523D02*
X93833390Y-99211904D01*
X93833390Y-99211904D02*
X94404819Y-98640476D01*
X94404819Y-98640476D02*
X94404819Y-99259523D01*
X93404819Y-99592857D02*
X93404819Y-100211904D01*
X93404819Y-100211904D02*
X93785771Y-99878571D01*
X93785771Y-99878571D02*
X93785771Y-100021428D01*
X93785771Y-100021428D02*
X93833390Y-100116666D01*
X93833390Y-100116666D02*
X93881009Y-100164285D01*
X93881009Y-100164285D02*
X93976247Y-100211904D01*
X93976247Y-100211904D02*
X94214342Y-100211904D01*
X94214342Y-100211904D02*
X94309580Y-100164285D01*
X94309580Y-100164285D02*
X94357200Y-100116666D01*
X94357200Y-100116666D02*
X94404819Y-100021428D01*
X94404819Y-100021428D02*
X94404819Y-99735714D01*
X94404819Y-99735714D02*
X94357200Y-99640476D01*
X94357200Y-99640476D02*
X94309580Y-99592857D01*
X98055357Y-106199580D02*
X98102976Y-106247200D01*
X98102976Y-106247200D02*
X98245833Y-106294819D01*
X98245833Y-106294819D02*
X98341071Y-106294819D01*
X98341071Y-106294819D02*
X98483928Y-106247200D01*
X98483928Y-106247200D02*
X98579166Y-106151961D01*
X98579166Y-106151961D02*
X98626785Y-106056723D01*
X98626785Y-106056723D02*
X98674404Y-105866247D01*
X98674404Y-105866247D02*
X98674404Y-105723390D01*
X98674404Y-105723390D02*
X98626785Y-105532914D01*
X98626785Y-105532914D02*
X98579166Y-105437676D01*
X98579166Y-105437676D02*
X98483928Y-105342438D01*
X98483928Y-105342438D02*
X98341071Y-105294819D01*
X98341071Y-105294819D02*
X98245833Y-105294819D01*
X98245833Y-105294819D02*
X98102976Y-105342438D01*
X98102976Y-105342438D02*
X98055357Y-105390057D01*
X97674404Y-105390057D02*
X97626785Y-105342438D01*
X97626785Y-105342438D02*
X97531547Y-105294819D01*
X97531547Y-105294819D02*
X97293452Y-105294819D01*
X97293452Y-105294819D02*
X97198214Y-105342438D01*
X97198214Y-105342438D02*
X97150595Y-105390057D01*
X97150595Y-105390057D02*
X97102976Y-105485295D01*
X97102976Y-105485295D02*
X97102976Y-105580533D01*
X97102976Y-105580533D02*
X97150595Y-105723390D01*
X97150595Y-105723390D02*
X97722023Y-106294819D01*
X97722023Y-106294819D02*
X97102976Y-106294819D01*
X96150595Y-106294819D02*
X96722023Y-106294819D01*
X96436309Y-106294819D02*
X96436309Y-105294819D01*
X96436309Y-105294819D02*
X96531547Y-105437676D01*
X96531547Y-105437676D02*
X96626785Y-105532914D01*
X96626785Y-105532914D02*
X96722023Y-105580533D01*
X84542857Y-104534580D02*
X84590476Y-104582200D01*
X84590476Y-104582200D02*
X84733333Y-104629819D01*
X84733333Y-104629819D02*
X84828571Y-104629819D01*
X84828571Y-104629819D02*
X84971428Y-104582200D01*
X84971428Y-104582200D02*
X85066666Y-104486961D01*
X85066666Y-104486961D02*
X85114285Y-104391723D01*
X85114285Y-104391723D02*
X85161904Y-104201247D01*
X85161904Y-104201247D02*
X85161904Y-104058390D01*
X85161904Y-104058390D02*
X85114285Y-103867914D01*
X85114285Y-103867914D02*
X85066666Y-103772676D01*
X85066666Y-103772676D02*
X84971428Y-103677438D01*
X84971428Y-103677438D02*
X84828571Y-103629819D01*
X84828571Y-103629819D02*
X84733333Y-103629819D01*
X84733333Y-103629819D02*
X84590476Y-103677438D01*
X84590476Y-103677438D02*
X84542857Y-103725057D01*
X83590476Y-104629819D02*
X84161904Y-104629819D01*
X83876190Y-104629819D02*
X83876190Y-103629819D01*
X83876190Y-103629819D02*
X83971428Y-103772676D01*
X83971428Y-103772676D02*
X84066666Y-103867914D01*
X84066666Y-103867914D02*
X84161904Y-103915533D01*
X82685714Y-103629819D02*
X83161904Y-103629819D01*
X83161904Y-103629819D02*
X83209523Y-104106009D01*
X83209523Y-104106009D02*
X83161904Y-104058390D01*
X83161904Y-104058390D02*
X83066666Y-104010771D01*
X83066666Y-104010771D02*
X82828571Y-104010771D01*
X82828571Y-104010771D02*
X82733333Y-104058390D01*
X82733333Y-104058390D02*
X82685714Y-104106009D01*
X82685714Y-104106009D02*
X82638095Y-104201247D01*
X82638095Y-104201247D02*
X82638095Y-104439342D01*
X82638095Y-104439342D02*
X82685714Y-104534580D01*
X82685714Y-104534580D02*
X82733333Y-104582200D01*
X82733333Y-104582200D02*
X82828571Y-104629819D01*
X82828571Y-104629819D02*
X83066666Y-104629819D01*
X83066666Y-104629819D02*
X83161904Y-104582200D01*
X83161904Y-104582200D02*
X83209523Y-104534580D01*
X92284580Y-111932142D02*
X92332200Y-111884523D01*
X92332200Y-111884523D02*
X92379819Y-111741666D01*
X92379819Y-111741666D02*
X92379819Y-111646428D01*
X92379819Y-111646428D02*
X92332200Y-111503571D01*
X92332200Y-111503571D02*
X92236961Y-111408333D01*
X92236961Y-111408333D02*
X92141723Y-111360714D01*
X92141723Y-111360714D02*
X91951247Y-111313095D01*
X91951247Y-111313095D02*
X91808390Y-111313095D01*
X91808390Y-111313095D02*
X91617914Y-111360714D01*
X91617914Y-111360714D02*
X91522676Y-111408333D01*
X91522676Y-111408333D02*
X91427438Y-111503571D01*
X91427438Y-111503571D02*
X91379819Y-111646428D01*
X91379819Y-111646428D02*
X91379819Y-111741666D01*
X91379819Y-111741666D02*
X91427438Y-111884523D01*
X91427438Y-111884523D02*
X91475057Y-111932142D01*
X91475057Y-112313095D02*
X91427438Y-112360714D01*
X91427438Y-112360714D02*
X91379819Y-112455952D01*
X91379819Y-112455952D02*
X91379819Y-112694047D01*
X91379819Y-112694047D02*
X91427438Y-112789285D01*
X91427438Y-112789285D02*
X91475057Y-112836904D01*
X91475057Y-112836904D02*
X91570295Y-112884523D01*
X91570295Y-112884523D02*
X91665533Y-112884523D01*
X91665533Y-112884523D02*
X91808390Y-112836904D01*
X91808390Y-112836904D02*
X92379819Y-112265476D01*
X92379819Y-112265476D02*
X92379819Y-112884523D01*
X91379819Y-113503571D02*
X91379819Y-113598809D01*
X91379819Y-113598809D02*
X91427438Y-113694047D01*
X91427438Y-113694047D02*
X91475057Y-113741666D01*
X91475057Y-113741666D02*
X91570295Y-113789285D01*
X91570295Y-113789285D02*
X91760771Y-113836904D01*
X91760771Y-113836904D02*
X91998866Y-113836904D01*
X91998866Y-113836904D02*
X92189342Y-113789285D01*
X92189342Y-113789285D02*
X92284580Y-113741666D01*
X92284580Y-113741666D02*
X92332200Y-113694047D01*
X92332200Y-113694047D02*
X92379819Y-113598809D01*
X92379819Y-113598809D02*
X92379819Y-113503571D01*
X92379819Y-113503571D02*
X92332200Y-113408333D01*
X92332200Y-113408333D02*
X92284580Y-113360714D01*
X92284580Y-113360714D02*
X92189342Y-113313095D01*
X92189342Y-113313095D02*
X91998866Y-113265476D01*
X91998866Y-113265476D02*
X91760771Y-113265476D01*
X91760771Y-113265476D02*
X91570295Y-113313095D01*
X91570295Y-113313095D02*
X91475057Y-113360714D01*
X91475057Y-113360714D02*
X91427438Y-113408333D01*
X91427438Y-113408333D02*
X91379819Y-113503571D01*
X84516666Y-105759580D02*
X84564285Y-105807200D01*
X84564285Y-105807200D02*
X84707142Y-105854819D01*
X84707142Y-105854819D02*
X84802380Y-105854819D01*
X84802380Y-105854819D02*
X84945237Y-105807200D01*
X84945237Y-105807200D02*
X85040475Y-105711961D01*
X85040475Y-105711961D02*
X85088094Y-105616723D01*
X85088094Y-105616723D02*
X85135713Y-105426247D01*
X85135713Y-105426247D02*
X85135713Y-105283390D01*
X85135713Y-105283390D02*
X85088094Y-105092914D01*
X85088094Y-105092914D02*
X85040475Y-104997676D01*
X85040475Y-104997676D02*
X84945237Y-104902438D01*
X84945237Y-104902438D02*
X84802380Y-104854819D01*
X84802380Y-104854819D02*
X84707142Y-104854819D01*
X84707142Y-104854819D02*
X84564285Y-104902438D01*
X84564285Y-104902438D02*
X84516666Y-104950057D01*
X83659523Y-105188152D02*
X83659523Y-105854819D01*
X83897618Y-104807200D02*
X84135713Y-105521485D01*
X84135713Y-105521485D02*
X83516666Y-105521485D01*
X89884580Y-111908333D02*
X89932200Y-111860714D01*
X89932200Y-111860714D02*
X89979819Y-111717857D01*
X89979819Y-111717857D02*
X89979819Y-111622619D01*
X89979819Y-111622619D02*
X89932200Y-111479762D01*
X89932200Y-111479762D02*
X89836961Y-111384524D01*
X89836961Y-111384524D02*
X89741723Y-111336905D01*
X89741723Y-111336905D02*
X89551247Y-111289286D01*
X89551247Y-111289286D02*
X89408390Y-111289286D01*
X89408390Y-111289286D02*
X89217914Y-111336905D01*
X89217914Y-111336905D02*
X89122676Y-111384524D01*
X89122676Y-111384524D02*
X89027438Y-111479762D01*
X89027438Y-111479762D02*
X88979819Y-111622619D01*
X88979819Y-111622619D02*
X88979819Y-111717857D01*
X88979819Y-111717857D02*
X89027438Y-111860714D01*
X89027438Y-111860714D02*
X89075057Y-111908333D01*
X88979819Y-112241667D02*
X88979819Y-112908333D01*
X88979819Y-112908333D02*
X89979819Y-112479762D01*
G04 #@! TO.C,U6*
D11*
X136262900Y-105428600D02*
G75*
G02*
X135500900Y-105428600I-381000J0D01*
G01*
X135500900Y-105428600D02*
G75*
G02*
X136262900Y-105428600I381000J0D01*
G01*
G04 #@! TO.C,C8*
D12*
X86890835Y-105965000D02*
X86659165Y-105965000D01*
X86890835Y-106685000D02*
X86659165Y-106685000D01*
G04 #@! TO.C,C13*
X91740000Y-102965835D02*
X91740000Y-102734165D01*
X92460000Y-102965835D02*
X92460000Y-102734165D01*
G04 #@! TO.C,C2*
X92753377Y-109633696D02*
X92753377Y-109865366D01*
X93473377Y-109633696D02*
X93473377Y-109865366D01*
G04 #@! TO.C,C3*
X86890835Y-107840000D02*
X86659165Y-107840000D01*
X86890835Y-108560000D02*
X86659165Y-108560000D01*
G04 #@! TO.C,C18*
X94764165Y-104430000D02*
X94995835Y-104430000D01*
X94764165Y-105150000D02*
X94995835Y-105150000D01*
G04 #@! TO.C,C9*
X89760000Y-102965835D02*
X89760000Y-102734165D01*
X90480000Y-102965835D02*
X90480000Y-102734165D01*
G04 #@! TO.C,C17*
X87865000Y-109634165D02*
X87865000Y-109865835D01*
X88585000Y-109634165D02*
X88585000Y-109865835D01*
G04 #@! TO.C,C5*
X90740000Y-102965835D02*
X90740000Y-102734165D01*
X91460000Y-102965835D02*
X91460000Y-102734165D01*
G04 #@! TO.C,C12*
X90790000Y-109634165D02*
X90790000Y-109865835D01*
X91510000Y-109634165D02*
X91510000Y-109865835D01*
G04 #@! TO.C,C22*
X85640000Y-102965835D02*
X85640000Y-102734165D01*
X86360000Y-102965835D02*
X86360000Y-102734165D01*
G04 #@! TO.C,C19*
X86800000Y-101765835D02*
X86800000Y-101534165D01*
X87520000Y-101765835D02*
X87520000Y-101534165D01*
G04 #@! TO.C,C11*
X94998335Y-106410000D02*
X94766665Y-106410000D01*
X94998335Y-107130000D02*
X94766665Y-107130000D01*
G04 #@! TO.C,C14*
X86890835Y-106915000D02*
X86659165Y-106915000D01*
X86890835Y-107635000D02*
X86659165Y-107635000D01*
G04 #@! TO.C,C1*
X85840000Y-109890835D02*
X85840000Y-109659165D01*
X86560000Y-109890835D02*
X86560000Y-109659165D01*
G04 #@! TO.C,C6*
X87790000Y-102965835D02*
X87790000Y-102734165D01*
X88510000Y-102965835D02*
X88510000Y-102734165D01*
G04 #@! TO.C,C25*
X88840000Y-109865835D02*
X88840000Y-109634165D01*
X89560000Y-109865835D02*
X89560000Y-109634165D01*
G04 #@! TO.C,C10*
X88770000Y-102965835D02*
X88770000Y-102734165D01*
X89490000Y-102965835D02*
X89490000Y-102734165D01*
G04 #@! TO.C,C23*
X92740000Y-102734165D02*
X92740000Y-102965835D01*
X93460000Y-102734165D02*
X93460000Y-102965835D01*
G04 #@! TO.C,C21*
X94766665Y-105410000D02*
X94998335Y-105410000D01*
X94766665Y-106130000D02*
X94998335Y-106130000D01*
G04 #@! TO.C,C15*
X86715835Y-104090000D02*
X86484165Y-104090000D01*
X86715835Y-104810000D02*
X86484165Y-104810000D01*
G04 #@! TO.C,C20*
X91775777Y-109870708D02*
X91775777Y-109639038D01*
X92495777Y-109870708D02*
X92495777Y-109639038D01*
G04 #@! TO.C,C4*
X86890835Y-105015000D02*
X86659165Y-105015000D01*
X86890835Y-105735000D02*
X86659165Y-105735000D01*
G04 #@! TO.C,C7*
X89815000Y-109634165D02*
X89815000Y-109865835D01*
X90535000Y-109634165D02*
X90535000Y-109865835D01*
G04 #@! TD*
%LPC*%
D13*
G04 #@! TO.C,U1*
X90224900Y-106299999D03*
G04 #@! TD*
D14*
G04 #@! TO.C,J5*
X58177776Y-52499999D03*
D15*
X58177776Y-54999999D03*
X58177776Y-56999999D03*
X58177776Y-59499999D03*
X59677776Y-59999999D03*
X59677776Y-57999999D03*
X59677776Y-55999999D03*
X59677776Y-53999999D03*
X59677776Y-51999999D03*
D16*
X56177776Y-49429999D03*
X56177776Y-62569999D03*
G04 #@! TD*
D17*
G04 #@! TO.C,TP2*
X84800000Y-112400000D03*
G04 #@! TD*
D18*
G04 #@! TO.C,U6*
X138421900Y-102126600D03*
D19*
X146041900Y-97046600D03*
X146041900Y-86886600D03*
D18*
X138421900Y-81806600D03*
D20*
X135881900Y-99586600D03*
X135881900Y-94506600D03*
X135881900Y-89426600D03*
X135881900Y-84346600D03*
G04 #@! TD*
D17*
G04 #@! TO.C,TP3*
X85700000Y-130900000D03*
G04 #@! TD*
D14*
G04 #@! TO.C,J4*
X58177776Y-75766665D03*
D15*
X58177776Y-78266665D03*
X58177776Y-80266665D03*
X58177776Y-82766665D03*
X59677776Y-83266665D03*
X59677776Y-81266665D03*
X59677776Y-79266665D03*
X59677776Y-77266665D03*
X59677776Y-75266665D03*
D16*
X56177776Y-72696665D03*
X56177776Y-85836665D03*
G04 #@! TD*
D21*
G04 #@! TO.C,H2*
X56025000Y-140525000D03*
G04 #@! TD*
G04 #@! TO.C,H1*
X56025000Y-42150000D03*
G04 #@! TD*
D17*
G04 #@! TO.C,TP1*
X94600000Y-113300000D03*
G04 #@! TD*
G04 #@! TO.C,TP5*
X144250000Y-47837500D03*
G04 #@! TD*
G04 #@! TO.C,TP7*
X120137500Y-112350000D03*
G04 #@! TD*
D14*
G04 #@! TO.C,J2*
X58177776Y-122499999D03*
D15*
X58177776Y-124999999D03*
X58177776Y-126999999D03*
X58177776Y-129499999D03*
X59677776Y-129999999D03*
X59677776Y-127999999D03*
X59677776Y-125999999D03*
X59677776Y-123999999D03*
X59677776Y-121999999D03*
D16*
X56177776Y-119429999D03*
X56177776Y-132569999D03*
G04 #@! TD*
D21*
G04 #@! TO.C,H4*
X145250000Y-132450000D03*
G04 #@! TD*
D22*
G04 #@! TO.C,J1*
X97100000Y-145750000D03*
D23*
X98100000Y-146300000D03*
X99100000Y-146300000D03*
X100100000Y-146300000D03*
X101100000Y-146300000D03*
X102100000Y-146300000D03*
X103100000Y-146300000D03*
X104100000Y-146300000D03*
X105100000Y-146300000D03*
X106100000Y-146300000D03*
X107100000Y-146300000D03*
X110100000Y-146300000D03*
X111100000Y-146300000D03*
X112100000Y-146300000D03*
X113100000Y-146300000D03*
X114100000Y-146300000D03*
X115100000Y-146300000D03*
X116100000Y-146300000D03*
G04 #@! TD*
D17*
G04 #@! TO.C,TP6*
X117750000Y-117700000D03*
G04 #@! TD*
D21*
G04 #@! TO.C,H3*
X145225000Y-65950000D03*
G04 #@! TD*
D14*
G04 #@! TO.C,J3*
X58177776Y-99033332D03*
D15*
X58177776Y-101533332D03*
X58177776Y-103533332D03*
X58177776Y-106033332D03*
X59677776Y-106533332D03*
X59677776Y-104533332D03*
X59677776Y-102533332D03*
X59677776Y-100533332D03*
X59677776Y-98533332D03*
D16*
X56177776Y-95963332D03*
X56177776Y-109103332D03*
G04 #@! TD*
D17*
G04 #@! TO.C,TP4*
X137250000Y-41237500D03*
G04 #@! TD*
D24*
G04 #@! TO.C,C8*
X87342500Y-106325000D03*
X86207500Y-106325000D03*
G04 #@! TD*
D25*
G04 #@! TO.C,C13*
X92100000Y-103417500D03*
X92100000Y-102282500D03*
G04 #@! TD*
D26*
G04 #@! TO.C,C2*
X93113377Y-109182031D03*
X93113377Y-110317031D03*
G04 #@! TD*
D24*
G04 #@! TO.C,C3*
X87342500Y-108200000D03*
X86207500Y-108200000D03*
G04 #@! TD*
D27*
G04 #@! TO.C,C18*
X94312500Y-104790000D03*
X95447500Y-104790000D03*
G04 #@! TD*
D25*
G04 #@! TO.C,C9*
X90120000Y-103417500D03*
X90120000Y-102282500D03*
G04 #@! TD*
D26*
G04 #@! TO.C,C17*
X88225000Y-109182500D03*
X88225000Y-110317500D03*
G04 #@! TD*
D25*
G04 #@! TO.C,C5*
X91100000Y-103417500D03*
X91100000Y-102282500D03*
G04 #@! TD*
D26*
G04 #@! TO.C,C12*
X91150000Y-109182500D03*
X91150000Y-110317500D03*
G04 #@! TD*
D25*
G04 #@! TO.C,C22*
X86000000Y-103417500D03*
X86000000Y-102282500D03*
G04 #@! TD*
G04 #@! TO.C,C19*
X87160000Y-102217500D03*
X87160000Y-101082500D03*
G04 #@! TD*
D24*
G04 #@! TO.C,C11*
X95450000Y-106770000D03*
X94315000Y-106770000D03*
G04 #@! TD*
G04 #@! TO.C,C14*
X87342500Y-107275000D03*
X86207500Y-107275000D03*
G04 #@! TD*
D25*
G04 #@! TO.C,C1*
X86200000Y-110342500D03*
X86200000Y-109207500D03*
G04 #@! TD*
G04 #@! TO.C,C6*
X88150000Y-103417500D03*
X88150000Y-102282500D03*
G04 #@! TD*
G04 #@! TO.C,C25*
X89200000Y-110317500D03*
X89200000Y-109182500D03*
G04 #@! TD*
G04 #@! TO.C,C10*
X89130000Y-103417500D03*
X89130000Y-102282500D03*
G04 #@! TD*
D26*
G04 #@! TO.C,C23*
X93100000Y-102282500D03*
X93100000Y-103417500D03*
G04 #@! TD*
D27*
G04 #@! TO.C,C21*
X94315000Y-105770000D03*
X95450000Y-105770000D03*
G04 #@! TD*
D24*
G04 #@! TO.C,C15*
X87167500Y-104450000D03*
X86032500Y-104450000D03*
G04 #@! TD*
D25*
G04 #@! TO.C,C20*
X92135777Y-110322373D03*
X92135777Y-109187373D03*
G04 #@! TD*
D24*
G04 #@! TO.C,C4*
X87342500Y-105375000D03*
X86207500Y-105375000D03*
G04 #@! TD*
D26*
G04 #@! TO.C,C7*
X90175000Y-109182500D03*
X90175000Y-110317500D03*
G04 #@! TD*
%LPD*%
M02*
